<?xml version="1.0" standalone="no"?>
<!DOCTYPE svg PUBLIC "-//W3C//DTD SVG 1.1//EN" "http://www.w3.org/Graphics/SVG/1.1/DTD/svg11.dtd" >
<svg xmlns="http://www.w3.org/2000/svg" xmlns:xlink="http://www.w3.org/1999/xlink" version="1.1">
<metadata>
Created by FontForge 20170731 at Thu Feb 10 22:56:17 2022
 By Aleksey,,,
Copyright (c) 2013 by Lucas Sharp. All rights reserved.
</metadata>
<defs>
<font id="SharpSansNo1-Medium" horiz-adv-x="1204" >
  <font-face 
    font-family="Sharp Sans No1 Medium"
    font-weight="600"
    font-stretch="normal"
    units-per-em="2048"
    panose-1="0 0 0 0 0 0 0 0 0 0"
    ascent="1536"
    descent="-512"
    x-height="1024"
    cap-height="1495"
    bbox="-143 -561 2753 2218"
    underline-thickness="102"
    underline-position="-409"
    unicode-range="U+0020-F60B"
  />
<missing-glyph horiz-adv-x="1843" 
d="M174 0v1495h1495v-1495h-1495zM922 678l-580 -580h1159zM342 1397l580 -580l579 580h-1159zM991 748l580 -580v1159zM852 748l-580 579v-1159z" />
    <glyph glyph-name="interrobang" unicode="&#x21;&#x3f;" horiz-adv-x="1120" 
d="M489 389q-6 206 -6 866v113q-143 -27 -231 -182l-141 65q61 116 178 190q118 75 274 75q192 0 319 -106q126 -105 126 -273q0 -89 -29 -158q-28 -66 -73 -105q-15 -13 -47 -40t-48 -40q-51 -43 -95 -86q-45 -43 -73 -119q-29 -78 -29 -181v-19h-125zM846 1139
q0 84 -58 148q-57 63 -151 81v-113q0 -223 -16 -467q30 39 96 98q68 61 98 114q31 56 31 139zM471 0v281h160v-281h-160z" />
    <glyph glyph-name="interrobangdown" unicode="&#xa1;&#xbf;" horiz-adv-x="1120" 
d="M563 -492q-191 0 -318 106q-126 105 -126 273q0 92 28 158t73 105q15 13 47 40t48 40q59 51 96 86q43 42 72 119q29 78 29 181v19h125q6 -206 6 -866v-113q140 27 231 182l142 -65q-61 -116 -178 -190q-119 -75 -275 -75zM281 -115q0 -85 57 -148t151 -81v113
q0 191 15 464q-26 -34 -95 -97q-70 -63 -98 -113q-30 -52 -30 -138zM655 1024v-281h-159v281h159z" />
    <glyph glyph-name=".notdef" horiz-adv-x="1843" 
d="M174 0v1495h1495v-1495h-1495zM922 678l-580 -580h1159zM342 1397l580 -580l579 580h-1159zM991 748l580 -580v1159zM852 748l-580 579v-1159z" />
    <glyph glyph-name=".null" horiz-adv-x="0" 
 />
    <glyph glyph-name="nonmarkingreturn" horiz-adv-x="681" 
 />
    <glyph glyph-name="space" unicode=" " horiz-adv-x="512" 
 />
    <glyph glyph-name="exclam" unicode="!" horiz-adv-x="491" 
d="M203 406q-35 371 -35 849v240h160v-240q0 -478 -35 -849h-90zM168 0v281h160v-281h-160z" />
    <glyph glyph-name="quotedbl" unicode="&#x22;" horiz-adv-x="618" 
d="M166 1024q-45 189 -45 299v172h139v-172q0 -110 -45 -299h-49zM406 1024q-46 193 -46 299v172h140v-172q0 -110 -45 -299h-49z" />
    <glyph glyph-name="numbersign" unicode="#" horiz-adv-x="1705" 
d="M1065 0v385h-422v-385h-160v385h-391v154h391v430h-391v153h391v373h160v-373h422v373h160v-373h389v-153h-389v-430h389v-154h-389v-385h-160zM643 969v-430h422v430h-422z" />
    <glyph glyph-name="dollar" unicode="$" 
d="M1120 410q0 -157 -118 -279q-118 -123 -308 -145v-232h-159v230q-278 21 -463 243l121 113q141 -190 344 -211v606q-80 27 -147 58q-66 31 -125 72q-65 46 -100 113q-34 65 -34 152q0 156 108 261q106 103 296 120v209h159v-211q257 -29 404 -225l-129 -96
q-99 154 -277 182v-530q78 -27 123 -45q39 -16 112 -57q64 -36 102 -79t64 -105q27 -64 27 -144zM956 408q0 103 -69 166q-68 62 -195 108v-551q125 21 194 95q70 74 70 182zM293 1130q0 -86 63 -140q61 -52 181 -97v481q-117 -15 -180 -80q-64 -65 -64 -164z" />
    <glyph glyph-name="percent" unicode="%" horiz-adv-x="1753" 
d="M272 1169q0 -88 62 -152q62 -63 147 -63q87 0 147 63t60 152q0 91 -60 152t-147 61q-86 0 -147 -61q-62 -62 -62 -152zM950 326q0 144 101 245t245 101q145 0 247 -102t102 -244q0 -145 -102 -247t-247 -102q-142 0 -244 102t-102 247zM145 0l1285 1495h202l-1284 -1495
h-203zM1090 326q0 -90 60 -153q59 -62 146 -62t148 62t61 153q0 90 -61 151q-62 62 -148 62t-146 -62q-60 -61 -60 -151zM133 1169q0 144 101 245q102 102 247 102q143 0 245 -102q101 -101 101 -245t-101 -245q-103 -103 -245 -103q-145 0 -247 102q-101 101 -101 246z" />
    <glyph glyph-name="ampersand" unicode="&#x26;" horiz-adv-x="1554" 
d="M1262 0l-146 143q-202 -166 -442 -166q-145 0 -266 45q-118 44 -183 115q-63 69 -99 155q-34 81 -34 171q0 145 75 262t202 186q-88 118 -88 256q0 147 105 248q106 101 280 101q242 0 366 -195l-131 -86q-89 141 -235 141q-98 0 -160 -60t-62 -149q0 -87 50 -157
q57 -80 198 -222l436 -438q142 174 172 389h-241v150h397v-68q0 -139 -60 -292q-59 -150 -169 -277l252 -252h-217zM674 119q188 0 344 123l-455 454q-72 72 -102 105q-209 -119 -209 -336q0 -136 109 -241t313 -105z" />
    <glyph glyph-name="quotesingle" unicode="'" horiz-adv-x="378" 
d="M215 1024h-49q-45 189 -45 299v172h139v-172q0 -110 -45 -299z" />
    <glyph glyph-name="parenleft" unicode="(" horiz-adv-x="882" 
d="M668 -506q-568 397 -568 1018q0 234 81 432q82 200 198 331q118 133 285 257l110 -125q-239 -168 -372 -383q-132 -214 -132 -510q0 -548 506 -895z" />
    <glyph glyph-name="parenright" unicode=")" horiz-adv-x="882" 
d="M612 512q0 296 -132 510q-133 217 -371 383l110 125q167 -124 285 -257q114 -129 197 -331q81 -198 81 -432q0 -622 -567 -1018l-109 125q506 347 506 895z" />
    <glyph glyph-name="asterisk" unicode="*" horiz-adv-x="892" 
d="M721 893l-240 180l37 -303h-143l35 303l-244 -182l-70 125l279 119l-279 122l72 121l242 -182l-35 299h143l-37 -299l242 180l72 -123l-279 -118l279 -119z" />
    <glyph glyph-name="plus" unicode="+" horiz-adv-x="968" 
d="M106 680v135h312v309h135v-309h311v-135h-311v-313h-135v313h-312z" />
    <glyph glyph-name="comma" unicode="," horiz-adv-x="413" 
d="M59 -240l84 418h170l-127 -418h-127z" />
    <glyph glyph-name="hyphen" unicode="-" horiz-adv-x="968" 
d="M106 442v140h758v-140h-758z" />
    <glyph glyph-name="period" unicode="." horiz-adv-x="413" 
d="M127 0v281h160v-281h-160z" />
    <glyph glyph-name="slash" unicode="/" horiz-adv-x="987" 
d="M55 0l709 1495h170l-709 -1495h-170z" />
    <glyph glyph-name="zero" unicode="0" 
d="M600 125q156 0 237 88q81 89 81 240v575q0 164 -81 253t-233 89t-235 -92q-82 -91 -82 -250v-573q0 -159 79 -244q80 -86 234 -86zM602 -20q-230 0 -352 126q-123 128 -123 347v575q0 214 132 350q133 138 343 138q214 0 345 -139q130 -137 130 -349v-575
q0 -221 -125 -348q-124 -125 -350 -125z" />
    <glyph glyph-name="one" unicode="1" 
d="M86 0v154h426v1026q-30 -45 -100 -71t-144 -26h-24v166h10q136 0 200 76t64 170h154v-1341h446v-154h-1032z" />
    <glyph glyph-name="two" unicode="2" 
d="M123 0v158q0 82 32 158q33 78 100 145q71 71 124 114q63 51 151 113q20 12 61 42q54 39 61 45q8 8 55 42q39 29 55 45q24 24 44 42q27 24 41 47q4 6 12.5 21.5t14.5 24.5q18 29 22 53q5 28 5 52q0 120 -82 195q-83 75 -223 75q-112 0 -199 -59q-89 -60 -141 -160l-139 74
q67 130 193 209q128 80 284 80q210 0 340 -121q131 -122 131 -295q0 -59 -14 -107q-15 -51 -52 -100q-29 -38 -64 -83q-25 -32 -91 -84q-28 -22 -91 -71q-3 -2 -102 -71q-80 -55 -138 -100q-44 -34 -107 -94t-89 -115t-26 -117v-4h803v-154h-971z" />
    <glyph glyph-name="three" unicode="3" 
d="M586 -18q-328 0 -506 219l127 104q145 -180 379 -180q158 0 253 83t95 208q0 126 -104 206q-102 78 -259 78h-145v152h145q147 0 237 70q89 69 89 188q0 121 -86 192q-85 70 -233 70q-99 0 -199 -47q-98 -46 -148 -119l-131 92q72 94 204 156q133 62 278 62
q222 0 348 -112q125 -111 125 -294q0 -231 -215 -332q254 -105 254 -362q0 -194 -138 -315q-135 -119 -370 -119z" />
    <glyph glyph-name="four" unicode="4" 
d="M743 0v344h-657v148l655 1003h162v-1006h215v-145h-215v-344h-160zM260 489h483v740z" />
    <glyph glyph-name="five" unicode="5" 
d="M606 -20q-166 0 -296 72q-129 71 -199 196l149 96q117 -215 346 -215q150 0 245 96q95 97 95 252q0 164 -103 258t-245 94q-200 0 -313 -153l-160 51l115 768h766v-152h-631l-72 -466q124 100 295 100q210 0 360 -129t150 -371q0 -222 -140 -359q-141 -138 -362 -138z
" />
    <glyph glyph-name="six" unicode="6" 
d="M602 -20q-218 0 -361 143q-145 145 -145 352q0 188 109 342l442 678h193l-353 -539q71 17 138 17q204 0 344 -143q139 -142 139 -355q0 -211 -146 -353t-360 -142zM600 125q146 0 249 103t103 247q0 148 -103 250t-249 102q-145 0 -247 -102q-101 -101 -101 -248
q0 -145 102 -249q102 -103 246 -103z" />
    <glyph glyph-name="seven" unicode="7" 
d="M322 0l616 1341h-852v154h1032v-139l-622 -1356h-174z" />
    <glyph glyph-name="eight" unicode="8" 
d="M602 -20q-244 0 -373 122q-131 123 -131 320q0 116 63 214q64 99 173 155q-191 113 -191 327q0 172 126 285q127 113 333 113q202 0 333 -113q130 -112 130 -285q0 -210 -197 -327q111 -57 174 -155q64 -99 64 -214q0 -194 -135 -319q-133 -123 -369 -123zM602 125
q162 0 256 85t94 212q0 124 -92 210q-91 85 -258 85t-258 -85q-92 -86 -92 -210q0 -127 94 -212t256 -85zM602 860q152 0 233 72q80 71 80 186q0 112 -82 184q-83 72 -231 72q-143 0 -227 -72t-84 -184q0 -114 80 -186q79 -72 231 -72z" />
    <glyph glyph-name="nine" unicode="9" 
d="M557 0h-192l352 539q-59 -17 -137 -17q-204 0 -344 143t-140 355q0 210 147 353q148 143 359 143q218 0 362 -144t144 -352q0 -188 -109 -342zM604 668q145 0 247 102q101 101 101 248q0 146 -102 249t-246 103q-146 0 -249 -103t-103 -247q0 -148 103 -250t249 -102z
" />
    <glyph glyph-name="colon" unicode=":" horiz-adv-x="411" 
d="M127 0v281h158v-281h-158zM127 743v281h158v-281h-158z" />
    <glyph glyph-name="semicolon" unicode=";" horiz-adv-x="413" 
d="M127 743v281h158v-281h-158zM59 -240l84 418h170l-127 -418h-127z" />
    <glyph glyph-name="less" unicode="&#x3c;" horiz-adv-x="968" 
d="M864 389l-758 293v135l758 287v-143l-592 -211l592 -218v-143z" />
    <glyph glyph-name="equal" unicode="=" horiz-adv-x="968" 
d="M106 842v137h758v-137h-758zM106 510v135h758v-135h-758z" />
    <glyph glyph-name="greater" unicode="&#x3e;" horiz-adv-x="968" 
d="M106 389v143l592 218l-592 211v143l758 -287v-135z" />
    <glyph glyph-name="question" unicode="?" horiz-adv-x="1120" 
d="M455 389v19q0 122 28 212q27 88 73 140q37 42 94 94q48 44 94 77q44 32 73 85t29 123q0 105 -81 171t-204 66q-201 0 -309 -190l-141 65q61 116 178 190q118 75 274 75q192 0 319 -106q126 -105 126 -273q0 -78 -23 -139q-23 -62 -58 -98q-34 -36 -80 -72
q-10 -8 -27.5 -21.5t-32 -25t-27.5 -22.5q-43 -36 -79 -79q-35 -42 -58 -113t-23 -159v-19h-145zM449 0v281h159v-281h-159z" />
    <glyph glyph-name="at" unicode="@" horiz-adv-x="1730" 
d="M864 -256q-317 0 -540 224q-224 226 -224 544t230 543t549 225q324 0 538 -206q213 -206 213 -484q0 -185 -83 -306q-82 -120 -238 -120q-163 0 -230 117q-91 -123 -270 -123q-142 0 -241 102t-81 270q21 177 128 270q109 95 241 95q154 0 227 -98l9 86h155l-41 -371
q-12 -105 16 -153q27 -46 99 -46q77 0 121 74q43 73 43 199q0 223 -170 387t-438 164q-258 0 -440 -184q-181 -182 -181 -441q0 -258 176 -442q176 -183 432 -183q265 0 445 185l110 -95q-99 -101 -247 -167q-147 -66 -308 -66zM840 299q91 0 150 68q60 69 67 163
q11 95 -36 161q-47 67 -136 67q-90 0 -158 -62q-69 -62 -76 -164q-15 -95 41 -164q55 -69 148 -69z" />
    <glyph glyph-name="A" unicode="A" horiz-adv-x="1443" 
d="M70 0l565 1495h172l567 -1495h-166l-145 379h-682l-143 -379h-168zM721 1280l-283 -750h568z" />
    <glyph glyph-name="B" unicode="B" horiz-adv-x="1294" 
d="M147 0v1495h545q206 0 333 -109q126 -108 126 -286q0 -228 -188 -322q110 -44 170 -138q59 -91 59 -220q0 -192 -129 -306t-340 -114h-576zM717 696h-410v-551h414q139 0 224 78t85 199q0 125 -82 200q-81 74 -231 74zM690 1350h-383v-506h402q134 0 206 71q74 72 74 185
q0 111 -82 180q-84 70 -217 70z" />
    <glyph glyph-name="C" unicode="C" horiz-adv-x="1611" 
d="M870 -20q-317 0 -542 225q-226 226 -226 543q0 316 226 542t542 226q209 0 386 -105q178 -106 280 -281l-137 -79q-77 143 -218 228q-140 85 -311 85q-256 0 -430 -180t-174 -436q0 -257 174 -437t430 -180q188 0 329 90q139 89 216 246l141 -74q-101 -191 -279 -302
q-179 -111 -407 -111z" />
    <glyph glyph-name="D" unicode="D" horiz-adv-x="1445" 
d="M147 0v1495h418q343 0 561 -213q217 -213 217 -534q0 -319 -221 -534q-220 -214 -551 -214h-424zM553 1348h-246v-1198h252q271 0 446 171t175 427q0 262 -171 431q-170 169 -456 169z" />
    <glyph glyph-name="E" unicode="E" horiz-adv-x="1177" 
d="M147 0v1495h908v-152h-748v-518h748v-151h-748v-520h748v-154h-908z" />
    <glyph glyph-name="F" unicode="F" horiz-adv-x="1116" 
d="M147 0v1495h846v-152h-686v-518h686v-151h-686v-674h-160z" />
    <glyph glyph-name="G" unicode="G" horiz-adv-x="1730" 
d="M877 -20q-325 0 -549 224q-226 226 -226 544q0 319 223 544q222 224 560 224q213 0 388 -105q174 -104 275 -285l-139 -79q-78 145 -215 231t-309 86q-275 0 -447 -178t-172 -438q0 -257 174 -437t437 -180q254 0 406 142t181 372h-600v152h766v-45q0 -322 -202 -548
q-200 -224 -551 -224z" />
    <glyph glyph-name="H" unicode="H" horiz-adv-x="1402" 
d="M1096 0v676h-789v-676h-160v1495h160v-666h789v666h159v-1495h-159z" />
    <glyph glyph-name="I" unicode="I" horiz-adv-x="491" 
d="M166 0v1495h160v-1495h-160z" />
    <glyph glyph-name="J" unicode="J" horiz-adv-x="960" 
d="M444 -20q-128 0 -226 58q-100 59 -150 152l143 95q80 -160 229 -160q101 0 162 70q60 69 60 194v1106h159v-1102q0 -196 -101 -304q-102 -109 -276 -109z" />
    <glyph glyph-name="K" unicode="K" horiz-adv-x="1323" 
d="M1092 0l-504 788l-281 -329v-459h-160v1495h160v-823l707 823h196l-510 -598l576 -897h-184z" />
    <glyph glyph-name="L" unicode="L" horiz-adv-x="1091" 
d="M147 0v1495h160v-1341h668v-154h-828z" />
    <glyph glyph-name="M" unicode="M" horiz-adv-x="1759" 
d="M147 0v1495h158l567 -784l586 784h154v-1495h-160v1237l-584 -786l-561 766v-1217h-160z" />
    <glyph glyph-name="N" unicode="N" horiz-adv-x="1513" 
d="M147 0v1495h179l880 -1241v1241h160v-1495h-170l-889 1251v-1251h-160z" />
    <glyph glyph-name="O" unicode="O" horiz-adv-x="1740" 
d="M870 -20q-317 0 -542 225q-226 226 -226 543q0 316 226 542t542 226q317 0 543 -226q225 -225 225 -542q0 -318 -225 -543t-543 -225zM870 131q256 0 430 180q175 181 175 437q0 255 -175 436q-174 180 -430 180t-430 -180t-174 -436q0 -257 174 -437t430 -180z" />
    <glyph glyph-name="P" unicode="P" horiz-adv-x="1265" 
d="M147 0v1495h467q244 0 394 -146q151 -147 151 -368q0 -222 -151 -369q-152 -147 -394 -147h-307v-465h-160zM604 1348h-297v-734h297q180 0 287 104q106 103 106 263t-106 263q-107 104 -287 104z" />
    <glyph glyph-name="Q" unicode="Q" horiz-adv-x="1742" 
d="M1403 0l-533 647h197l254 -305q156 180 156 406q0 257 -175 436q-176 180 -432 180t-430 -180t-174 -436q0 -257 174 -437t430 -180q141 0 258 59l99 -118q-167 -92 -357 -92q-317 0 -542 225q-226 226 -226 543q0 316 226 542t542 226q317 0 543 -226q225 -225 225 -542
q0 -300 -217 -527l185 -221h-203z" />
    <glyph glyph-name="R" unicode="R" horiz-adv-x="1216" 
d="M147 0v1495h459q217 0 363 -137q145 -136 145 -338q0 -162 -99 -290t-267 -165l378 -565h-186l-451 684h103q162 0 262 101t100 235q0 144 -98 235q-101 93 -262 93h-287v-1348h-160z" />
    <glyph glyph-name="S" unicode="S" horiz-adv-x="1153" 
d="M575 -20q-336 0 -528 274l135 102q150 -231 393 -231q140 0 229 80t89 203q0 53 -23 97q-22 43 -49 70t-87 57q-61 31 -94 42q-7 2 -26 9t-41 14.5t-45 15.5q-102 36 -154 59q-61 28 -128 75q-67 48 -102 119q-33 67 -33 162q0 165 131 276q132 112 327 112
q290 0 463 -226l-127 -94q-114 178 -338 178q-125 0 -210 -70t-85 -176q0 -48 23 -91q22 -41 47 -66t84 -53q68 -32 92 -41q33 -12 111 -39q86 -30 126 -46q43 -17 111 -58q63 -38 100 -79q34 -38 62 -105q27 -65 27 -142q0 -172 -135 -300q-136 -128 -345 -128z" />
    <glyph glyph-name="T" unicode="T" horiz-adv-x="1247" 
d="M545 0v1348h-451v147h1059v-147h-448v-1348h-160z" />
    <glyph glyph-name="U" unicode="U" horiz-adv-x="1296" 
d="M647 -20q-219 0 -363 145q-145 147 -145 362v1008h160v-1016q0 -145 100 -246q101 -102 248 -102t249 102q101 101 101 246v1016h160v-1008q0 -215 -145 -361t-365 -146z" />
    <glyph glyph-name="V" unicode="V" horiz-adv-x="1392" 
d="M614 0l-544 1495h166l460 -1266l459 1266h168l-547 -1495h-162z" />
    <glyph glyph-name="W" unicode="W" horiz-adv-x="2191" 
d="M512 0l-438 1495h170l356 -1247l414 1247h153l410 -1249l377 1249h164l-461 -1495h-162l-408 1245l-411 -1245h-164z" />
    <glyph glyph-name="X" unicode="X" horiz-adv-x="1341" 
d="M1094 0l-424 643l-422 -643h-180l510 768l-476 727h181l391 -592l389 592h180l-477 -717l508 -778h-180z" />
    <glyph glyph-name="Y" unicode="Y" horiz-adv-x="1267" 
d="M555 0v711l-496 784h179l397 -633l395 633h178l-493 -782v-713h-160z" />
    <glyph glyph-name="Z" unicode="Z" horiz-adv-x="1234" 
d="M123 0v147l801 1196h-777v152h965v-145l-801 -1196h801v-154h-989z" />
    <glyph glyph-name="bracketleft" unicode="[" horiz-adv-x="770" 
d="M106 -471v1966h560v-152h-400v-1662h400v-152h-560z" />
    <glyph glyph-name="backslash" unicode="\" horiz-adv-x="987" 
d="M764 0l-709 1495h170l709 -1495h-170z" />
    <glyph glyph-name="bracketright" unicode="]" horiz-adv-x="770" 
d="M106 -471v149h400v1665h-400v152h560v-1966h-560z" />
    <glyph glyph-name="asciicircum" unicode="^" horiz-adv-x="1019" 
d="M197 1090l247 344h129l252 -344h-163l-152 213l-150 -213h-163z" />
    <glyph glyph-name="underscore" unicode="_" horiz-adv-x="1173" 
d="M106 -158v138h963v-138h-963z" />
    <glyph glyph-name="grave" unicode="`" horiz-adv-x="1019" 
d="M567 1143l-297 332h203l242 -332h-148z" />
    <glyph glyph-name="a" unicode="a" horiz-adv-x="1294" 
d="M623 -20q-225 0 -374 155q-151 157 -151 377q0 224 150 378t375 154q101 0 207 -50q107 -50 169 -138v168h158v-1024h-158v168q-62 -88 -169 -138q-106 -50 -207 -50zM631 123q163 0 273 114q110 115 110 275q0 161 -111 275t-272 114q-156 0 -264 -114
q-109 -115 -109 -275t109 -275q108 -114 264 -114z" />
    <glyph glyph-name="b" unicode="b" horiz-adv-x="1290" 
d="M668 -20q-104 0 -210 50t-167 138v-168h-152v1495h154v-637q61 87 166 137q104 49 209 49q224 0 374 -154t150 -378q0 -220 -151 -377q-149 -155 -373 -155zM659 123q157 0 265 114t108 275t-108 275t-265 114q-161 0 -272 -114t-111 -275q0 -160 110 -275
q110 -114 273 -114z" />
    <glyph glyph-name="c" unicode="c" horiz-adv-x="1202" 
d="M637 -20q-232 0 -385 154q-154 156 -154 378q0 229 155 381q154 151 382 151q166 0 293 -83q128 -83 186 -222l-143 -61q-100 223 -338 223q-159 0 -267 -114t-108 -275q0 -163 110 -276t273 -113q238 0 338 237l145 -61q-67 -149 -188 -233q-124 -86 -299 -86z" />
    <glyph glyph-name="d" unicode="d" horiz-adv-x="1290" 
d="M623 -20q-225 0 -374 155q-151 157 -151 377q0 224 150 378t375 154q102 0 206 -49q106 -50 168 -137v637h154v-1495h-152v168q-62 -88 -169 -138q-106 -50 -207 -50zM631 123q163 0 273 114q110 115 110 275q0 161 -111 275t-272 114q-156 0 -264 -114
q-109 -115 -109 -275t109 -275q108 -114 264 -114z" />
    <glyph glyph-name="e" unicode="e" horiz-adv-x="1253" 
d="M637 -20q-241 0 -390 147t-149 377t151 386q150 154 380 154q226 0 375 -142t149 -374v-67h-901q15 -151 123 -246q107 -94 262 -94q240 0 346 211l137 -68q-149 -284 -483 -284zM629 903q-134 0 -237 -83q-102 -82 -132 -214h731q-22 137 -118 218q-94 79 -244 79z" />
    <glyph glyph-name="f" unicode="f" horiz-adv-x="720" 
d="M66 881v143h176v80q0 227 82 309t307 82h14v-145q-160 0 -202 -44t-42 -204v-78h244v-143h-244v-881h-159v881h-176z" />
    <glyph glyph-name="g" unicode="g" horiz-adv-x="1296" 
d="M623 -20q-225 0 -374 155q-151 157 -151 377q0 224 150 378t375 154q101 0 207 -50q107 -50 169 -138v168h158v-1006q0 -232 -137 -375t-369 -143q-359 0 -481 283l156 51q82 -194 325 -194q164 0 257 103q93 104 93 271v156q-61 -88 -167 -139t-211 -51zM631 123
q163 0 273 114q110 115 110 275q0 161 -111 275t-272 114q-156 0 -264 -114q-109 -115 -109 -275t109 -275q108 -114 264 -114z" />
    <glyph glyph-name="h" unicode="h" horiz-adv-x="1222" 
d="M139 0v1495h156v-621q119 170 348 170q209 0 326 -126q118 -127 118 -349v-569h-159v569q0 155 -79 243q-80 89 -228 89q-141 0 -232 -96q-92 -97 -92 -238v-567h-158z" />
    <glyph glyph-name="i" unicode="i" horiz-adv-x="434" 
d="M137 0v1024h160v-1024h-160zM137 1202v293h160v-293h-160z" />
    <glyph glyph-name="j" unicode="j" horiz-adv-x="434" 
d="M-109 -469v152q157 0 201 43q45 43 45 198v1100h160v-1102q0 -222 -83 -307q-82 -84 -298 -84h-25zM137 1202v293h160v-293h-160z" />
    <glyph glyph-name="k" unicode="k" horiz-adv-x="1097" 
d="M858 0l-356 496l-207 -211v-285h-156v1495h156v-1028l545 557h200l-424 -434l426 -590h-184z" />
    <glyph glyph-name="l" unicode="l" horiz-adv-x="438" 
d="M139 0v1495h160v-1495h-160z" />
    <glyph glyph-name="m" unicode="m" horiz-adv-x="1947" 
d="M137 0v1024h156v-139q111 159 328 159q265 0 364 -208q50 94 148 152q94 56 223 56q218 0 337 -120t119 -322v-602h-159v612q0 129 -81 210t-218 81q-129 0 -215 -83t-86 -224v-596h-158v631q0 122 -79 197t-208 75q-136 0 -225 -87q-88 -87 -88 -238v-578h-158z" />
    <glyph glyph-name="n" unicode="n" horiz-adv-x="1218" 
d="M137 0v1024h156v-152q118 172 348 172q209 0 326 -126q118 -127 118 -349v-569h-159v569q0 155 -79 243q-80 89 -229 89q-140 0 -231 -96q-92 -97 -92 -238v-567h-158z" />
    <glyph glyph-name="o" unicode="o" horiz-adv-x="1259" 
d="M629 -20q-221 0 -376 153t-155 379t155 379t376 153q223 0 378 -153q154 -153 154 -379t-154 -379q-155 -153 -378 -153zM629 123q156 0 264 114t108 275t-108 275t-264 114q-155 0 -263 -114t-108 -275t108 -275t263 -114z" />
    <glyph glyph-name="p" unicode="p" horiz-adv-x="1288" 
d="M666 -20q-112 0 -213 45q-100 45 -162 131v-627h-154v1495h152v-168q61 88 167 138t210 50q224 0 374 -154t150 -378q0 -220 -151 -377q-149 -155 -373 -155zM657 123q157 0 265 114t108 275t-108 275t-265 114q-161 0 -272 -114t-111 -275q0 -160 110 -275
q110 -114 273 -114z" />
    <glyph glyph-name="q" unicode="q" horiz-adv-x="1290" 
d="M623 -20q-225 0 -374 155q-151 157 -151 377q0 224 150 378t375 154q101 0 207 -50q107 -50 169 -138v168h152v-1495h-154v627q-63 -87 -162 -131q-102 -45 -212 -45zM631 123q163 0 273 114q110 115 110 275q0 161 -111 275t-272 114q-156 0 -264 -114
q-109 -115 -109 -275t109 -275q108 -114 264 -114z" />
    <glyph glyph-name="r" unicode="r" horiz-adv-x="796" 
d="M137 0v1024h158v-147q85 147 285 147h127v-147h-127q-155 0 -219 -82t-64 -265v-530h-160z" />
    <glyph glyph-name="s" unicode="s" horiz-adv-x="972" 
d="M481 -20q-269 0 -428 196l125 103q130 -160 309 -160q110 0 171 50t61 126q0 47 -39 79q-38 31 -78 43q-21 6 -125 32q-26 7 -35 8q-74 17 -125 36q-49 18 -104 49q-56 32 -83 84q-28 54 -28 124q0 118 104 207q105 90 269 90q115 0 220 -41q103 -40 169 -117l-116 -98
q-107 120 -273 120q-104 0 -160 -46q-57 -47 -57 -113q0 -67 61 -98t187 -60q7 -1 20 -4q72 -16 127 -35q53 -18 107 -49q58 -34 86 -85q28 -52 28 -126q0 -117 -99 -216t-294 -99z" />
    <glyph glyph-name="t" unicode="t" horiz-adv-x="743" 
d="M70 881v143h176v242l160 88v-330h241v-143h-241v-488q0 -155 44 -199t197 -44v-150h-22q-223 0 -301 81t-78 310v490h-176z" />
    <glyph glyph-name="u" unicode="u" horiz-adv-x="1218" 
d="M586 -20q-222 0 -337 124q-116 125 -116 351v569h160v-569q0 -155 79 -243q80 -89 228 -89q140 0 231 96q93 98 93 238v567h157v-1024h-155v152q-118 -172 -340 -172z" />
    <glyph glyph-name="v" unicode="v" horiz-adv-x="1075" 
d="M459 0l-398 1024h172l308 -809l303 809h170l-398 -1024h-157z" />
    <glyph glyph-name="w" unicode="w" horiz-adv-x="1769" 
d="M412 0l-338 1024h168l258 -799l303 799h153l312 -803l262 803h166l-346 -1024h-154l-317 805l-310 -805h-157z" />
    <glyph glyph-name="x" unicode="x" horiz-adv-x="1091" 
d="M43 0l403 520l-385 504h189l297 -389l297 389h190l-391 -502l408 -522h-195l-313 401l-305 -401h-195z" />
    <glyph glyph-name="y" unicode="y" horiz-adv-x="1146" 
d="M272 -473l232 532l-443 965h175l352 -782l325 782h172l-645 -1497h-168z" />
    <glyph glyph-name="z" unicode="z" horiz-adv-x="1093" 
d="M102 0v152l689 725h-670v147h864v-152l-690 -727h696v-145h-889z" />
    <glyph glyph-name="braceleft" unicode="{" horiz-adv-x="825" 
d="M741 -471h-22q-255 0 -353 96t-98 348v246q0 127 -35 171t-157 44v150q122 0 157 44t35 171v252q0 252 98 348t353 96h22v-145q-195 0 -255 -60t-60 -241v-252q0 -119 -32 -189t-105 -100q76 -30 106 -99q31 -71 31 -188v-246q0 -181 60 -241t255 -60v-145z" />
    <glyph glyph-name="bar" unicode="|" horiz-adv-x="411" 
d="M127 -471v1966h160v-1966h-160z" />
    <glyph glyph-name="braceright" unicode="}" horiz-adv-x="825" 
d="M86 -471v147q195 0 255 60t60 239v246q0 117 31 188q30 69 107 99q-77 30 -107 99q-31 71 -31 190v252q0 179 -60 239t-255 60v147h23q255 0 353 -96q97 -96 97 -348v-252q0 -127 35 -171t158 -44v-150q-123 0 -158 -44t-35 -171v-246q0 -252 -97 -348q-98 -96 -353 -96
h-23z" />
    <glyph glyph-name="asciitilde" unicode="~" horiz-adv-x="968" 
d="M139 1147q4 107 58 174q52 65 143 65q72 0 158 -53q89 -53 120 -53q70 0 76 96h125q-1 -110 -53 -175q-51 -64 -145 -64q-75 0 -181 65q-62 39 -100 39q-66 0 -72 -94h-129z" />
    <glyph glyph-name="exclamdown" unicode="&#xa1;" horiz-adv-x="491" 
d="M168 -471v240q0 479 35 849h90q35 -370 35 -849v-240h-160zM168 743v281h160v-281h-160z" />
    <glyph glyph-name="cent" unicode="&#xa2;" 
d="M559 -266v252q-203 28 -333 177q-130 148 -130 349q0 203 131 351q130 146 332 175v252h160v-252q140 -18 252 -98q111 -80 162 -201l-144 -61q-47 106 -138 165q-91 58 -210 58q-162 0 -273 -114q-112 -115 -112 -275q0 -161 114 -275t279 -114q124 0 213 65
q90 66 135 172l146 -61q-57 -131 -166 -214t-258 -101v-250h-160z" />
    <glyph glyph-name="sterling" unicode="&#xa3;" 
d="M123 700v129h194q-84 139 -84 291q0 170 119 283t287 113q262 0 412 -224l-138 -86q-56 85 -119 123q-64 39 -161 39q-93 0 -166 -70q-72 -69 -72 -178q0 -131 101 -291h460v-129h-381q107 -179 107 -342q0 -65 -23 -129q111 -104 179 -104q43 0 60 23t17 75v189h162
v-183q0 -139 -65 -194t-183 -55q-100 0 -233 126q-95 -126 -254 -126q-117 0 -187 61q-71 62 -71 158q0 94 63 154q64 61 164 61q121 0 236 -86v22q0 101 -35 180t-102 170h-287zM340 104q115 0 166 84q-108 97 -187 97q-42 0 -68 -26t-26 -66q0 -41 32 -65q31 -24 83 -24z
" />
    <glyph glyph-name="currency" unicode="&#xa4;" horiz-adv-x="1583" 
d="M801 209q-184 0 -324 106l-188 -196l-94 94l188 195q-113 142 -113 333q0 186 111 330l-191 201l95 94l190 -201q142 109 326 109q179 0 319 -107l180 189l95 -94l-178 -187q116 -143 116 -334q0 -197 -121 -340l179 -182l-95 -94l-180 184q-139 -100 -315 -100zM801 352
q156 0 264 114q109 115 109 275q0 161 -109 276q-107 113 -264 113q-156 0 -263 -113q-108 -114 -108 -276q0 -161 108 -275t263 -114z" />
    <glyph glyph-name="yen" unicode="&#xa5;" 
d="M182 635v131h342v22l-446 707h178l348 -555l346 555h178l-444 -704v-25h338v-131h-338v-225h338v-131h-338v-279h-160v279h-342v131h342v225h-342z" />
    <glyph glyph-name="brokenbar" unicode="&#xa6;" horiz-adv-x="495" 
d="M127 635v860h160v-860h-160zM127 -471v860h160v-860h-160z" />
    <glyph glyph-name="section" unicode="&#xa7;" horiz-adv-x="1236" 
d="M614 -20q-208 0 -335 94q-128 95 -146 225l160 39q10 -99 95 -164q84 -65 230 -65q111 0 190 43t79 129q0 77 -111 116q-34 14 -246 64q-225 55 -323 121q-98 65 -98 178q0 86 56 154q57 69 146 96q-118 73 -118 200q0 143 112 225q113 83 297 81q196 0 311 -89
q116 -90 134 -213l-152 -34q-30 211 -295 211q-110 0 -184 -44t-74 -130q0 -37 18 -64t71 -48q57 -23 90 -32q35 -10 134 -33q32 -7 43 -10q226 -56 324 -121t98 -178q0 -80 -56 -151q-58 -73 -144 -101q116 -67 116 -192q0 -140 -118 -225q-116 -84 -304 -82zM612 582
q101 -22 172 -43q93 23 139 70t46 110q0 64 -89 108q-85 42 -264 82q-84 16 -165 43q-87 -8 -139 -57t-52 -115q0 -76 85 -116q91 -43 267 -82z" />
    <glyph glyph-name="dieresis" unicode="&#xa8;" horiz-adv-x="1032" 
d="M565 1157v285h158v-285h-158zM291 1157v285h158v-285h-158z" />
    <glyph glyph-name="copyright" unicode="&#xa9;" horiz-adv-x="1734" 
d="M868 -20q-317 0 -542 225q-226 226 -226 543q0 316 226 542t542 226q317 0 543 -226q225 -225 225 -542q0 -318 -225 -543t-543 -225zM868 121q261 0 438 183t177 444q0 260 -177 443t-438 183q-260 0 -437 -183t-177 -443q0 -261 177 -444t437 -183zM877 340
q-173 0 -292 119q-118 118 -118 289q0 169 119 288t291 119q116 0 209 -56q96 -58 147 -149l-135 -82q-29 62 -89 101t-135 39q-105 0 -182 -77q-76 -76 -76 -183q0 -109 76 -185t182 -76q78 0 140 41q61 40 88 107l137 -76q-51 -99 -148 -159t-214 -60z" />
    <glyph glyph-name="ordfeminine" unicode="&#xaa;" horiz-adv-x="839" 
d="M401 891q-113 0 -202 85q-90 86 -90 222q0 141 90 225t204 84q127 0 207 -84v72h119v-592h-119v74q-80 -86 -209 -86zM424 1001q82 0 136 59q54 58 54 140t-54 139q-55 58 -136 58q-83 0 -140 -57t-57 -140t58 -141t139 -58z" />
    <glyph glyph-name="guillemotleft" unicode="&#xab;" horiz-adv-x="950" 
d="M465 227l-332 238v94l332 238v-117l-234 -170l234 -168v-115zM817 227l-332 238v94l332 238v-117l-233 -170l233 -168v-115z" />
    <glyph glyph-name="logicalnot" unicode="&#xac;" horiz-adv-x="1234" 
d="M1004 416v510h-947v153h1106v-663h-159z" />
    <glyph glyph-name="uni00AD" unicode="&#xad;" horiz-adv-x="968" 
d="M106 442v140h758v-140h-758z" />
    <glyph glyph-name="registered" unicode="&#xae;" horiz-adv-x="823" 
d="M412 881q-130 0 -221 91t-91 220q0 131 91 222t221 91q131 0 222 -91t91 -222q0 -129 -91 -220t-222 -91zM412 967q94 0 156 65q63 66 63 160q0 95 -63 161t-156 66t-156 -66t-63 -161q0 -94 63 -160q62 -65 156 -65zM293 1044v312h143q60 0 88 -30q29 -31 29 -79
q0 -67 -68 -94l66 -109h-96l-80 144v-144h-82zM420 1282h-45v-78h45q49 0 49 39t-49 39z" />
    <glyph glyph-name="macron" unicode="&#xaf;" horiz-adv-x="1019" 
d="M242 1143v137h540v-137h-540z" />
    <glyph glyph-name="degree" unicode="&#xb0;" horiz-adv-x="882" 
d="M442 989q-108 0 -186 78t-78 186q0 109 78 186q79 77 186 77q109 0 186 -77t77 -186q0 -107 -77 -186q-76 -78 -186 -78zM442 1122q54 0 92 39q37 38 37 90t-37 90q-37 39 -92 39q-54 0 -91 -39q-38 -40 -38 -90t38 -90q37 -39 91 -39z" />
    <glyph glyph-name="plusminus" unicode="&#xb1;" horiz-adv-x="968" 
d="M106 885v137h312v309h135v-309h311v-137h-311v-312h-135v312h-312zM106 260v137h758v-137h-758z" />
    <glyph glyph-name="twosuperior" unicode="&#xb2;" horiz-adv-x="692" 
d="M72 631v135q0 67 39 130t78 96q37 31 112 83q121 84 148 121q26 33 26 72q0 49 -36 82q-35 32 -97 32q-107 0 -162 -122l-123 61q84 186 285 186q126 0 202 -69q77 -69 77 -172q0 -64 -37 -122q-38 -59 -74 -88t-109 -79q-63 -43 -93 -66q-32 -24 -60 -62
q-31 -42 -31 -81h406v-137h-551z" />
    <glyph glyph-name="threesuperior" unicode="&#xb3;" horiz-adv-x="657" 
d="M313 618q-173 0 -278 123l123 93q60 -84 155 -84q65 0 104 35q40 36 40 94q0 59 -45 94q-46 35 -119 35h-88v135h88q70 0 111 35q40 34 40 88t-37 85t-102 31q-92 0 -143 -88l-121 68q38 68 107 106q71 39 157 39q128 0 202 -65q75 -66 75 -174q0 -123 -105 -189
q123 -66 123 -200q0 -116 -77 -188q-78 -73 -210 -73z" />
    <glyph glyph-name="acute" unicode="&#xb4;" horiz-adv-x="1019" 
d="M270 1143l240 332h205l-297 -332h-148z" />
    <glyph glyph-name="mu" unicode="&#xb5;" horiz-adv-x="1224" 
d="M588 -20q-175 0 -291 126v-577h-160v1495h162v-557q0 -159 85 -251q86 -93 222 -93q140 0 232 96q92 97 92 238v567h157v-1024h-155v152q-118 -172 -344 -172z" />
    <glyph glyph-name="mu" unicode="&#x3bc;" horiz-adv-x="1224" 
d="M588 -20q-175 0 -291 126v-577h-160v1495h162v-557q0 -159 85 -251q86 -93 222 -93q140 0 232 96q92 97 92 238v567h157v-1024h-155v152q-118 -172 -344 -172z" />
    <glyph glyph-name="paragraph" unicode="&#xb6;" horiz-adv-x="1234" 
d="M707 0v618h-187q-190 0 -317 127t-127 312q0 184 127 311t315 127h592v-1495h-141v1350h-123v-1350h-139z" />
    <glyph glyph-name="periodcentered" unicode="&#xb7;" horiz-adv-x="413" 
d="M127 371v280h160v-280h-160z" />
    <glyph glyph-name="cedilla" unicode="&#xb8;" horiz-adv-x="1019" 
d="M494 -479q-178 0 -299 114l124 76q91 -73 175 -73q58 0 99 24q40 24 40 59q0 74 -146 74h-84v205h134v-106q106 0 176 -48q67 -46 67 -118q0 -90 -84 -149q-83 -58 -202 -58z" />
    <glyph glyph-name="onesuperior" unicode="&#xb9;" horiz-adv-x="600" 
d="M66 631v137h172v502q-17 -27 -60 -48q-42 -20 -82 -20h-14v152h6q79 0 116 43q38 44 38 98h139v-727h164v-137h-479z" />
    <glyph glyph-name="ordmasculine" unicode="&#xba;" horiz-adv-x="831" 
d="M416 891q-127 0 -217 90t-90 217q0 129 90 219t217 90q130 0 218 -90q89 -91 89 -219q0 -126 -89 -217q-88 -90 -218 -90zM416 1008q80 0 134 55t54 135t-54 137q-55 58 -134 58q-77 0 -133 -58t-56 -137q0 -76 56 -134q55 -56 133 -56z" />
    <glyph glyph-name="guillemotright" unicode="&#xbb;" horiz-adv-x="950" 
d="M485 229v115l236 168l-236 170v117l332 -238v-94zM133 229v115l236 168l-236 170v117l332 -238v-94z" />
    <glyph glyph-name="onequarter" unicode="&#xbc;" horiz-adv-x="1652" 
d="M1321 0v199h-379v131l373 534h147v-534h125v-131h-125v-199h-141zM223 0l1080 1495h186l-1079 -1495h-187zM66 631v137h172v502q-17 -27 -60 -48q-42 -20 -82 -20h-14v152h6q79 0 116 43q38 44 38 98h139v-727h164v-137h-479zM1098 330h223v317z" />
    <glyph glyph-name="onehalf" unicode="&#xbd;" horiz-adv-x="1732" 
d="M223 0l1080 1495h186l-1079 -1495h-187zM1104 0v135q0 67 39 130q38 61 79 96t111 83q121 84 148 121q26 33 26 72q0 49 -36 82t-97 33q-106 0 -162 -123l-122 61q84 187 284 187q124 0 202 -70q77 -69 77 -172q0 -64 -37 -122q-38 -59 -74 -88q-42 -34 -108 -79
q-92 -64 -94 -65q-30 -23 -60 -63q-31 -42 -31 -81h406v-137h-551zM66 631v137h172v502q-17 -27 -60 -48q-42 -20 -82 -20h-14v152h6q79 0 116 43q38 44 38 98h139v-727h164v-137h-479z" />
    <glyph glyph-name="threequarters" unicode="&#xbe;" horiz-adv-x="1652" 
d="M1321 0v199h-379v131l373 534h147v-534h125v-131h-125v-199h-141zM223 0l1080 1495h186l-1079 -1495h-187zM313 618q-173 0 -278 123l123 93q60 -84 155 -84q65 0 104 35q40 36 40 94q0 59 -45 94q-46 35 -119 35h-88v135h88q70 0 111 35q40 34 40 88t-37 85t-102 31
q-92 0 -143 -88l-121 68q38 68 107 106q71 39 157 39q128 0 202 -65q75 -66 75 -174q0 -123 -105 -189q123 -66 123 -200q0 -116 -77 -188q-78 -73 -210 -73zM1098 330h223v317z" />
    <glyph glyph-name="questiondown" unicode="&#xbf;" horiz-adv-x="1120" 
d="M555 -492q-191 0 -318 106q-126 105 -126 273q0 80 22 139q23 62 58 98q38 39 79 72q10 8 27.5 21.5t32 25t27.5 22.5q46 38 80 79q37 44 59 113q22 67 22 159v19h146v-19q0 -119 -29 -212q-27 -88 -73 -140q-37 -42 -94 -94q-48 -44 -94 -77q-44 -32 -73 -85t-29 -123
q0 -105 81 -171t204 -66q201 0 309 190l142 -65q-61 -115 -179 -190q-119 -75 -274 -75zM510 743v281h160v-281h-160z" />
    <glyph glyph-name="Agrave" unicode="&#xc0;" horiz-adv-x="1443" 
d="M70 0l565 1495h172l567 -1495h-166l-145 379h-682l-143 -379h-168zM721 1280l-283 -750h568zM639 1614l-297 332h203l241 -332h-147z" />
    <glyph glyph-name="Aacute" unicode="&#xc1;" horiz-adv-x="1443" 
d="M70 0l565 1495h172l567 -1495h-166l-145 379h-682l-143 -379h-168zM721 1280l-283 -750h568zM629 1614l239 332h205l-297 -332h-147z" />
    <glyph glyph-name="Acircumflex" unicode="&#xc2;" horiz-adv-x="1443" 
d="M70 0l565 1495h172l567 -1495h-166l-145 379h-682l-143 -379h-168zM721 1280l-283 -750h568zM395 1614l244 332h135l244 -332h-164l-147 205l-146 -205h-166z" />
    <glyph glyph-name="Atilde" unicode="&#xc3;" horiz-adv-x="1443" 
d="M70 0l565 1495h172l567 -1495h-166l-145 379h-682l-143 -379h-168zM721 1280l-283 -750h568zM354 1614q0 110 57 178t146 68q71 0 166 -56q90 -57 129 -57q80 0 80 106h127q0 -114 -53 -181q-52 -66 -152 -66q-74 0 -186 67q-78 45 -111 45q-76 0 -76 -104h-127z" />
    <glyph glyph-name="Adieresis" unicode="&#xc4;" horiz-adv-x="1443" 
d="M70 0l565 1495h172l567 -1495h-166l-145 379h-682l-143 -379h-168zM721 1280l-283 -750h568zM774 1628v285h158v-285h-158zM500 1628v285h157v-285h-157z" />
    <glyph glyph-name="Aring" unicode="&#xc5;" horiz-adv-x="1443" 
d="M70 0l534 1413q-112 66 -112 193q0 92 63 156q63 65 154 65q92 0 158 -64q65 -63 65 -157q0 -121 -98 -183l540 -1423h-166l-145 379h-682l-143 -379h-168zM721 1280l-283 -750h568zM709 1509q39 0 70 29q30 28 30 68t-30 70t-70 30q-39 0 -68 -30q-29 -31 -29 -70
t29 -68t68 -29z" />
    <glyph glyph-name="AE" unicode="&#xc6;" horiz-adv-x="2101" 
d="M57 0l709 1495h1180v-152h-971l121 -518h850v-151h-816l121 -520h695v-154h-822l-86 371h-624l-176 -371h-181zM834 1255l-351 -737h521z" />
    <glyph glyph-name="Ccedilla" unicode="&#xc7;" horiz-adv-x="1611" 
d="M868 -479q-178 0 -299 114l125 76q91 -73 174 -73q59 0 100 24q40 24 40 59q0 74 -146 74h-84v191q-286 34 -481 252t-195 510q0 316 226 542t542 226q209 0 386 -105q178 -106 280 -281l-137 -79q-77 143 -218 228q-140 85 -311 85q-256 0 -430 -180t-174 -436
q0 -257 174 -437t430 -180q188 0 329 90q139 89 216 246l141 -74q-95 -181 -263 -291q-167 -109 -382 -120v-88q106 0 176 -48q68 -47 68 -118q0 -90 -84 -149q-83 -58 -203 -58z" />
    <glyph glyph-name="Egrave" unicode="&#xc8;" horiz-adv-x="1177" 
d="M147 0v1495h908v-152h-748v-518h748v-151h-748v-520h748v-154h-908zM539 1614l-297 332h202l242 -332h-147z" />
    <glyph glyph-name="Eacute" unicode="&#xc9;" horiz-adv-x="1177" 
d="M147 0v1495h908v-152h-748v-518h748v-151h-748v-520h748v-154h-908zM483 1614l240 332h205l-297 -332h-148z" />
    <glyph glyph-name="Ecircumflex" unicode="&#xca;" horiz-adv-x="1177" 
d="M147 0v1495h908v-152h-748v-518h748v-151h-748v-520h748v-154h-908zM276 1614l244 332h135l244 -332h-164l-147 205l-146 -205h-166z" />
    <glyph glyph-name="Edieresis" unicode="&#xcb;" horiz-adv-x="1177" 
d="M147 0v1495h908v-152h-748v-518h748v-151h-748v-520h748v-154h-908zM383 1628v285h158v-285h-158zM657 1628v285h158v-285h-158z" />
    <glyph glyph-name="Igrave" unicode="&#xcc;" horiz-adv-x="491" 
d="M166 0v1495h160v-1495h-160zM170 1614l-297 332h203l241 -332h-147z" />
    <glyph glyph-name="Iacute" unicode="&#xcd;" horiz-adv-x="491" 
d="M166 0v1495h160v-1495h-160zM160 1614l239 332h205l-297 -332h-147z" />
    <glyph glyph-name="Icircumflex" unicode="&#xce;" horiz-adv-x="491" 
d="M166 0v1495h160v-1495h-160zM-72 1614l244 332h135l244 -332h-164l-147 205l-146 -205h-166z" />
    <glyph glyph-name="Idieresis" unicode="&#xcf;" horiz-adv-x="491" 
d="M371 1628v285h157v-285h-157zM-39 1628v285h158v-285h-158zM166 0v1495h160v-1495h-160z" />
    <glyph glyph-name="Eth" unicode="&#xd0;" horiz-adv-x="1499" 
d="M47 672v155h158v668h413q344 0 562 -213q217 -213 217 -534q0 -319 -221 -534q-220 -214 -551 -214h-420v672h-158zM602 1348h-237v-521h438v-155h-438v-522h243q272 0 450 171q179 171 179 427q0 261 -175 430q-176 170 -460 170z" />
    <glyph glyph-name="Ntilde" unicode="&#xd1;" horiz-adv-x="1513" 
d="M147 0v1495h179l880 -1241v1241h160v-1495h-170l-889 1251v-1251h-160zM399 1614q0 110 57 178t146 68q71 0 166 -56q90 -57 129 -57q80 0 80 106h127q0 -114 -53 -181q-53 -66 -152 -66q-74 0 -186 67q-78 45 -111 45q-76 0 -76 -104h-127z" />
    <glyph glyph-name="Ograve" unicode="&#xd2;" horiz-adv-x="1740" 
d="M870 -20q-317 0 -542 225q-226 226 -226 543q0 316 226 542t542 226q317 0 543 -226q225 -225 225 -542q0 -318 -225 -543t-543 -225zM870 131q256 0 430 180q175 181 175 437q0 255 -175 436q-174 180 -430 180t-430 -180t-174 -436q0 -257 174 -437t430 -180zM791 1614
l-297 332h202l242 -332h-147z" />
    <glyph glyph-name="Oacute" unicode="&#xd3;" horiz-adv-x="1740" 
d="M870 -20q-317 0 -542 225q-226 226 -226 543q0 316 226 542t542 226q317 0 543 -226q225 -225 225 -542q0 -318 -225 -543t-543 -225zM870 131q256 0 430 180q175 181 175 437q0 255 -175 436q-174 180 -430 180t-430 -180t-174 -436q0 -257 174 -437t430 -180zM782 1614
l240 332h205l-297 -332h-148z" />
    <glyph glyph-name="Ocircumflex" unicode="&#xd4;" horiz-adv-x="1740" 
d="M870 -20q-317 0 -542 225q-226 226 -226 543q0 316 226 542t542 226q317 0 543 -226q225 -225 225 -542q0 -318 -225 -543t-543 -225zM870 131q256 0 430 180q175 181 175 437q0 255 -175 436q-174 180 -430 180t-430 -180t-174 -436q0 -257 174 -437t430 -180zM551 1614
l244 332h135l244 -332h-164l-148 205l-145 -205h-166z" />
    <glyph glyph-name="Otilde" unicode="&#xd5;" horiz-adv-x="1740" 
d="M870 -20q-317 0 -542 225q-226 226 -226 543q0 316 226 542t542 226q317 0 543 -226q225 -225 225 -542q0 -318 -225 -543t-543 -225zM870 131q256 0 430 180q175 181 175 437q0 255 -175 436q-174 180 -430 180t-430 -180t-174 -436q0 -257 174 -437t430 -180zM504 1614
q0 112 56 178q57 68 147 68q70 0 165 -56q90 -57 129 -57q80 0 80 106h127q0 -114 -53 -181q-53 -66 -151 -66q-75 0 -187 67q-78 45 -110 45q-76 0 -76 -104h-127z" />
    <glyph glyph-name="Odieresis" unicode="&#xd6;" horiz-adv-x="1740" 
d="M926 1628v285h157v-285h-157zM651 1628v285h158v-285h-158zM870 -20q-317 0 -542 225q-226 226 -226 543q0 316 226 542t542 226q317 0 543 -226q225 -225 225 -542q0 -318 -225 -543t-543 -225zM870 131q256 0 430 180q175 181 175 437q0 255 -175 436
q-174 180 -430 180t-430 -180t-174 -436q0 -257 174 -437t430 -180z" />
    <glyph glyph-name="multiply" unicode="&#xd7;" horiz-adv-x="968" 
d="M236 401l-95 95l250 249l-250 252l95 95l249 -252l250 250l94 -95l-249 -250l249 -247l-94 -95l-250 248z" />
    <glyph glyph-name="Oslash" unicode="&#xd8;" horiz-adv-x="1740" 
d="M207 0l141 184q-117 106 -181 253q-65 148 -65 311q0 316 226 542t542 226q219 0 408 -117l74 96h186l-143 -188q243 -228 243 -559q0 -318 -225 -543t-543 -225q-220 0 -405 114l-72 -94h-186zM266 748q0 -260 176 -441l742 969q-143 88 -314 88q-256 0 -430 -180
t-174 -436zM870 131q256 0 430 180q175 181 175 437q0 255 -175 436l-741 -967q140 -86 311 -86z" />
    <glyph glyph-name="Ugrave" unicode="&#xd9;" horiz-adv-x="1296" 
d="M647 -20q-219 0 -363 145q-145 147 -145 362v1008h160v-1016q0 -145 100 -246q101 -102 248 -102t249 102q101 101 101 246v1016h160v-1008q0 -215 -145 -361t-365 -146zM580 1614l-297 332h202l242 -332h-147z" />
    <glyph glyph-name="Uacute" unicode="&#xda;" horiz-adv-x="1296" 
d="M547 1614l239 332h205l-297 -332h-147zM647 -20q-219 0 -363 145q-145 147 -145 362v1008h160v-1016q0 -145 100 -246q101 -102 248 -102t249 102q101 101 101 246v1016h160v-1008q0 -215 -145 -361t-365 -146z" />
    <glyph glyph-name="Ucircumflex" unicode="&#xdb;" horiz-adv-x="1296" 
d="M647 -20q-219 0 -363 145q-145 147 -145 362v1008h160v-1016q0 -145 100 -246q101 -102 248 -102t249 102q101 101 101 246v1016h160v-1008q0 -215 -145 -361t-365 -146zM328 1614l243 332h136l243 -332h-164l-147 205l-145 -205h-166z" />
    <glyph glyph-name="Udieresis" unicode="&#xdc;" horiz-adv-x="1296" 
d="M707 1628v285h157v-285h-157zM432 1628v285h158v-285h-158zM647 -20q-219 0 -363 145q-145 147 -145 362v1008h160v-1016q0 -145 100 -246q101 -102 248 -102t249 102q101 101 101 246v1016h160v-1008q0 -215 -145 -361t-365 -146z" />
    <glyph glyph-name="Yacute" unicode="&#xdd;" horiz-adv-x="1267" 
d="M555 0v711l-496 784h179l397 -633l395 633h178l-493 -782v-713h-160zM541 1614l239 332h205l-297 -332h-147z" />
    <glyph glyph-name="Thorn" unicode="&#xde;" horiz-adv-x="1165" 
d="M147 0v1495h160v-313h301q201 0 330 -115q127 -114 127 -299t-127 -300q-128 -116 -330 -116h-301v-352h-160zM596 1032h-289v-532h289q139 0 221 73t82 195q0 119 -82 191q-84 73 -221 73z" />
    <glyph glyph-name="germandbls" unicode="&#xdf;" horiz-adv-x="1130" 
d="M-96 -469v150q135 0 184 55t49 192v1159q-5 185 110 301q114 115 306 115q181 0 296 -112q116 -113 116 -283q0 -216 -187 -317q118 -50 187 -147q69 -98 69 -226q0 -192 -118 -313t-316 -121q-124 0 -201 41v151q83 -47 201 -47q114 0 193 84q79 83 79 203
q0 122 -90 204q-89 82 -233 82h-39v148h39q107 0 183 74q75 74 75 186q0 104 -73 182q-72 76 -183 76q-115 0 -189 -72q-73 -72 -73 -192v-1174q0 -216 -81 -307q-81 -92 -278 -92h-26z" />
    <glyph glyph-name="agrave" unicode="&#xe0;" horiz-adv-x="1294" 
d="M623 -20q-225 0 -374 155q-151 157 -151 377q0 224 150 378t375 154q101 0 207 -50q107 -50 169 -138v168h158v-1024h-158v168q-62 -88 -169 -138q-106 -50 -207 -50zM631 123q163 0 273 114q110 115 110 275q0 161 -111 275t-272 114q-156 0 -264 -114
q-109 -115 -109 -275t109 -275q108 -114 264 -114zM569 1143l-297 332h203l242 -332h-148z" />
    <glyph glyph-name="aacute" unicode="&#xe1;" horiz-adv-x="1294" 
d="M623 -20q-225 0 -374 155q-151 157 -151 377q0 224 150 378t375 154q101 0 207 -50q107 -50 169 -138v168h158v-1024h-158v168q-62 -88 -169 -138q-106 -50 -207 -50zM631 123q163 0 273 114q110 115 110 275q0 161 -111 275t-272 114q-156 0 -264 -114
q-109 -115 -109 -275t109 -275q108 -114 264 -114zM530 1143l240 332h205l-297 -332h-148z" />
    <glyph glyph-name="acircumflex" unicode="&#xe2;" horiz-adv-x="1294" 
d="M623 -20q-225 0 -374 155q-151 157 -151 377q0 224 150 378t375 154q101 0 207 -50q107 -50 169 -138v168h158v-1024h-158v168q-62 -88 -169 -138q-106 -50 -207 -50zM631 123q163 0 273 114q110 115 110 275q0 161 -111 275t-272 114q-156 0 -264 -114
q-109 -115 -109 -275t109 -275q108 -114 264 -114zM356 1143l244 332h135l244 -332h-164l-147 205l-146 -205h-166z" />
    <glyph glyph-name="atilde" unicode="&#xe3;" horiz-adv-x="1294" 
d="M623 -20q-225 0 -374 155q-151 157 -151 377q0 224 150 378t375 154q101 0 207 -50q107 -50 169 -138v168h158v-1024h-158v168q-62 -88 -169 -138q-106 -50 -207 -50zM631 123q163 0 273 114q110 115 110 275q0 161 -111 275t-272 114q-156 0 -264 -114
q-109 -115 -109 -275t109 -275q108 -114 264 -114zM315 1143q0 111 57 178q57 68 146 68q71 0 166 -56q90 -57 129 -57q80 0 80 106h127q0 -114 -53 -181q-53 -66 -152 -66q-74 0 -186 67q-78 45 -111 45q-76 0 -76 -104h-127z" />
    <glyph glyph-name="adieresis" unicode="&#xe4;" horiz-adv-x="1294" 
d="M623 -20q-225 0 -374 155q-151 157 -151 377q0 224 150 378t375 154q101 0 207 -50q107 -50 169 -138v168h158v-1024h-158v168q-62 -88 -169 -138q-106 -50 -207 -50zM631 123q163 0 273 114q110 115 110 275q0 161 -111 275t-272 114q-156 0 -264 -114
q-109 -115 -109 -275t109 -275q108 -114 264 -114zM723 1157v285h158v-285h-158zM449 1157v285h157v-285h-157z" />
    <glyph glyph-name="aring" unicode="&#xe5;" horiz-adv-x="1294" 
d="M623 -20q-225 0 -374 155q-151 157 -151 377q0 224 150 378t375 154q101 0 207 -50q107 -50 169 -138v168h158v-1024h-158v168q-62 -88 -169 -138q-106 -50 -207 -50zM631 123q163 0 273 114q110 115 110 275q0 161 -111 275t-272 114q-156 0 -264 -114
q-109 -115 -109 -275t109 -275q108 -114 264 -114zM639 1128q-91 0 -154 65t-63 155q0 92 63 156q63 65 154 65q93 0 159 -64q64 -63 64 -157q0 -91 -64 -155q-65 -65 -159 -65zM639 1251q40 0 71 29q29 28 29 68q0 41 -29 70q-30 30 -71 30q-39 0 -68 -30q-28 -29 -28 -70
q0 -40 28 -68q29 -29 68 -29z" />
    <glyph glyph-name="ae" unicode="&#xe6;" horiz-adv-x="1966" 
d="M1350 -20q-156 0 -274 62q-121 63 -189 173q-55 -98 -169 -167q-112 -68 -261 -68q-186 0 -275 76q-91 77 -92 204q-2 135 94 207t271 111q40 8 75 16q63 14 76 17q18 4 65 17q47 14 60 22q18 12 42 27t33 35t9 42q0 73 -67 118q-69 46 -193 46q-140 0 -220 -68
q-79 -67 -79 -174v-6h-147v4q0 170 118 270t322 100q140 0 243 -47q99 -45 144 -133q153 180 403 180q226 0 375 -142q150 -142 150 -374v-65h-901q15 -154 122 -247q109 -95 265 -95q240 0 346 211l137 -68q-149 -284 -483 -284zM463 111q135 0 233 82q99 82 127 176
q-14 56 -14 135q0 25 4 61q-17 -23 -60 -42q-33 -15 -88 -30q-21 -6 -139 -32q-142 -27 -209 -69t-67 -128q0 -69 52 -111t161 -42zM1339 903q-133 0 -236 -83q-102 -82 -132 -214h731q-22 137 -118 218q-94 79 -245 79z" />
    <glyph glyph-name="ccedilla" unicode="&#xe7;" horiz-adv-x="1202" 
d="M651 -479q-177 0 -299 114l125 76q91 -73 174 -73q59 0 100 24q40 24 40 59q0 74 -146 74h-84v191q-204 24 -334 173q-129 149 -129 353q0 229 155 381q154 151 382 151q166 0 293 -83q128 -83 186 -222l-143 -61q-100 223 -338 223q-159 0 -267 -114t-108 -275
q0 -163 110 -276t273 -113q238 0 338 237l145 -61q-129 -290 -430 -317v-88q106 0 176 -48q68 -47 68 -118q0 -90 -84 -149q-83 -58 -203 -58z" />
    <glyph glyph-name="egrave" unicode="&#xe8;" horiz-adv-x="1253" 
d="M637 -20q-241 0 -390 147t-149 377t151 386q150 154 380 154q226 0 375 -142t149 -374v-67h-901q15 -151 123 -246q107 -94 262 -94q240 0 346 211l137 -68q-149 -284 -483 -284zM629 903q-134 0 -237 -83q-102 -82 -132 -214h731q-22 137 -118 218q-94 79 -244 79z
M571 1143l-297 332h203l242 -332h-148z" />
    <glyph glyph-name="eacute" unicode="&#xe9;" horiz-adv-x="1253" 
d="M637 -20q-241 0 -390 147t-149 377t151 386q150 154 380 154q226 0 375 -142t149 -374v-67h-901q15 -151 123 -246q107 -94 262 -94q240 0 346 211l137 -68q-149 -284 -483 -284zM629 903q-134 0 -237 -83q-102 -82 -132 -214h731q-22 137 -118 218q-94 79 -244 79z
M532 1143l240 332h205l-297 -332h-148z" />
    <glyph glyph-name="ecircumflex" unicode="&#xea;" horiz-adv-x="1253" 
d="M637 -20q-241 0 -390 147t-149 377t151 386q150 154 380 154q226 0 375 -142t149 -374v-67h-901q15 -151 123 -246q107 -94 262 -94q240 0 346 211l137 -68q-149 -284 -483 -284zM629 903q-134 0 -237 -83q-102 -82 -132 -214h731q-22 137 -118 218q-94 79 -244 79z
M317 1143l244 332h135l244 -332h-164l-147 205l-146 -205h-166z" />
    <glyph glyph-name="edieresis" unicode="&#xeb;" horiz-adv-x="1253" 
d="M637 -20q-241 0 -390 147t-149 377t151 386q150 154 380 154q226 0 375 -142t149 -374v-67h-901q15 -151 123 -246q107 -94 262 -94q240 0 346 211l137 -68q-149 -284 -483 -284zM629 903q-134 0 -237 -83q-102 -82 -132 -214h731q-22 137 -118 218q-94 79 -244 79z
M422 1157v285h158v-285h-158zM696 1157v285h158v-285h-158z" />
    <glyph glyph-name="igrave" unicode="&#xec;" horiz-adv-x="434" 
d="M137 0v1024h160v-1024h-160zM154 1143l-297 332h202l242 -332h-147z" />
    <glyph glyph-name="iacute" unicode="&#xed;" horiz-adv-x="434" 
d="M141 1143l240 332h205l-297 -332h-148zM137 0v1024h160v-1024h-160z" />
    <glyph glyph-name="icircumflex" unicode="&#xee;" horiz-adv-x="434" 
d="M137 0v1024h160v-1024h-160zM-98 1143l243 332h136l243 -332h-164l-147 205l-145 -205h-166z" />
    <glyph glyph-name="idieresis" unicode="&#xef;" horiz-adv-x="434" 
d="M354 1157v285h160v-285h-160zM-80 1157v285h160v-285h-160zM137 0v1024h160v-1024h-160z" />
    <glyph glyph-name="eth" unicode="&#xf0;" horiz-adv-x="1236" 
d="M315 1075l236 197q-99 86 -291 223h244q106 -86 158 -133l157 133h174l-250 -209q387 -386 387 -797q0 -211 -147 -355t-367 -144q-214 0 -361 143q-149 144 -149 356q0 213 145 358q144 144 347 144q182 0 289 -98q-78 142 -250 303l-145 -121h-177zM621 135
q143 0 246 105q104 106 104 249t-103 249t-247 106q-145 0 -250 -105t-105 -250q0 -144 105 -249t250 -105z" />
    <glyph glyph-name="ntilde" unicode="&#xf1;" horiz-adv-x="1218" 
d="M137 0v1024h156v-152q118 172 348 172q209 0 326 -126q118 -127 118 -349v-569h-159v569q0 155 -79 243q-80 89 -229 89q-140 0 -231 -96q-92 -97 -92 -238v-567h-158zM238 1143q0 112 56 178q57 68 146 68q71 0 166 -56q90 -57 129 -57q80 0 80 106h127q0 -114 -53 -181
q-53 -66 -152 -66q-74 0 -186 67q-78 45 -111 45q-75 0 -75 -104h-127z" />
    <glyph glyph-name="ograve" unicode="&#xf2;" horiz-adv-x="1259" 
d="M629 -20q-221 0 -376 153t-155 379t155 379t376 153q223 0 378 -153q154 -153 154 -379t-154 -379q-155 -153 -378 -153zM629 123q156 0 264 114t108 275t-108 275t-264 114q-155 0 -263 -114t-108 -275t108 -275t263 -114zM565 1143l-297 332h203l242 -332h-148z" />
    <glyph glyph-name="oacute" unicode="&#xf3;" horiz-adv-x="1259" 
d="M532 1143l240 332h205l-297 -332h-148zM629 -20q-221 0 -376 153t-155 379t155 379t376 153q223 0 378 -153q154 -153 154 -379t-154 -379q-155 -153 -378 -153zM629 123q156 0 264 114t108 275t-108 275t-264 114q-155 0 -263 -114t-108 -275t108 -275t263 -114z" />
    <glyph glyph-name="ocircumflex" unicode="&#xf4;" horiz-adv-x="1259" 
d="M629 -20q-221 0 -376 153t-155 379t155 379t376 153q223 0 378 -153q154 -153 154 -379t-154 -379q-155 -153 -378 -153zM629 123q156 0 264 114t108 275t-108 275t-264 114q-155 0 -263 -114t-108 -275t108 -275t263 -114zM317 1143l244 332h135l244 -332h-164l-147 205
l-146 -205h-166z" />
    <glyph glyph-name="otilde" unicode="&#xf5;" horiz-adv-x="1259" 
d="M629 -20q-221 0 -376 153t-155 379t155 379t376 153q223 0 378 -153q154 -153 154 -379t-154 -379q-155 -153 -378 -153zM629 123q156 0 264 114t108 275t-108 275t-264 114q-155 0 -263 -114t-108 -275t108 -275t263 -114zM283 1143q0 112 56 178q57 68 146 68
q71 0 166 -56q90 -57 129 -57q80 0 80 106h127q0 -114 -53 -181q-52 -66 -152 -66q-74 0 -186 67q-78 45 -111 45q-75 0 -75 -104h-127z" />
    <glyph glyph-name="odieresis" unicode="&#xf6;" horiz-adv-x="1259" 
d="M696 1157v285h158v-285h-158zM422 1157v285h158v-285h-158zM629 -20q-221 0 -376 153t-155 379t155 379t376 153q223 0 378 -153q154 -153 154 -379t-154 -379q-155 -153 -378 -153zM629 123q156 0 264 114t108 275t-108 275t-264 114q-155 0 -263 -114t-108 -275
t108 -275t263 -114z" />
    <glyph glyph-name="divide" unicode="&#xf7;" horiz-adv-x="968" 
d="M106 680v135h758v-135h-758zM418 920v245h135v-245h-135zM418 328v245h135v-245h-135z" />
    <glyph glyph-name="oslash" unicode="&#xf8;" horiz-adv-x="1259" 
d="M629 -20q-154 0 -271 71l-39 -51h-167l100 133q-154 151 -154 379q0 226 155 379t376 153q142 0 268 -71l39 51h170l-102 -133q157 -151 157 -379q0 -226 -154 -379q-155 -153 -378 -153zM629 123q156 0 264 114t108 275q0 143 -92 256l-460 -598q83 -47 180 -47z
M258 512q0 -148 90 -256l459 598q-83 47 -178 47q-155 0 -263 -114t-108 -275z" />
    <glyph glyph-name="ugrave" unicode="&#xf9;" horiz-adv-x="1218" 
d="M586 -20q-222 0 -337 124q-116 125 -116 351v569h160v-569q0 -155 79 -243q80 -89 228 -89q140 0 231 96q93 98 93 238v567h157v-1024h-155v152q-118 -172 -340 -172zM545 1143l-297 332h203l241 -332h-147z" />
    <glyph glyph-name="uacute" unicode="&#xfa;" horiz-adv-x="1218" 
d="M586 -20q-222 0 -337 124q-116 125 -116 351v569h160v-569q0 -155 79 -243q80 -89 228 -89q140 0 231 96q93 98 93 238v567h157v-1024h-155v152q-118 -172 -340 -172zM506 1143l239 332h205l-297 -332h-147z" />
    <glyph glyph-name="ucircumflex" unicode="&#xfb;" horiz-adv-x="1218" 
d="M586 -20q-222 0 -337 124q-116 125 -116 351v569h160v-569q0 -155 79 -243q80 -89 228 -89q140 0 231 96q93 98 93 238v567h157v-1024h-155v152q-118 -172 -340 -172zM287 1143l243 332h136l243 -332h-164l-147 205l-145 -205h-166z" />
    <glyph glyph-name="udieresis" unicode="&#xfc;" horiz-adv-x="1218" 
d="M586 -20q-222 0 -337 124q-116 125 -116 351v569h160v-569q0 -155 79 -243q80 -89 228 -89q140 0 231 96q93 98 93 238v567h157v-1024h-155v152q-118 -172 -340 -172zM391 1157v285h158v-285h-158zM666 1157v285h157v-285h-157z" />
    <glyph glyph-name="yacute" unicode="&#xfd;" horiz-adv-x="1146" 
d="M272 -473l232 532l-443 965h175l352 -782l325 782h172l-645 -1497h-168zM479 1143l240 332h205l-297 -332h-148z" />
    <glyph glyph-name="thorn" unicode="&#xfe;" horiz-adv-x="1292" 
d="M668 -20q-232 0 -377 174v-625h-152v1966h152v-633q69 82 170 132q102 50 211 50q229 0 375 -152q147 -153 147 -376t-151 -380q-150 -156 -375 -156zM662 123q161 0 268 116q106 115 106 277q0 161 -104 272q-105 113 -266 113t-272 -114t-111 -275q0 -158 111 -273
q111 -116 268 -116z" />
    <glyph glyph-name="ydieresis" unicode="&#xff;" horiz-adv-x="1146" 
d="M272 -473l232 532l-443 965h175l352 -782l325 782h172l-645 -1497h-168zM362 1157v285h158v-285h-158zM637 1157v285h158v-285h-158z" />
    <glyph glyph-name="Amacron" unicode="&#x100;" horiz-adv-x="1443" 
d="M70 0l565 1495h172l567 -1495h-166l-145 379h-682l-143 -379h-168zM721 1280l-283 -750h568zM442 1614v137h541v-137h-541z" />
    <glyph glyph-name="amacron" unicode="&#x101;" horiz-adv-x="1294" 
d="M623 -20q-225 0 -374 155q-151 157 -151 377q0 224 150 378t375 154q101 0 207 -50q107 -50 169 -138v168h158v-1024h-158v168q-62 -88 -169 -138q-106 -50 -207 -50zM631 123q163 0 273 114q110 115 110 275q0 161 -111 275t-272 114q-156 0 -264 -114
q-109 -115 -109 -275t109 -275q108 -114 264 -114zM410 1143v137h540v-137h-540z" />
    <glyph glyph-name="Abreve" unicode="&#x102;" horiz-adv-x="1443" 
d="M70 0l565 1495h172l567 -1495h-166l-145 379h-682l-143 -379h-168zM721 1280l-283 -750h568zM709 1606q-162 0 -246 94t-84 239h135q0 -97 50 -155q51 -59 145 -60q91 1 142 60q50 58 50 155h139q0 -142 -91 -237q-91 -96 -240 -96z" />
    <glyph glyph-name="abreve" unicode="&#x103;" horiz-adv-x="1294" 
d="M623 -20q-225 0 -374 155q-151 157 -151 377q0 224 150 378t375 154q101 0 207 -50q107 -50 169 -138v168h158v-1024h-158v168q-62 -88 -169 -138q-106 -50 -207 -50zM631 123q163 0 273 114q110 115 110 275q0 161 -111 275t-272 114q-156 0 -264 -114
q-109 -115 -109 -275t109 -275q108 -114 264 -114zM653 1130q-161 0 -245 95t-84 239h135q0 -97 50 -155q51 -59 144 -60q92 2 143 60q50 58 50 155h139q0 -142 -91 -237q-92 -97 -241 -97z" />
    <glyph glyph-name="Aogonek" unicode="&#x104;" horiz-adv-x="1443" 
d="M1235 -442q-122 0 -199 59q-78 60 -78 147q0 152 234 275l-129 340h-682l-143 -379h-168l565 1495h172l567 -1495q-158 -95 -206 -138q-50 -44 -50 -89q0 -42 33 -63t84 -21q68 0 151 69l125 -86q-129 -114 -276 -114zM721 1280l-283 -750h568z" />
    <glyph glyph-name="aogonek" unicode="&#x105;" horiz-adv-x="1294" 
d="M623 -20q-225 0 -374 155q-151 157 -151 377q0 224 150 378t375 154q101 0 207 -50q107 -50 169 -138v168h158v-1024q-162 -129 -162 -215q0 -40 28 -68q26 -26 73 -26q67 0 131 53l90 -111q-105 -77 -221 -77q-125 0 -188 64q-62 63 -62 159q0 131 153 256v133
q-62 -88 -169 -138q-106 -50 -207 -50zM631 123q163 0 273 114q110 115 110 275q0 161 -111 275t-272 114q-156 0 -264 -114q-109 -115 -109 -275t109 -275q108 -114 264 -114z" />
    <glyph glyph-name="Cacute" unicode="&#x106;" horiz-adv-x="1611" 
d="M780 1614l240 332h205l-297 -332h-148zM870 -20q-317 0 -542 225q-226 226 -226 543q0 316 226 542t542 226q209 0 386 -105q178 -106 280 -281l-137 -79q-77 143 -218 228q-140 85 -311 85q-256 0 -430 -180t-174 -436q0 -257 174 -437t430 -180q188 0 329 90
q139 89 216 246l141 -74q-101 -191 -279 -302q-179 -111 -407 -111z" />
    <glyph glyph-name="cacute" unicode="&#x107;" horiz-adv-x="1202" 
d="M532 1143l240 332h205l-297 -332h-148zM637 -20q-232 0 -385 154q-154 156 -154 378q0 229 155 381q154 151 382 151q166 0 293 -83q128 -83 186 -222l-143 -61q-100 223 -338 223q-159 0 -267 -114t-108 -275q0 -163 110 -276t273 -113q238 0 338 237l145 -61
q-67 -149 -188 -233q-124 -86 -299 -86z" />
    <glyph glyph-name="Ccircumflex" unicode="&#x108;" horiz-adv-x="1611" 
d="M870 -20q-317 0 -542 225q-226 226 -226 543q0 316 226 542t542 226q209 0 386 -105q178 -106 280 -281l-137 -79q-77 143 -218 228q-140 85 -311 85q-256 0 -430 -180t-174 -436q0 -257 174 -437t430 -180q188 0 329 90q139 89 216 246l141 -74q-101 -191 -279 -302
q-179 -111 -407 -111zM557 1614l244 332h135l244 -332h-164l-148 205l-145 -205h-166z" />
    <glyph glyph-name="ccircumflex" unicode="&#x109;" horiz-adv-x="1202" 
d="M637 -20q-232 0 -385 154q-154 156 -154 378q0 229 155 381q154 151 382 151q166 0 293 -83q128 -83 186 -222l-143 -61q-100 223 -338 223q-159 0 -267 -114t-108 -275q0 -163 110 -276t273 -113q238 0 338 237l145 -61q-67 -149 -188 -233q-124 -86 -299 -86zM317 1143
l244 332h135l244 -332h-164l-147 205l-146 -205h-166z" />
    <glyph glyph-name="Cdotaccent" unicode="&#x10a;" horiz-adv-x="1611" 
d="M870 -20q-317 0 -542 225q-226 226 -226 543q0 316 226 542t542 226q209 0 386 -105q178 -106 280 -281l-137 -79q-77 143 -218 228q-140 85 -311 85q-256 0 -430 -180t-174 -436q0 -257 174 -437t430 -180q188 0 329 90q139 89 216 246l141 -74q-101 -191 -279 -302
q-179 -111 -407 -111zM807 1628v285h158v-285h-158z" />
    <glyph glyph-name="cdotaccent" unicode="&#x10b;" horiz-adv-x="1202" 
d="M637 -20q-232 0 -385 154q-154 156 -154 378q0 229 155 381q154 151 382 151q166 0 293 -83q128 -83 186 -222l-143 -61q-100 223 -338 223q-159 0 -267 -114t-108 -275q0 -163 110 -276t273 -113q238 0 338 237l145 -61q-67 -149 -188 -233q-124 -86 -299 -86zM553 1157
v285h158v-285h-158z" />
    <glyph glyph-name="Ccaron" unicode="&#x10c;" horiz-adv-x="1611" 
d="M870 -20q-317 0 -542 225q-226 226 -226 543q0 316 226 542t542 226q209 0 386 -105q178 -106 280 -281l-137 -79q-77 143 -218 228q-140 85 -311 85q-256 0 -430 -180t-174 -436q0 -257 174 -437t430 -180q188 0 329 90q139 89 216 246l141 -74q-101 -191 -279 -302
q-179 -111 -407 -111zM793 1614l-244 332h164l145 -205l148 205h163l-243 -332h-133z" />
    <glyph glyph-name="ccaron" unicode="&#x10d;" horiz-adv-x="1202" 
d="M637 -20q-232 0 -385 154q-154 156 -154 378q0 229 155 381q154 151 382 151q166 0 293 -83q128 -83 186 -222l-143 -61q-100 223 -338 223q-159 0 -267 -114t-108 -275q0 -163 110 -276t273 -113q238 0 338 237l145 -61q-67 -149 -188 -233q-124 -86 -299 -86zM557 1143
l-244 332h164l146 -205l147 205h164l-244 -332h-133z" />
    <glyph glyph-name="Dcaron" unicode="&#x10e;" horiz-adv-x="1445" 
d="M147 0v1495h418q343 0 561 -213q217 -213 217 -534q0 -319 -221 -534q-220 -214 -551 -214h-424zM553 1348h-246v-1198h252q271 0 446 171t175 427q0 262 -171 431q-170 169 -456 169zM539 1614l-244 332h164l145 -205l148 205h163l-243 -332h-133z" />
    <glyph glyph-name="dcaron" unicode="&#x10f;" horiz-adv-x="1368" 
d="M623 -20q-225 0 -374 155q-151 157 -151 377q0 224 150 378t375 154q102 0 206 -49q106 -50 168 -137v637h154v-1495h-152v168q-62 -88 -169 -138q-106 -50 -207 -50zM631 123q163 0 273 114q110 115 110 275q0 161 -111 275t-272 114q-156 0 -264 -114
q-109 -115 -109 -275t109 -275q108 -114 264 -114zM1288 1118l84 377h146l-121 -377h-109z" />
    <glyph glyph-name="Dcroat" unicode="&#x110;" horiz-adv-x="1499" 
d="M47 672v155h158v668h413q344 0 562 -213q217 -213 217 -534q0 -319 -221 -534q-220 -214 -551 -214h-420v672h-158zM602 1348h-237v-521h438v-155h-438v-522h243q272 0 450 171q179 171 179 427q0 261 -175 430q-176 170 -460 170z" />
    <glyph glyph-name="dcroat" unicode="&#x111;" horiz-adv-x="1331" 
d="M850 1176v143h147v176h154v-176h115v-143h-115v-1176h-152v168q-62 -88 -169 -138q-106 -50 -207 -50q-225 0 -374 155q-151 157 -151 377q0 224 150 378t375 154q102 0 206 -49q106 -50 168 -137v318h-147zM631 123q163 0 273 114q110 115 110 275q0 161 -111 275
t-272 114q-156 0 -264 -114q-109 -115 -109 -275t109 -275q108 -114 264 -114z" />
    <glyph glyph-name="Emacron" unicode="&#x112;" horiz-adv-x="1177" 
d="M147 0v1495h908v-152h-748v-518h748v-151h-748v-520h748v-154h-908zM319 1614v137h541v-137h-541z" />
    <glyph glyph-name="emacron" unicode="&#x113;" horiz-adv-x="1253" 
d="M637 -20q-241 0 -390 147t-149 377t151 386q150 154 380 154q226 0 375 -142t149 -374v-67h-901q15 -151 123 -246q107 -94 262 -94q240 0 346 211l137 -68q-149 -284 -483 -284zM629 903q-134 0 -237 -83q-102 -82 -132 -214h731q-22 137 -118 218q-94 79 -244 79z
M367 1143v137h540v-137h-540z" />
    <glyph glyph-name="Ebreve" unicode="&#x114;" horiz-adv-x="1177" 
d="M147 0v1495h908v-152h-748v-518h748v-151h-748v-520h748v-154h-908zM596 1606q-162 0 -246 94t-84 239h135q0 -96 51 -155t144 -60q91 1 142 60q50 58 50 155h140q0 -142 -91 -237q-91 -96 -241 -96z" />
    <glyph glyph-name="ebreve" unicode="&#x115;" horiz-adv-x="1253" 
d="M637 -20q-241 0 -390 147t-149 377t151 386q150 154 380 154q226 0 375 -142t149 -374v-67h-901q15 -151 123 -246q107 -94 262 -94q240 0 346 211l137 -68q-149 -284 -483 -284zM629 903q-134 0 -237 -83q-102 -82 -132 -214h731q-22 137 -118 218q-94 79 -244 79z
M635 1130q-162 0 -246 95t-84 239h135q0 -97 50 -155q51 -59 145 -60q91 1 142 60q50 58 50 155h140q0 -142 -91 -237q-92 -97 -241 -97z" />
    <glyph glyph-name="Edotaccent" unicode="&#x116;" horiz-adv-x="1177" 
d="M147 0v1495h908v-152h-748v-518h748v-151h-748v-520h748v-154h-908zM541 1628v285h157v-285h-157z" />
    <glyph glyph-name="edotaccent" unicode="&#x117;" horiz-adv-x="1253" 
d="M637 -20q-241 0 -390 147t-149 377t151 386q150 154 380 154q226 0 375 -142t149 -374v-67h-901q15 -151 123 -246q107 -94 262 -94q240 0 346 211l137 -68q-149 -284 -483 -284zM629 903q-134 0 -237 -83q-102 -82 -132 -214h731q-22 137 -118 218q-94 79 -244 79z
M563 1157v285h158v-285h-158z" />
    <glyph glyph-name="Eogonek" unicode="&#x118;" horiz-adv-x="1177" 
d="M147 0v1495h908v-152h-748v-518h748v-151h-748v-520h748v-154q-158 -95 -206 -138q-50 -44 -50 -89q0 -43 32 -63q33 -21 84 -21q69 0 152 69l125 -86q-129 -114 -277 -114q-121 0 -198 59q-78 60 -78 147q0 130 166 236h-658z" />
    <glyph glyph-name="eogonek" unicode="&#x119;" horiz-adv-x="1253" 
d="M713 -424q-122 0 -199 59q-78 60 -78 148q0 112 117 203q-206 24 -331 168q-124 143 -124 350q0 230 151 386q150 154 380 154q226 0 375 -142t149 -374v-67h-901q15 -151 123 -246q107 -94 262 -94q240 0 346 211l137 -68q-99 -184 -274 -250q-150 -89 -201 -134
q-49 -43 -49 -89q0 -41 33 -62q35 -22 84 -22q67 0 151 70l125 -86q-130 -115 -276 -115zM629 903q-134 0 -237 -83q-102 -82 -132 -214h731q-22 137 -118 218q-94 79 -244 79z" />
    <glyph glyph-name="Ecaron" unicode="&#x11a;" horiz-adv-x="1179" 
d="M147 0v1495h908v-152h-748v-518h748v-151h-748v-520h748v-154h-908zM520 1614l-244 332h164l146 -205l147 205h164l-244 -332h-133z" />
    <glyph glyph-name="ecaron" unicode="&#x11b;" horiz-adv-x="1253" 
d="M637 -20q-241 0 -390 147t-149 377t151 386q150 154 380 154q226 0 375 -142t149 -374v-67h-901q15 -151 123 -246q107 -94 262 -94q240 0 346 211l137 -68q-149 -284 -483 -284zM629 903q-134 0 -237 -83q-102 -82 -132 -214h731q-22 137 -118 218q-94 79 -244 79z
M571 1143l-243 332h164l145 -205l147 205h164l-243 -332h-134z" />
    <glyph glyph-name="Gcircumflex" unicode="&#x11c;" horiz-adv-x="1730" 
d="M877 -20q-325 0 -549 224q-226 226 -226 544q0 319 223 544q222 224 560 224q213 0 388 -105q174 -104 275 -285l-139 -79q-78 145 -215 231t-309 86q-275 0 -447 -178t-172 -438q0 -257 174 -437t437 -180q254 0 406 142t181 372h-600v152h766v-45q0 -322 -202 -548
q-200 -224 -551 -224zM551 1614l244 332h135l244 -332h-164l-148 205l-145 -205h-166z" />
    <glyph glyph-name="gcircumflex" unicode="&#x11d;" horiz-adv-x="1296" 
d="M623 -20q-225 0 -374 155q-151 157 -151 377q0 224 150 378t375 154q101 0 207 -50q107 -50 169 -138v168h158v-1006q0 -232 -137 -375t-369 -143q-359 0 -481 283l156 51q82 -194 325 -194q164 0 257 103q93 104 93 271v156q-61 -88 -167 -139t-211 -51zM631 123
q163 0 273 114q110 115 110 275q0 161 -111 275t-272 114q-156 0 -264 -114q-109 -115 -109 -275t109 -275q108 -114 264 -114zM334 1143l244 332h135l243 -332h-163l-148 205l-145 -205h-166z" />
    <glyph glyph-name="Gbreve" unicode="&#x11e;" horiz-adv-x="1730" 
d="M877 -20q-325 0 -549 224q-226 226 -226 544q0 319 223 544q222 224 560 224q213 0 388 -105q174 -104 275 -285l-139 -79q-78 145 -215 231t-309 86q-275 0 -447 -178t-172 -438q0 -257 174 -437t437 -180q254 0 406 142t181 372h-600v152h766v-45q0 -322 -202 -548
q-200 -224 -551 -224zM860 1606q-162 0 -246 94q-84 95 -84 239h136q0 -97 50 -155q51 -59 144 -60q91 1 142 60t51 155h139q0 -142 -91 -237q-91 -96 -241 -96z" />
    <glyph glyph-name="gbreve" unicode="&#x11f;" horiz-adv-x="1296" 
d="M623 -20q-225 0 -374 155q-151 157 -151 377q0 224 150 378t375 154q101 0 207 -50q107 -50 169 -138v168h158v-1006q0 -232 -137 -375t-369 -143q-359 0 -481 283l156 51q82 -194 325 -194q164 0 257 103q93 104 93 271v156q-61 -88 -167 -139t-211 -51zM631 123
q163 0 273 114q110 115 110 275q0 161 -111 275t-272 114q-156 0 -264 -114q-109 -115 -109 -275t109 -275q108 -114 264 -114zM645 1130q-162 0 -246 95t-84 239h136q0 -97 50 -155q51 -59 144 -60q91 1 142 60t51 155h139q0 -142 -91 -237q-92 -97 -241 -97z" />
    <glyph glyph-name="Gdotaccent" unicode="&#x120;" horiz-adv-x="1730" 
d="M877 -20q-325 0 -549 224q-226 226 -226 544q0 319 223 544q222 224 560 224q213 0 388 -105q174 -104 275 -285l-139 -79q-78 145 -215 231t-309 86q-275 0 -447 -178t-172 -438q0 -257 174 -437t437 -180q254 0 406 142t181 372h-600v152h766v-45q0 -322 -202 -548
q-200 -224 -551 -224zM791 1628v285h157v-285h-157z" />
    <glyph glyph-name="gdotaccent" unicode="&#x121;" horiz-adv-x="1296" 
d="M623 -20q-225 0 -374 155q-151 157 -151 377q0 224 150 378t375 154q101 0 207 -50q107 -50 169 -138v168h158v-1006q0 -232 -137 -375t-369 -143q-359 0 -481 283l156 51q82 -194 325 -194q164 0 257 103q93 104 93 271v156q-61 -88 -167 -139t-211 -51zM631 123
q163 0 273 114q110 115 110 275q0 161 -111 275t-272 114q-156 0 -264 -114q-109 -115 -109 -275t109 -275q108 -114 264 -114zM545 1157v285h157v-285h-157z" />
    <glyph glyph-name="Gcommaaccent" unicode="&#x122;" horiz-adv-x="1730" 
d="M877 -20q-325 0 -549 224q-226 226 -226 544q0 319 223 544q222 224 560 224q213 0 388 -105q174 -104 275 -285l-139 -79q-78 145 -215 231t-309 86q-275 0 -447 -178t-172 -438q0 -257 174 -437t437 -180q254 0 406 142t181 372h-600v152h766v-45q0 -322 -202 -548
q-200 -224 -551 -224zM838 -541h-109l84 418h145z" />
    <glyph glyph-name="gcommaaccent" unicode="&#x123;" horiz-adv-x="1296" 
d="M623 -20q-225 0 -374 155q-151 157 -151 377q0 224 150 378t375 154q101 0 207 -50q107 -50 169 -138v168h158v-1006q0 -232 -137 -375t-369 -143q-359 0 -481 283l156 51q82 -194 325 -194q164 0 257 103q93 104 93 271v156q-61 -88 -167 -139t-211 -51zM631 123
q163 0 273 114q110 115 110 275q0 161 -111 275t-272 114q-156 0 -264 -114q-109 -115 -109 -275t109 -275q108 -114 264 -114zM684 1126h-109l84 418h146z" />
    <glyph glyph-name="Hcircumflex" unicode="&#x124;" horiz-adv-x="1402" 
d="M1096 0v676h-789v-676h-160v1495h160v-666h789v666h159v-1495h-159zM387 1614l244 332h135l244 -332h-164l-148 205l-145 -205h-166z" />
    <glyph glyph-name="hcircumflex" unicode="&#x125;" horiz-adv-x="1222" 
d="M139 0v1495h156v-621q119 170 348 170q209 0 326 -126q118 -127 118 -349v-569h-159v569q0 155 -79 243q-80 89 -228 89q-141 0 -232 -96q-92 -97 -92 -238v-567h-158zM-98 1593l243 332h136l243 -332h-164l-147 205l-145 -205h-166z" />
    <glyph glyph-name="Hbar" unicode="&#x126;" horiz-adv-x="1484" 
d="M45 1100v123h139v272h160v-272h789v272h159v-272h131v-123h-131v-1100h-159v676h-789v-676h-160v1100h-139zM344 1100v-271h789v271h-789z" />
    <glyph glyph-name="hbar" unicode="&#x127;" horiz-adv-x="1263" 
d="M72 1176v143h108v176h156v-176h151v-143h-151v-302q119 170 348 170q209 0 326 -126q118 -127 118 -349v-569h-159v569q0 155 -79 243q-80 89 -228 89q-140 0 -232 -96q-92 -97 -92 -238v-567h-158v1176h-108z" />
    <glyph glyph-name="Itilde" unicode="&#x128;" horiz-adv-x="491" 
d="M166 0v1495h160v-1495h-160zM-94 1614q0 112 56 178q57 68 147 68q70 0 165 -56q90 -57 129 -57q80 0 80 106h127q0 -114 -53 -181q-53 -66 -151 -66q-75 0 -187 67q-78 45 -110 45q-76 0 -76 -104h-127z" />
    <glyph glyph-name="itilde" unicode="&#x129;" horiz-adv-x="434" 
d="M137 0v1024h160v-1024h-160zM-135 1143q0 112 56 178q57 68 147 68q70 0 165 -56q90 -57 129 -57q80 0 80 106h127q0 -114 -53 -181q-52 -66 -151 -66q-75 0 -187 67q-78 45 -110 45q-76 0 -76 -104h-127z" />
    <glyph glyph-name="Imacron" unicode="&#x12a;" horiz-adv-x="491" 
d="M166 0v1495h160v-1495h-160zM-29 1614v137h541v-137h-541z" />
    <glyph glyph-name="imacron" unicode="&#x12b;" horiz-adv-x="434" 
d="M137 0v1024h160v-1024h-160zM-55 1143v137h540v-137h-540z" />
    <glyph glyph-name="Ibreve" unicode="&#x12c;" horiz-adv-x="491" 
d="M166 0v1495h160v-1495h-160zM238 1606q-162 0 -246 94t-84 239h135q0 -97 50 -155q51 -59 145 -60q91 1 142 60q50 58 50 155h139q0 -142 -91 -237q-92 -96 -240 -96z" />
    <glyph glyph-name="ibreve" unicode="&#x12d;" horiz-adv-x="434" 
d="M137 0v1024h160v-1024h-160zM217 1130q-162 0 -246 95t-84 239h136q0 -97 50 -155q51 -59 144 -60q91 1 142 60t51 155h139q0 -142 -91 -237q-92 -97 -241 -97z" />
    <glyph glyph-name="Iogonek" unicode="&#x12e;" horiz-adv-x="491" 
d="M264 -444q-124 0 -187 64t-63 159q0 129 152 254v1462h160v-1495q-162 -129 -162 -215q0 -41 27 -68q26 -26 73 -26q67 0 131 53l90 -111q-105 -77 -221 -77z" />
    <glyph glyph-name="iogonek" unicode="&#x12f;" horiz-adv-x="434" 
d="M236 -444q-125 0 -188 64q-62 63 -62 159q0 130 151 254v991h160v-1024q-162 -129 -162 -215q0 -40 28 -68q26 -26 73 -26q67 0 131 53l90 -111q-105 -77 -221 -77zM137 1202v293h160v-293h-160z" />
    <glyph glyph-name="Idotaccent" unicode="&#x130;" horiz-adv-x="491" 
d="M166 0v1495h160v-1495h-160zM166 1628v285h158v-285h-158z" />
    <glyph glyph-name="dotlessi" unicode="&#x131;" horiz-adv-x="434" 
d="M137 0v1024h160v-1024h-160z" />
    <glyph glyph-name="IJ" unicode="&#x132;" horiz-adv-x="1181" 
d="M481 0v150h193q221 0 221 260v1085h160v-1087q0 -408 -373 -408h-201zM127 0v1495h160v-1495h-160z" />
    <glyph glyph-name="ij" unicode="&#x133;" horiz-adv-x="786" 
d="M137 -469v152h107q156 0 200 43q45 43 45 198v1100h160v-1102q0 -222 -83 -307q-82 -84 -298 -84h-131zM137 0v1024h160v-1024h-160zM137 1202v293h160v-293h-160zM489 1202v293h160v-293h-160z" />
    <glyph glyph-name="Jcircumflex" unicode="&#x134;" horiz-adv-x="960" 
d="M444 -20q-128 0 -226 58q-100 59 -150 152l143 95q80 -160 229 -160q101 0 162 70q60 69 60 194v1106h159v-1102q0 -196 -101 -304q-102 -109 -276 -109zM426 1614l244 332h135l244 -332h-164l-148 205l-145 -205h-166z" />
    <glyph glyph-name="jcircumflex" unicode="&#x135;" horiz-adv-x="436" 
d="M-109 -469v152q157 0 201 43q45 43 45 198v1100h162v-1102q0 -226 -81 -309q-81 -82 -302 -82h-25zM-98 1143l243 332h136l243 -332h-164l-147 205l-145 -205h-166z" />
    <glyph glyph-name="Kcommaaccent" unicode="&#x136;" horiz-adv-x="1323" 
d="M1092 0l-504 788l-281 -329v-459h-160v1495h160v-823l707 823h196l-510 -598l576 -897h-184zM639 -541h-109l84 418h146z" />
    <glyph glyph-name="kcommaaccent" unicode="&#x137;" horiz-adv-x="1097" 
d="M858 0l-356 496l-207 -211v-285h-156v1495h156v-1028l545 557h200l-424 -434l426 -590h-184zM516 -520h-108l84 418h145z" />
    <glyph glyph-name="kgreenlandic" unicode="&#x138;" horiz-adv-x="1097" 
d="M858 0l-356 496l-207 -211v-285h-156v1024h156v-557l545 557h200l-424 -434l426 -590h-184z" />
    <glyph glyph-name="Lacute" unicode="&#x139;" horiz-adv-x="1091" 
d="M147 0v1495h160v-1341h668v-154h-828zM137 1614l240 332h205l-297 -332h-148z" />
    <glyph glyph-name="lacute" unicode="&#x13a;" horiz-adv-x="438" 
d="M143 1593l240 332h205l-297 -332h-148zM139 0v1495h160v-1495h-160z" />
    <glyph glyph-name="Lcommaaccent" unicode="&#x13b;" horiz-adv-x="1091" 
d="M147 0v1495h160v-1341h668v-154h-828zM508 -541h-109l84 418h146z" />
    <glyph glyph-name="lcommaaccent" unicode="&#x13c;" horiz-adv-x="438" 
d="M182 -520h-108l84 418h145zM139 0v1495h160v-1495h-160z" />
    <glyph glyph-name="Lcaron" unicode="&#x13d;" horiz-adv-x="1091" 
d="M147 0v1495h160v-1341h668v-154h-828zM598 1118l84 377h145l-120 -377h-109z" />
    <glyph glyph-name="lcaron" unicode="&#x13e;" horiz-adv-x="503" 
d="M127 0v1495h160v-1495h-160zM424 1118l84 377h145l-121 -377h-108z" />
    <glyph glyph-name="Ldot" unicode="&#x13f;" horiz-adv-x="1099" 
d="M147 0v1495h160v-1341h668v-154h-828zM817 594v285h158v-285h-158z" />
    <glyph glyph-name="ldot" unicode="&#x140;" horiz-adv-x="737" 
d="M139 0v1495h160v-1495h-160zM500 414v284h157v-284h-157z" />
    <glyph glyph-name="Lslash" unicode="&#x141;" horiz-adv-x="1148" 
d="M27 719v115l178 51v610h160v-563l190 55v-115l-190 -55v-663h667v-154h-827v770z" />
    <glyph glyph-name="lslash" unicode="&#x142;" horiz-adv-x="579" 
d="M25 639v117l184 53v686h162v-639l184 55v-118l-184 -54v-739h-162v692z" />
    <glyph glyph-name="Nacute" unicode="&#x143;" horiz-adv-x="1513" 
d="M147 0v1495h179l880 -1241v1241h160v-1495h-170l-889 1251v-1251h-160zM686 1614l240 332h204l-296 -332h-148z" />
    <glyph glyph-name="nacute" unicode="&#x144;" horiz-adv-x="1218" 
d="M137 0v1024h156v-152q118 172 348 172q209 0 326 -126q118 -127 118 -349v-569h-159v569q0 155 -79 243q-80 89 -229 89q-140 0 -231 -96q-92 -97 -92 -238v-567h-158zM524 1143l240 332h205l-297 -332h-148z" />
    <glyph glyph-name="Ncommaaccent" unicode="&#x145;" horiz-adv-x="1513" 
d="M147 0v1495h179l880 -1241v1241h160v-1495h-170l-889 1251v-1251h-160zM700 -541h-108l84 418h145z" />
    <glyph glyph-name="ncommaaccent" unicode="&#x146;" horiz-adv-x="1218" 
d="M137 0v1024h156v-152q118 172 348 172q209 0 326 -126q118 -127 118 -349v-569h-159v569q0 155 -79 243q-80 89 -229 89q-140 0 -231 -96q-92 -97 -92 -238v-567h-158zM586 -520h-109l84 418h146z" />
    <glyph glyph-name="Ncaron" unicode="&#x147;" horiz-adv-x="1513" 
d="M147 0v1495h179l880 -1241v1241h160v-1495h-170l-889 1251v-1251h-160zM690 1614l-244 332h164l146 -205l147 205h164l-244 -332h-133z" />
    <glyph glyph-name="ncaron" unicode="&#x148;" horiz-adv-x="1218" 
d="M137 0v1024h156v-152q118 172 348 172q209 0 326 -126q118 -127 118 -349v-569h-159v569q0 155 -79 243q-80 89 -229 89q-140 0 -231 -96q-92 -97 -92 -238v-567h-158zM535 1143l-244 332h164l145 -205l148 205h163l-243 -332h-133z" />
    <glyph glyph-name="Eng" unicode="&#x14a;" horiz-adv-x="1513" 
d="M942 -449v154h43q128 0 174 56q47 58 47 200v39l-899 1251v-1251h-160v1495h179l880 -1227v1227h160v-1536q0 -205 -85 -306q-85 -102 -282 -102h-57z" />
    <glyph glyph-name="eng" unicode="&#x14b;" horiz-adv-x="1218" 
d="M678 -469v152q156 0 202 43t46 198v645q0 155 -79 243q-80 89 -229 89q-140 0 -231 -96q-92 -97 -92 -238v-567h-158v1024h156v-152q118 172 348 172q209 0 326 -126q118 -127 118 -349v-647q0 -228 -80 -309q-81 -82 -303 -82h-24z" />
    <glyph glyph-name="Omacron" unicode="&#x14c;" horiz-adv-x="1740" 
d="M592 1614v137h541v-137h-541zM870 -20q-317 0 -542 225q-226 226 -226 543q0 316 226 542t542 226q317 0 543 -226q225 -225 225 -542q0 -318 -225 -543t-543 -225zM870 131q256 0 430 180q175 181 175 437q0 255 -175 436q-174 180 -430 180t-430 -180t-174 -436
q0 -257 174 -437t430 -180z" />
    <glyph glyph-name="omacron" unicode="&#x14d;" horiz-adv-x="1259" 
d="M362 1143v137h541v-137h-541zM629 -20q-221 0 -376 153t-155 379t155 379t376 153q223 0 378 -153q154 -153 154 -379t-154 -379q-155 -153 -378 -153zM629 123q156 0 264 114t108 275t-108 275t-264 114q-155 0 -263 -114t-108 -275t108 -275t263 -114z" />
    <glyph glyph-name="Obreve" unicode="&#x14e;" horiz-adv-x="1740" 
d="M870 -20q-317 0 -542 225q-226 226 -226 543q0 316 226 542t542 226q317 0 543 -226q225 -225 225 -542q0 -318 -225 -543t-543 -225zM870 131q256 0 430 180q175 181 175 437q0 255 -175 436q-174 180 -430 180t-430 -180t-174 -436q0 -257 174 -437t430 -180zM860 1608
q-162 0 -246 94t-84 240h136q0 -98 50 -156q51 -59 144 -60q91 1 142 60t51 156h139q0 -143 -91 -238q-91 -96 -241 -96z" />
    <glyph glyph-name="obreve" unicode="&#x14f;" horiz-adv-x="1259" 
d="M629 -20q-221 0 -376 153t-155 379t155 379t376 153q223 0 378 -153q154 -153 154 -379t-154 -379q-155 -153 -378 -153zM629 123q156 0 264 114t108 275t-108 275t-264 114q-155 0 -263 -114t-108 -275t108 -275t263 -114zM631 1130q-162 0 -246 95t-84 239h135
q0 -97 50 -155q51 -59 145 -60q91 1 142 60q50 58 50 155h140q0 -140 -92 -237t-240 -97z" />
    <glyph glyph-name="Ohungarumlaut" unicode="&#x150;" horiz-adv-x="1740" 
d="M627 1614l239 332h193l-297 -332h-135zM918 1614l241 332h193l-297 -332h-137zM870 -20q-317 0 -542 225q-226 226 -226 543q0 316 226 542t542 226q317 0 543 -226q225 -225 225 -542q0 -318 -225 -543t-543 -225zM870 131q256 0 430 180q175 181 175 437
q0 255 -175 436q-174 180 -430 180t-430 -180t-174 -436q0 -257 174 -437t430 -180z" />
    <glyph glyph-name="ohungarumlaut" unicode="&#x151;" horiz-adv-x="1259" 
d="M412 1143l239 332h193l-297 -332h-135zM702 1143l242 332h193l-297 -332h-138zM629 -20q-221 0 -376 153t-155 379t155 379t376 153q223 0 378 -153q154 -153 154 -379t-154 -379q-155 -153 -378 -153zM629 123q156 0 264 114t108 275t-108 275t-264 114
q-155 0 -263 -114t-108 -275t108 -275t263 -114z" />
    <glyph glyph-name="OE" unicode="&#x152;" horiz-adv-x="2506" 
d="M1477 0v297q-100 -147 -259 -232q-158 -85 -350 -85q-316 0 -541 225t-225 543q0 317 225 542q226 226 541 226q192 0 350 -85t259 -233v297h907v-152h-748v-518h748v-151h-748v-520h748v-154h-907zM868 137q246 0 422 170q177 170 187 416v49q-10 245 -187 417
q-175 171 -422 171q-252 0 -429 -179t-177 -433t177 -432q177 -179 429 -179z" />
    <glyph glyph-name="oe" unicode="&#x153;" horiz-adv-x="2164" 
d="M629 -20q-221 0 -376 153t-155 379t155 379t376 153q144 0 263 -67q118 -66 191 -182q68 116 189 183q118 66 266 66q226 0 375 -142t149 -374v-65h-901q15 -153 123 -247q109 -95 264 -95q240 0 346 211l138 -68q-149 -284 -484 -284q-159 0 -279 65q-123 67 -190 180
q-73 -114 -191 -179q-120 -66 -259 -66zM629 123q156 0 264 114t108 275t-108 275t-264 114q-155 0 -263 -114t-108 -275t108 -275t263 -114zM1538 903q-133 0 -236 -83t-133 -214h732q-22 137 -118 218q-94 79 -245 79z" />
    <glyph glyph-name="Racute" unicode="&#x154;" horiz-adv-x="1216" 
d="M147 0v1495h459q217 0 363 -137q145 -136 145 -338q0 -162 -99 -290t-267 -165l378 -565h-186l-451 684h103q162 0 262 101t100 235q0 144 -98 235q-101 93 -262 93h-287v-1348h-160zM449 1614l239 332h205l-297 -332h-147z" />
    <glyph glyph-name="racute" unicode="&#x155;" horiz-adv-x="796" 
d="M137 0v1024h158v-147q85 147 285 147h127v-147h-127q-155 0 -219 -82t-64 -265v-530h-160zM356 1143l240 332h205l-297 -332h-148z" />
    <glyph glyph-name="Rcommaaccent" unicode="&#x156;" horiz-adv-x="1216" 
d="M147 0v1495h459q217 0 363 -137q145 -136 145 -338q0 -162 -99 -290t-267 -165l378 -565h-186l-451 684h103q162 0 262 101t100 235q0 144 -98 235q-101 93 -262 93h-287v-1348h-160zM575 -541h-108l84 418h145z" />
    <glyph glyph-name="rcommaaccent" unicode="&#x157;" horiz-adv-x="796" 
d="M137 0v1024h158v-147q85 147 285 147h127v-147h-127q-155 0 -219 -82t-64 -265v-530h-160zM178 -520h-108l84 418h145z" />
    <glyph glyph-name="Rcaron" unicode="&#x158;" horiz-adv-x="1216" 
d="M147 0v1495h459q217 0 363 -137q145 -136 145 -338q0 -162 -99 -290t-267 -165l378 -565h-186l-451 684h103q162 0 262 101t100 235q0 144 -98 235q-101 93 -262 93h-287v-1348h-160zM500 1614l-244 332h164l145 -205l148 205h164l-244 -332h-133z" />
    <glyph glyph-name="rcaron" unicode="&#x159;" horiz-adv-x="796" 
d="M137 0v1024h158v-147q85 147 285 147h127v-147h-127q-155 0 -219 -82t-64 -265v-530h-160zM352 1143l-243 332h163l146 -205l147 205h164l-244 -332h-133z" />
    <glyph glyph-name="Sacute" unicode="&#x15a;" horiz-adv-x="1153" 
d="M496 1614l239 332h205l-297 -332h-147zM575 -20q-336 0 -528 274l135 102q150 -231 393 -231q140 0 229 80t89 203q0 53 -23 97q-22 43 -49 70t-87 57q-61 31 -94 42q-7 2 -26 9t-41 14.5t-45 15.5q-102 36 -154 59q-61 28 -128 75q-67 48 -102 119q-33 67 -33 162
q0 165 131 276q132 112 327 112q290 0 463 -226l-127 -94q-114 178 -338 178q-125 0 -210 -70t-85 -176q0 -48 23 -91q22 -41 47 -66t84 -53q68 -32 92 -41q33 -12 111 -39q86 -30 126 -46q43 -17 111 -58q63 -38 100 -79q34 -38 62 -105q27 -65 27 -142q0 -172 -135 -300
q-136 -128 -345 -128z" />
    <glyph glyph-name="sacute" unicode="&#x15b;" horiz-adv-x="972" 
d="M387 1143l240 332h204l-296 -332h-148zM481 -20q-269 0 -428 196l125 103q130 -160 309 -160q110 0 171 50t61 126q0 47 -39 79q-38 31 -78 43q-21 6 -125 32q-26 7 -35 8q-74 17 -125 36q-49 18 -104 49q-56 32 -83 84q-28 54 -28 124q0 118 104 207q105 90 269 90
q115 0 220 -41q103 -40 169 -117l-116 -98q-107 120 -273 120q-104 0 -160 -46q-57 -47 -57 -113q0 -67 61 -98t187 -60q7 -1 20 -4q72 -16 127 -35q53 -18 107 -49q58 -34 86 -85q28 -52 28 -126q0 -117 -99 -216t-294 -99z" />
    <glyph glyph-name="Scircumflex" unicode="&#x15c;" horiz-adv-x="1153" 
d="M575 -20q-336 0 -528 274l135 102q150 -231 393 -231q140 0 229 80t89 203q0 53 -23 97q-22 43 -49 70t-87 57q-61 31 -94 42q-7 2 -26 9t-41 14.5t-45 15.5q-102 36 -154 59q-61 28 -128 75q-67 48 -102 119q-33 67 -33 162q0 165 131 276q132 112 327 112
q290 0 463 -226l-127 -94q-114 178 -338 178q-125 0 -210 -70t-85 -176q0 -48 23 -91q22 -41 47 -66t84 -53q68 -32 92 -41q33 -12 111 -39q86 -30 126 -46q43 -17 111 -58q63 -38 100 -79q34 -38 62 -105q27 -65 27 -142q0 -172 -135 -300q-136 -128 -345 -128zM272 1614
l244 332h135l244 -332h-164l-147 205l-146 -205h-166z" />
    <glyph glyph-name="scircumflex" unicode="&#x15d;" horiz-adv-x="972" 
d="M481 -20q-269 0 -428 196l125 103q130 -160 309 -160q110 0 171 50t61 126q0 47 -39 79q-38 31 -78 43q-21 6 -125 32q-26 7 -35 8q-74 17 -125 36q-49 18 -104 49q-56 32 -83 84q-28 54 -28 124q0 118 104 207q105 90 269 90q115 0 220 -41q103 -40 169 -117l-116 -98
q-107 120 -273 120q-104 0 -160 -46q-57 -47 -57 -113q0 -67 61 -98t187 -60q7 -1 20 -4q72 -16 127 -35q53 -18 107 -49q58 -34 86 -85q28 -52 28 -126q0 -117 -99 -216t-294 -99zM166 1143l244 332h135l243 -332h-163l-148 205l-145 -205h-166z" />
    <glyph glyph-name="Scedilla" unicode="&#x15e;" horiz-adv-x="1153" 
d="M588 -479q-178 0 -299 114l125 76q92 -74 174 -74q57 0 99 25q40 24 40 59q0 74 -145 74h-84v189q-282 27 -451 270l135 102q150 -231 393 -231q140 0 229 80t89 203q0 53 -23 97q-22 43 -49 70t-87 57q-61 31 -94 42q-7 2 -26 9t-41 14.5t-45 15.5q-102 36 -154 59
q-61 28 -128 75q-67 48 -102 119q-33 67 -33 162q0 165 131 276q132 112 327 112q290 0 463 -226l-127 -94q-114 178 -338 178q-125 0 -210 -70t-85 -176q0 -48 23 -91q22 -41 47 -66q27 -27 84 -54q59 -28 92 -40t111 -39q86 -30 126 -46q43 -17 111 -58q63 -38 100 -79
q34 -38 62 -105q27 -65 27 -142q0 -160 -118 -284t-306 -142v-88q106 0 176 -48q67 -46 67 -118q0 -91 -83 -149t-203 -58z" />
    <glyph glyph-name="scedilla" unicode="&#x15f;" horiz-adv-x="972" 
d="M492 -479q-178 0 -299 114l124 76q91 -73 175 -73q58 0 99 24q40 24 40 59q0 74 -146 74h-84v191q-215 24 -348 190l125 103q130 -160 309 -160q110 0 171 50t61 126q0 47 -39 79q-38 31 -78 43q-21 6 -125 32q-26 7 -35 8q-74 17 -125 36q-49 18 -104 49q-56 32 -83 84
q-28 54 -28 124q0 118 104 207q105 90 269 90q115 0 220 -41q103 -40 169 -117l-116 -98q-107 120 -273 120q-104 0 -160 -46q-57 -47 -57 -113q0 -67 61 -98t187 -60q7 -1 20 -4q72 -16 127 -35q53 -18 107 -49q58 -34 86 -85q28 -52 28 -126q0 -109 -86 -204
q-85 -94 -253 -109v-88q106 0 176 -48q67 -46 67 -118q0 -90 -84 -149q-83 -58 -202 -58z" />
    <glyph glyph-name="Scaron" unicode="&#x160;" horiz-adv-x="1153" 
d="M575 -20q-336 0 -528 274l135 102q150 -231 393 -231q140 0 229 80t89 203q0 53 -23 97q-22 43 -49 70t-87 57q-61 31 -94 42q-7 2 -26 9t-41 14.5t-45 15.5q-102 36 -154 59q-61 28 -128 75q-67 48 -102 119q-33 67 -33 162q0 165 131 276q132 112 327 112
q290 0 463 -226l-127 -94q-114 178 -338 178q-125 0 -210 -70t-85 -176q0 -48 23 -91q22 -41 47 -66t84 -53q68 -32 92 -41q33 -12 111 -39q86 -30 126 -46q43 -17 111 -58q63 -38 100 -79q34 -38 62 -105q27 -65 27 -142q0 -172 -135 -300q-136 -128 -345 -128zM522 1614
l-243 332h163l146 -205l147 205h164l-244 -332h-133z" />
    <glyph glyph-name="scaron" unicode="&#x161;" horiz-adv-x="972" 
d="M481 -20q-269 0 -428 196l125 103q130 -160 309 -160q110 0 171 50t61 126q0 47 -39 79q-38 31 -78 43q-21 6 -125 32q-26 7 -35 8q-74 17 -125 36q-49 18 -104 49q-56 32 -83 84q-28 54 -28 124q0 118 104 207q105 90 269 90q115 0 220 -41q103 -40 169 -117l-116 -98
q-107 120 -273 120q-104 0 -160 -46q-57 -47 -57 -113q0 -67 61 -98t187 -60q7 -1 20 -4q72 -16 127 -35q53 -18 107 -49q58 -34 86 -85q28 -52 28 -126q0 -117 -99 -216t-294 -99zM406 1143l-244 332h164l145 -205l147 205h164l-243 -332h-133z" />
    <glyph glyph-name="Tcommaaccent" unicode="&#x162;" horiz-adv-x="1247" 
d="M575 -541h-108l84 418h145zM545 0v1348h-451v147h1059v-147h-448v-1348h-160z" />
    <glyph glyph-name="tcommaaccent" unicode="&#x163;" horiz-adv-x="743" 
d="M70 881v143h176v242l160 88v-330h241v-143h-241v-488q0 -155 44 -199t197 -44v-150h-22q-223 0 -301 81t-78 310v490h-176zM375 -520h-109l84 418h146z" />
    <glyph glyph-name="Tcaron" unicode="&#x164;" horiz-adv-x="1247" 
d="M545 0v1348h-451v147h1059v-147h-448v-1348h-160zM547 1614l-244 332h164l145 -205l148 205h164l-244 -332h-133z" />
    <glyph glyph-name="tcaron" unicode="&#x165;" horiz-adv-x="743" 
d="M70 881v143h176v242l160 88v-330h241v-143h-241v-488q0 -155 44 -199t197 -44v-150h-22q-223 0 -301 81t-78 310v490h-176zM512 1139l84 377h145l-120 -377h-109z" />
    <glyph glyph-name="Tbar" unicode="&#x166;" horiz-adv-x="1247" 
d="M352 772v148h193v428h-451v147h1059v-147h-448v-428h188v-148h-188v-772h-160v772h-193z" />
    <glyph glyph-name="tbar" unicode="&#x167;" horiz-adv-x="743" 
d="M70 881v143h176v242l160 88v-330h241v-143h-241v-279h233v-137h-233v-72q0 -155 44 -199t197 -44v-150h-22q-223 0 -301 81t-78 310v74h-148v137h148v279h-176z" />
    <glyph glyph-name="Utilde" unicode="&#x168;" horiz-adv-x="1296" 
d="M647 -20q-219 0 -363 145q-145 147 -145 362v1008h160v-1016q0 -145 100 -246q101 -102 248 -102t249 102q101 101 101 246v1016h160v-1008q0 -215 -145 -361t-365 -146zM297 1614q0 112 56 178q57 68 147 68q71 0 166 -56q90 -57 129 -57q79 0 79 106h127
q0 -114 -53 -181q-52 -66 -151 -66q-75 0 -187 67q-78 45 -110 45q-76 0 -76 -104h-127z" />
    <glyph glyph-name="utilde" unicode="&#x169;" horiz-adv-x="1218" 
d="M586 -20q-222 0 -337 124q-116 125 -116 351v569h160v-569q0 -155 79 -243q80 -89 228 -89q140 0 231 96q93 98 93 238v567h157v-1024h-155v152q-118 -172 -340 -172zM248 1143q0 112 56 178q57 68 147 68q70 0 165 -56q90 -57 129 -57q80 0 80 106h127q0 -114 -53 -181
q-53 -66 -151 -66q-75 0 -187 67q-78 45 -110 45q-76 0 -76 -104h-127z" />
    <glyph glyph-name="Umacron" unicode="&#x16a;" horiz-adv-x="1296" 
d="M647 -20q-219 0 -363 145q-145 147 -145 362v1008h160v-1016q0 -145 100 -246q101 -102 248 -102t249 102q101 101 101 246v1016h160v-1008q0 -215 -145 -361t-365 -146zM373 1614v137h540v-137h-540z" />
    <glyph glyph-name="umacron" unicode="&#x16b;" horiz-adv-x="1218" 
d="M586 -20q-222 0 -337 124q-116 125 -116 351v569h160v-569q0 -155 79 -243q80 -89 228 -89q140 0 231 96q93 98 93 238v567h157v-1024h-155v152q-118 -172 -340 -172zM332 1143v137h540v-137h-540z" />
    <glyph glyph-name="Ubreve" unicode="&#x16c;" horiz-adv-x="1296" 
d="M647 -20q-219 0 -363 145q-145 147 -145 362v1008h160v-1016q0 -145 100 -246q101 -102 248 -102t249 102q101 101 101 246v1016h160v-1008q0 -215 -145 -361t-365 -146zM639 1606q-162 0 -246 94t-84 239h135q0 -96 51 -155t144 -60q91 1 142 60q50 58 50 155h140
q0 -142 -91 -237q-92 -96 -241 -96z" />
    <glyph glyph-name="ubreve" unicode="&#x16d;" horiz-adv-x="1218" 
d="M586 -20q-222 0 -337 124q-116 125 -116 351v569h160v-569q0 -155 79 -243q80 -89 228 -89q140 0 231 96q93 98 93 238v567h157v-1024h-155v152q-118 -172 -340 -172zM598 1130q-162 0 -246 95t-84 239h135q0 -96 51 -155t144 -60q91 1 142 60t51 155h139
q0 -142 -91 -237q-92 -97 -241 -97z" />
    <glyph glyph-name="Uring" unicode="&#x16e;" horiz-adv-x="1296" 
d="M637 1606q-91 0 -154 64q-63 65 -63 155q0 91 63 156t154 65q93 0 159 -64q64 -63 64 -157q0 -91 -64 -155t-159 -64zM637 1729q42 0 71 28t29 68q0 41 -29 70q-30 30 -71 30q-39 0 -68 -30q-28 -29 -28 -70q0 -40 28 -68t68 -28zM647 -20q-219 0 -363 145
q-145 147 -145 362v1008h160v-1016q0 -145 100 -246q101 -102 248 -102t249 102q101 101 101 246v1016h160v-1008q0 -215 -145 -361t-365 -146z" />
    <glyph glyph-name="uring" unicode="&#x16f;" horiz-adv-x="1218" 
d="M586 -20q-222 0 -337 124q-116 125 -116 351v569h160v-569q0 -155 79 -243q80 -89 228 -89q140 0 231 96q93 98 93 238v567h157v-1024h-155v152q-118 -172 -340 -172zM600 1135q-91 0 -154 64q-63 65 -63 155q0 92 63 156q63 65 154 65q93 0 159 -64q64 -63 64 -157
q0 -91 -64 -155t-159 -64zM600 1257q40 0 71 29q29 28 29 68q0 41 -29 70q-30 30 -71 30q-40 0 -68 -30q-28 -29 -28 -70q0 -40 28 -68q29 -29 68 -29z" />
    <glyph glyph-name="Uhungarumlaut" unicode="&#x170;" horiz-adv-x="1296" 
d="M647 -20q-219 0 -363 145q-145 147 -145 362v1008h160v-1016q0 -145 100 -246q101 -102 248 -102t249 102q101 101 101 246v1016h160v-1008q0 -215 -145 -361t-365 -146zM395 1614l240 332h192l-297 -332h-135zM686 1614l242 332h192l-297 -332h-137z" />
    <glyph glyph-name="uhungarumlaut" unicode="&#x171;" horiz-adv-x="1218" 
d="M586 -20q-222 0 -337 124q-116 125 -116 351v569h160v-569q0 -155 79 -243q80 -89 228 -89q140 0 231 96q93 98 93 238v567h157v-1024h-155v152q-118 -172 -340 -172zM664 1143l241 332h193l-297 -332h-137zM373 1143l239 332h193l-297 -332h-135z" />
    <glyph glyph-name="Uogonek" unicode="&#x172;" horiz-adv-x="1296" 
d="M653 -440q-121 0 -198 59q-78 60 -78 148q0 122 151 227q-174 37 -281 173q-108 137 -108 320v1008h160v-1016q0 -145 100 -246q101 -102 248 -102t249 102q101 101 101 246v1016h160v-1008q0 -181 -103 -315q-104 -135 -272 -176q-145 -88 -197 -134q-48 -42 -48 -87
q0 -43 32 -63q33 -21 84 -21q69 0 152 69l125 -86q-129 -114 -277 -114z" />
    <glyph glyph-name="uogonek" unicode="&#x173;" horiz-adv-x="1218" 
d="M586 -20q-222 0 -337 124q-116 125 -116 351v569h160v-569q0 -155 79 -243q80 -89 228 -89q140 0 231 96q93 98 93 238v567h157v-1024q-161 -128 -161 -215q0 -41 27 -68q26 -26 73 -26q67 0 131 53l90 -111q-105 -77 -221 -77q-124 0 -187 64t-63 159q0 131 156 256v117
q-118 -172 -340 -172z" />
    <glyph glyph-name="Wcircumflex" unicode="&#x174;" horiz-adv-x="2191" 
d="M512 0l-438 1495h170l356 -1247l414 1247h153l410 -1249l377 1249h164l-461 -1495h-162l-408 1245l-411 -1245h-164zM774 1614l244 332h135l244 -332h-164l-148 205l-145 -205h-166z" />
    <glyph glyph-name="wcircumflex" unicode="&#x175;" horiz-adv-x="1769" 
d="M412 0l-338 1024h168l258 -799l303 799h153l312 -803l262 803h166l-346 -1024h-154l-317 805l-310 -805h-157zM573 1143l244 332h135l244 -332h-164l-147 205l-146 -205h-166z" />
    <glyph glyph-name="Ycircumflex" unicode="&#x176;" horiz-adv-x="1267" 
d="M555 0v711l-496 784h179l397 -633l395 633h178l-493 -782v-713h-160zM317 1614l244 332h135l244 -332h-164l-147 205l-146 -205h-166z" />
    <glyph glyph-name="ycircumflex" unicode="&#x177;" horiz-adv-x="1146" 
d="M272 -473l232 532l-443 965h175l352 -782l325 782h172l-645 -1497h-168zM256 1143l244 332h135l244 -332h-164l-148 205l-145 -205h-166z" />
    <glyph glyph-name="Ydieresis" unicode="&#x178;" horiz-adv-x="1267" 
d="M555 0v711l-496 784h179l397 -633l395 633h178l-493 -782v-713h-160zM418 1628v285h157v-285h-157zM692 1628v285h158v-285h-158z" />
    <glyph glyph-name="Zacute" unicode="&#x179;" horiz-adv-x="1234" 
d="M123 0v147l801 1196h-777v152h965v-145l-801 -1196h801v-154h-989zM520 1614l240 332h205l-297 -332h-148z" />
    <glyph glyph-name="zacute" unicode="&#x17a;" horiz-adv-x="1093" 
d="M102 0v152l689 725h-670v147h864v-152l-690 -727h696v-145h-889zM465 1143l240 332h204l-297 -332h-147z" />
    <glyph glyph-name="Zdotaccent" unicode="&#x17b;" horiz-adv-x="1234" 
d="M123 0v147l801 1196h-777v152h965v-145l-801 -1196h801v-154h-989zM549 1628v285h158v-285h-158z" />
    <glyph glyph-name="zdotaccent" unicode="&#x17c;" horiz-adv-x="1093" 
d="M102 0v152l689 725h-670v147h864v-152l-690 -727h696v-145h-889zM483 1157v285h158v-285h-158z" />
    <glyph glyph-name="Zcaron" unicode="&#x17d;" horiz-adv-x="1234" 
d="M123 0v147l801 1196h-777v152h965v-145l-801 -1196h801v-154h-989zM553 1614l-244 332h164l145 -205l148 205h164l-244 -332h-133z" />
    <glyph glyph-name="zcaron" unicode="&#x17e;" horiz-adv-x="1093" 
d="M102 0v152l689 725h-670v147h864v-152l-690 -727h696v-145h-889zM494 1143l-244 332h164l145 -205l148 205h163l-243 -332h-133z" />
    <glyph glyph-name="florin" unicode="&#x192;" 
d="M229 696v142h328l86 260q69 223 168 310t260 87h12v-145q-107 0 -170 -57q-64 -58 -110 -210l-82 -245h291v-142h-336l-98 -299q-73 -228 -164 -313q-90 -84 -279 -84h-14v147q125 0 185 54q59 53 112 213l92 282h-281z" />
    <glyph glyph-name="Aringacute" unicode="&#x1fa;" horiz-adv-x="1443" 
d="M70 0l534 1415q-112 61 -112 193q0 92 63 156q63 65 154 65q92 0 158 -64q65 -63 65 -157q0 -121 -98 -183l540 -1425h-166l-145 379h-682l-143 -379h-168zM721 1280l-283 -750h568zM627 1886l239 332h205l-297 -332h-147zM709 1511q39 0 70 29q30 28 30 68t-30 70
t-70 30q-39 0 -68 -30q-29 -31 -29 -70t29 -68t68 -29z" />
    <glyph glyph-name="aringacute" unicode="&#x1fb;" horiz-adv-x="1294" 
d="M623 -20q-225 0 -374 155q-151 157 -151 377q0 224 150 378t375 154q101 0 207 -50q107 -50 169 -138v168h158v-1024h-158v168q-62 -88 -169 -138q-106 -50 -207 -50zM631 123q163 0 273 114q110 115 110 275q0 161 -111 275t-272 114q-156 0 -264 -114
q-109 -115 -109 -275t109 -275q108 -114 264 -114zM643 1128q-91 0 -154 65t-63 155q0 92 63 156q63 65 154 65q93 0 159 -64q64 -63 64 -157q0 -91 -64 -155q-65 -65 -159 -65zM559 1626l240 332h205l-297 -332h-148zM643 1251q40 0 71 29q29 28 29 68q0 41 -29 70
q-30 30 -71 30q-39 0 -68 -30q-28 -29 -28 -70q0 -40 28 -68q29 -29 68 -29z" />
    <glyph glyph-name="AEacute" unicode="&#x1fc;" horiz-adv-x="2254" 
d="M147 0l709 1495h1180v-152h-971l121 -518h850v-151h-815l120 -520h695v-154h-822l-86 371h-624l-176 -371h-181zM924 1255l-351 -737h521zM1165 1614l240 332h205l-297 -332h-148z" />
    <glyph glyph-name="aeacute" unicode="&#x1fd;" horiz-adv-x="1966" 
d="M1350 -20q-156 0 -274 62q-121 63 -189 173q-55 -98 -169 -167q-112 -68 -261 -68q-186 0 -275 76q-91 77 -92 204q-2 135 94 207t271 111q40 8 75 16q63 14 76 17q18 4 65 17q47 14 60 22q18 12 42 27t33 35t9 42q0 73 -67 118q-69 46 -193 46q-140 0 -220 -68
q-79 -67 -79 -174v-6h-147v4q0 170 118 270t322 100q140 0 243 -47q99 -45 144 -133q153 180 403 180q226 0 375 -142q150 -142 150 -374v-65h-901q15 -154 122 -247q109 -95 265 -95q240 0 346 211l137 -68q-149 -284 -483 -284zM463 111q135 0 233 82q99 82 127 176
q-14 56 -14 135q0 25 4 61q-17 -23 -60 -42q-33 -15 -88 -30q-21 -6 -139 -32q-142 -27 -209 -69t-67 -128q0 -69 52 -111t161 -42zM1339 903q-133 0 -236 -83q-102 -82 -132 -214h731q-22 137 -118 218q-94 79 -245 79zM872 1143l240 332h205l-297 -332h-148z" />
    <glyph glyph-name="Oslashacute" unicode="&#x1fe;" horiz-adv-x="1740" 
d="M207 0l141 184q-117 106 -181 253q-65 148 -65 311q0 316 226 542t542 226q219 0 408 -117l74 96h186l-143 -188q243 -228 243 -559q0 -318 -225 -543t-543 -225q-220 0 -405 114l-72 -94h-186zM266 748q0 -260 176 -441l742 969q-143 88 -314 88q-256 0 -430 -180
t-174 -436zM870 131q256 0 430 180q175 181 175 437q0 255 -175 436l-741 -967q140 -86 311 -86zM776 1614l240 332h205l-297 -332h-148z" />
    <glyph glyph-name="oslashacute" unicode="&#x1ff;" horiz-adv-x="1259" 
d="M629 -20q-154 0 -271 71l-39 -51h-167l100 133q-154 151 -154 379q0 226 155 379t376 153q142 0 268 -71l39 51h170l-102 -133q157 -151 157 -379q0 -226 -154 -379q-155 -153 -378 -153zM629 123q156 0 264 114t108 275q0 143 -92 256l-460 -598q83 -47 180 -47z
M258 512q0 -148 90 -256l459 598q-83 47 -178 47q-155 0 -263 -114t-108 -275zM532 1143l240 332h205l-297 -332h-148z" />
    <glyph glyph-name="Scommaaccent" unicode="&#x218;" horiz-adv-x="1153" 
d="M549 -520h-109l84 418h146zM575 -20q-336 0 -528 274l135 102q150 -231 393 -231q140 0 229 80t89 203q0 53 -23 97q-22 43 -49 70t-87 57q-61 31 -94 42q-7 2 -26 9t-41 14.5t-45 15.5q-102 36 -154 59q-61 28 -128 75q-67 48 -102 119q-33 67 -33 162q0 165 131 276
q132 112 327 112q290 0 463 -226l-127 -94q-114 178 -338 178q-125 0 -210 -70t-85 -176q0 -48 23 -91q22 -41 47 -66t84 -53q68 -32 92 -41q33 -12 111 -39q86 -30 126 -46q43 -17 111 -58q63 -38 100 -79q34 -38 62 -105q27 -65 27 -142q0 -172 -135 -300
q-136 -128 -345 -128z" />
    <glyph glyph-name="scommaaccent" unicode="&#x219;" horiz-adv-x="972" 
d="M438 -530h-108l84 417h145zM481 -20q-269 0 -428 196l125 103q130 -160 309 -160q110 0 171 50t61 126q0 47 -39 79q-38 31 -78 43q-21 6 -125 32q-26 7 -35 8q-74 17 -125 36q-49 18 -104 49q-56 32 -83 84q-28 54 -28 124q0 118 104 207q105 90 269 90q115 0 220 -41
q103 -40 169 -117l-116 -98q-107 120 -273 120q-104 0 -160 -46q-57 -47 -57 -113q0 -67 61 -98t187 -60q7 -1 20 -4q72 -16 127 -35q53 -18 107 -49q58 -34 86 -85q28 -52 28 -126q0 -117 -99 -216t-294 -99z" />
    <glyph glyph-name="dotlessj" unicode="&#x237;" horiz-adv-x="436" 
d="M-109 -469v152q157 0 201 43q45 43 45 198v1100h162v-1102q0 -226 -81 -309q-81 -82 -302 -82h-25z" />
    <glyph glyph-name="circumflex" unicode="&#x2c6;" horiz-adv-x="1019" 
d="M199 1143l243 332h136l243 -332h-164l-147 205l-145 -205h-166z" />
    <glyph glyph-name="caron" unicode="&#x2c7;" horiz-adv-x="1019" 
d="M442 1143l-243 332h163l146 -205l147 205h164l-244 -332h-133z" />
    <glyph glyph-name="breve" unicode="&#x2d8;" horiz-adv-x="1019" 
d="M508 1130q-162 0 -246 95t-84 239h135q0 -96 51 -155t144 -60q91 1 142 60q50 58 50 155h140q0 -142 -91 -237q-92 -97 -241 -97z" />
    <glyph glyph-name="dotaccent" unicode="&#x2d9;" horiz-adv-x="1032" 
d="M418 1157v285h157v-285h-157z" />
    <glyph glyph-name="ring" unicode="&#x2da;" horiz-adv-x="1019" 
d="M504 1135q-91 0 -154 64q-63 65 -63 155q0 92 63 156q63 65 154 65q93 0 159 -64q64 -63 64 -157q0 -91 -64 -155t-159 -64zM504 1257q39 0 70 29q30 28 30 68t-30 70t-70 30t-68 -30q-28 -29 -28 -70q0 -40 28 -68q29 -29 68 -29z" />
    <glyph glyph-name="ogonek" unicode="&#x2db;" horiz-adv-x="1019" 
d="M498 -444q-122 0 -199 59q-78 60 -78 147q0 83 66 155q67 73 223 149l127 -68q-158 -95 -206 -138q-50 -44 -50 -89q0 -42 33 -63t84 -21q68 0 151 69l125 -86q-129 -114 -276 -114z" />
    <glyph glyph-name="tilde" unicode="&#x2dc;" horiz-adv-x="1019" 
d="M154 1143q0 112 56 178q57 68 146 68q71 0 166 -56q90 -57 129 -57q80 0 80 106h127q0 -114 -53 -181q-53 -66 -152 -66q-74 0 -186 67q-78 45 -111 45q-75 0 -75 -104h-127z" />
    <glyph glyph-name="hungarumlaut" unicode="&#x2dd;" horiz-adv-x="1019" 
d="M145 1143l240 332h193l-297 -332h-136zM436 1143l242 332h192l-297 -332h-137z" />
    <glyph glyph-name="uni0328" unicode="&#x328;" horiz-adv-x="1019" 
d="M582 -444q-125 0 -188 64q-62 63 -62 159q0 147 194 287l117 -66q-162 -129 -162 -215q0 -40 28 -68q26 -26 73 -26q67 0 131 53l90 -111q-105 -77 -221 -77z" />
    <glyph glyph-name="pi" unicode="&#x3c0;" horiz-adv-x="1538" 
d="M88 1339v156h1364v-156h-295v-929q0 -138 46 -199t155 -61h90v-150h-98q-188 0 -270 102q-83 103 -83 306v931h-481v-1339h-160v1339h-268z" />
    <glyph glyph-name="pi" unicode="&#x3d6;" horiz-adv-x="1538" 
d="M88 1339v156h1364v-156h-295v-929q0 -138 46 -199t155 -61h90v-150h-98q-188 0 -270 102q-83 103 -83 306v931h-481v-1339h-160v1339h-268z" />
    <glyph glyph-name="uni0E3F" unicode="&#xe3f;" horiz-adv-x="1081" 
d="M127 135v1221h340v139h139v-141q162 -7 260 -96q97 -88 97 -230q0 -182 -156 -260q174 -80 174 -285q0 -159 -101 -250q-103 -92 -274 -98v-135h-139v135h-340zM285 688v-407h182v407h-182zM823 485q0 189 -217 201v-405q99 4 158 61q59 56 59 143zM285 1210v-372h182
v372h-182zM805 1028q0 78 -52 126q-53 48 -147 54v-370q98 5 148 56q51 52 51 134z" />
    <glyph glyph-name="Wgrave" unicode="&#x1e80;" horiz-adv-x="2191" 
d="M512 0l-438 1495h170l356 -1247l414 1247h153l410 -1249l377 1249h164l-461 -1495h-162l-408 1245l-411 -1245h-164zM1010 1614l-297 332h202l242 -332h-147z" />
    <glyph glyph-name="wgrave" unicode="&#x1e81;" horiz-adv-x="1769" 
d="M412 0l-338 1024h168l258 -799l303 799h153l312 -803l262 803h166l-346 -1024h-154l-317 805l-310 -805h-157zM809 1143l-297 332h203l241 -332h-147z" />
    <glyph glyph-name="Wacute" unicode="&#x1e82;" horiz-adv-x="2191" 
d="M512 0l-438 1495h170l356 -1247l414 1247h153l410 -1249l377 1249h164l-461 -1495h-162l-408 1245l-411 -1245h-164zM1001 1614l240 332h205l-297 -332h-148z" />
    <glyph glyph-name="wacute" unicode="&#x1e83;" horiz-adv-x="1769" 
d="M412 0l-338 1024h168l258 -799l303 799h153l312 -803l262 803h166l-346 -1024h-154l-317 805l-310 -805h-157zM807 1143l240 332h204l-297 -332h-147z" />
    <glyph glyph-name="Wdieresis" unicode="&#x1e84;" horiz-adv-x="2191" 
d="M512 0l-438 1495h170l356 -1247l414 1247h153l410 -1249l377 1249h164l-461 -1495h-162l-408 1245l-411 -1245h-164zM877 1628v285h157v-285h-157zM1151 1628v285h158v-285h-158z" />
    <glyph glyph-name="wdieresis" unicode="&#x1e85;" horiz-adv-x="1769" 
d="M412 0l-338 1024h168l258 -799l303 799h153l312 -803l262 803h166l-346 -1024h-154l-317 805l-310 -805h-157zM676 1157v285h158v-285h-158zM950 1157v285h158v-285h-158z" />
    <glyph glyph-name="Ygrave" unicode="&#x1ef2;" horiz-adv-x="1267" 
d="M555 0v711l-496 784h179l397 -633l395 633h178l-493 -782v-713h-160zM557 1614l-297 332h203l242 -332h-148z" />
    <glyph glyph-name="ygrave" unicode="&#x1ef3;" horiz-adv-x="1146" 
d="M272 -473l232 532l-443 965h175l352 -782l325 782h172l-645 -1497h-168zM502 1143l-297 332h203l241 -332h-147z" />
    <glyph glyph-name="figuredash" unicode="&#x2012;" horiz-adv-x="1380" 
d="M106 442v140h1168v-140h-1168z" />
    <glyph glyph-name="endash" unicode="&#x2013;" horiz-adv-x="1073" 
d="M106 442v140h861v-140h-861z" />
    <glyph glyph-name="emdash" unicode="&#x2014;" horiz-adv-x="1482" 
d="M106 442v140h1270v-140h-1270z" />
    <glyph glyph-name="uni2015" unicode="&#x2015;" horiz-adv-x="2097" 
d="M106 442v140h1885v-140h-1885z" />
    <glyph glyph-name="doublebar" unicode="&#x2016;" horiz-adv-x="763" 
d="M127 -471v1966h160v-1966h-160zM477 -471v1966h160v-1966h-160z" />
    <glyph glyph-name="quoteleft" unicode="&#x2018;" horiz-adv-x="409" 
d="M233 1495l86 -418h-106l-133 418h153z" />
    <glyph glyph-name="quoteright" unicode="&#x2019;" horiz-adv-x="409" 
d="M193 1077h-107l86 418h154z" />
    <glyph glyph-name="quotesinglbase" unicode="&#x201a;" horiz-adv-x="411" 
d="M170 -240h-107l87 418h153z" />
    <glyph glyph-name="reversequoteleft" unicode="&#x201b;" horiz-adv-x="409" 
d="M193 1077h-107l86 418h154z" />
    <glyph glyph-name="quotedblleft" unicode="&#x201c;" horiz-adv-x="653" 
d="M233 1495l86 -418h-102l-129 418h145zM479 1495l84 -418h-102l-127 418h145z" />
    <glyph glyph-name="quotedblright" unicode="&#x201d;" horiz-adv-x="653" 
d="M193 1077h-107l86 418h154zM438 1077h-106l86 418h153z" />
    <glyph glyph-name="quotedblbase" unicode="&#x201e;" horiz-adv-x="655" 
d="M176 -240h-106l86 418h153zM422 -240h-107l86 418h154z" />
    <glyph glyph-name="reversequotedblleft" unicode="&#x201f;" horiz-adv-x="653" 
d="M193 1077h-107l86 418h154zM438 1077h-106l86 418h153z" />
    <glyph glyph-name="dagger" unicode="&#x2020;" horiz-adv-x="1179" 
d="M127 883v141h381v471h160v-471h387v-141h-387v-883h-160v883h-381z" />
    <glyph glyph-name="daggerdbl" unicode="&#x2021;" horiz-adv-x="1179" 
d="M127 942v139h381v414h160v-414h387v-139h-387v-373h387v-139h-387v-430h-160v430h-381v139h381v373h-381z" />
    <glyph glyph-name="bullet" unicode="&#x2022;" horiz-adv-x="686" 
d="M344 362q-60 0 -105 45q-44 44 -44 105t44 105q45 45 105 45q61 0 106 -45q44 -44 44 -105t-44 -105q-45 -45 -106 -45z" />
    <glyph glyph-name="ellipsis" unicode="&#x2026;" horiz-adv-x="1017" 
d="M127 0v281h160v-281h-160zM428 0v281h162v-281h-162zM731 0v281h160v-281h-160z" />
    <glyph glyph-name="perthousand" unicode="&#x2030;" horiz-adv-x="2582" 
d="M145 0l1285 1495h202l-1284 -1495h-203zM1296 -23q-142 0 -244 102t-102 247q0 144 101 245t245 101q145 0 247 -102t102 -244q0 -145 -102 -247t-247 -102zM1296 111q87 0 148 62t61 153q0 90 -61 151q-62 62 -148 62t-146 -62q-60 -61 -60 -151t60 -153q59 -62 146 -62
zM481 821q-145 0 -247 102q-101 101 -101 246q0 144 101 245q102 102 247 102q143 0 245 -102q101 -101 101 -245t-101 -245q-103 -103 -245 -103zM481 954q87 0 147 63t60 152q0 91 -60 152t-147 61q-86 0 -147 -61q-62 -62 -62 -152q0 -88 62 -152q62 -63 147 -63z
M2101 -23q-142 0 -244 102t-102 247q0 144 102 245q103 101 244 101q145 0 247 -102q101 -101 101 -244q0 -145 -102 -247t-246 -102zM2101 111q87 0 148 62t61 153q0 90 -61 151q-62 62 -148 62t-146 -62q-61 -63 -61 -151q0 -89 61 -153q59 -62 146 -62z" />
    <glyph glyph-name="minute" unicode="&#x2032;" horiz-adv-x="409" 
d="M193 1077h-107l86 418h154z" />
    <glyph glyph-name="second" unicode="&#x2033;" horiz-adv-x="653" 
d="M193 1077h-107l86 418h154zM438 1077h-106l86 418h153z" />
    <glyph glyph-name="tripleprime" unicode="&#x2034;" horiz-adv-x="858" 
d="M166 1024q-45 189 -45 299v172h139v-172q0 -110 -45 -299h-49zM406 1024q-46 193 -46 299v172h140v-172q0 -110 -45 -299h-49zM645 1024q-45 189 -45 299v172h139v-172q0 -110 -45 -299h-49z" />
    <glyph glyph-name="guilsinglleft" unicode="&#x2039;" horiz-adv-x="598" 
d="M459 217l-318 244v102l318 244v-127l-223 -168l223 -168v-127z" />
    <glyph glyph-name="guilsinglright" unicode="&#x203a;" horiz-adv-x="598" 
d="M141 219v125l221 168l-221 170v127l318 -244v-102z" />
    <glyph glyph-name="fraction" unicode="&#x2044;" horiz-adv-x="1372" 
d="M55 0l1080 1495h186l-1079 -1495h-187z" />
    <glyph glyph-name="uni2070" unicode="&#x2070;" horiz-adv-x="995" 
d="M498 618q-185 0 -314 131t-129 314t129 314q129 130 314 130q184 0 313 -130q129 -131 129 -314t-129 -314t-313 -131zM498 758q124 0 213 90q88 89 88 215q0 128 -88 216q-89 89 -213 89q-125 0 -212 -89t-87 -216q0 -125 87 -215t212 -90z" />
    <glyph glyph-name="uni2074" unicode="&#x2074;" horiz-adv-x="776" 
d="M444 631v198h-378v132l372 534h148v-534h125v-132h-125v-198h-142zM221 961h223v317z" />
    <glyph glyph-name="uni2075" unicode="&#x2075;" horiz-adv-x="700" 
d="M350 618q-102 0 -179 47t-114 115l131 80q53 -108 164 -108q64 0 107 43t43 110q0 71 -43 114q-44 44 -109 44q-104 0 -155 -96l-129 61l63 467h475v-135h-360l-29 -213q67 47 147 47q120 0 203 -77q82 -76 82 -212q0 -127 -84 -207q-85 -80 -213 -80z" />
    <glyph glyph-name="uni2076" unicode="&#x2076;" horiz-adv-x="722" 
d="M362 618q-131 0 -220 87q-87 85 -87 210t66 220l231 360h168l-190 -291q40 8 59 8q119 0 200 -85t81 -212q0 -129 -88 -213q-89 -84 -220 -84zM360 750q68 0 118 50t50 120q0 66 -50 116q-49 49 -118 49t-117 -49q-48 -50 -48 -118q0 -70 48 -119t117 -49z" />
    <glyph glyph-name="uni2077" unicode="&#x2077;" horiz-adv-x="669" 
d="M133 631l320 727h-390v137h541v-125l-317 -739h-154z" />
    <glyph glyph-name="uni2078" unicode="&#x2078;" horiz-adv-x="692" 
d="M346 618q-125 0 -200 77q-74 75 -74 190q0 131 110 202q-84 61 -84 177q0 99 70 172q68 71 178 71q107 0 178 -71q72 -72 72 -172q0 -113 -88 -174q110 -71 110 -205q0 -114 -73 -190q-74 -77 -199 -77zM344 750q59 0 96 38t37 97q0 57 -36 96t-97 39q-59 0 -95 -39
t-36 -96q0 -58 36 -97q35 -38 95 -38zM344 1153q49 0 78 31t29 80q0 46 -29 78t-78 32q-48 0 -75 -32t-27 -78q0 -50 27 -80q28 -31 75 -31z" />
    <glyph glyph-name="uni2079" unicode="&#x2079;" horiz-adv-x="722" 
d="M201 631l192 293q-32 -9 -59 -9q-116 0 -199 84q-82 83 -82 211q0 129 88 213q89 84 219 84q131 0 220 -86q88 -85 88 -211q0 -118 -66 -219l-229 -360h-172zM362 1040q69 0 118 51q48 49 48 119t-48 119t-118 49q-68 0 -118 -50q-49 -49 -49 -120q0 -69 49 -118
q50 -50 118 -50z" />
    <glyph glyph-name="uni207A" unicode="&#x207a;" horiz-adv-x="575" 
d="M70 1004v120h159v156h119v-156h158v-120h-158v-160h-119v160h-159z" />
    <glyph glyph-name="uni207B" unicode="&#x207b;" horiz-adv-x="575" 
d="M70 1004v120h436v-120h-436z" />
    <glyph glyph-name="uni207C" unicode="&#x207c;" horiz-adv-x="575" 
d="M70 1098v121h436v-121h-436zM70 901v121h436v-121h-436z" />
    <glyph glyph-name="uni207D" unicode="&#x207d;" horiz-adv-x="552" 
d="M371 510q-316 220 -316 569q0 342 312 570l94 -117q-258 -176 -258 -453q0 -271 260 -450z" />
    <glyph glyph-name="uni207E" unicode="&#x207e;" horiz-adv-x="552" 
d="M182 510l-92 119q260 179 260 450q0 277 -258 453l94 117q152 -115 232 -250q80 -136 80 -320q0 -349 -316 -569z" />
    <glyph glyph-name="uni2080" unicode="&#x2080;" horiz-adv-x="995" 
d="M498 -12q-185 0 -314 130t-129 314t129 314q129 131 314 131q184 0 313 -131q129 -130 129 -314t-129 -314t-313 -130zM498 127q124 0 213 90q88 89 88 215q0 128 -88 216q-89 89 -213 89q-125 0 -212 -89q-87 -88 -87 -216q0 -125 87 -215t212 -90z" />
    <glyph glyph-name="uni2081" unicode="&#x2081;" horiz-adv-x="600" 
d="M66 0v137h172v502q-17 -27 -60 -48q-42 -20 -82 -20h-14v152h6q79 0 116 43q38 44 38 98h139v-727h164v-137h-479z" />
    <glyph glyph-name="uni2082" unicode="&#x2082;" horiz-adv-x="692" 
d="M72 0v135q0 67 39 130t78 96q37 31 112 83q121 84 148 121q26 33 26 72q0 49 -36 82t-97 33q-106 0 -162 -123l-123 61q84 187 285 187q124 0 202 -70q77 -69 77 -172q0 -64 -37 -122q-38 -59 -74 -88t-109 -79q-80 -55 -93 -65q-30 -23 -60 -63q-31 -42 -31 -81h406
v-137h-551z" />
    <glyph glyph-name="uni2083" unicode="&#x2083;" horiz-adv-x="657" 
d="M313 -12q-173 0 -278 123l123 92q60 -84 155 -84q63 0 104 36q40 36 40 93q0 60 -45 94q-46 35 -119 35h-88v135h88q70 0 111 35q40 34 40 88t-37 85q-38 32 -102 32q-92 0 -143 -88l-121 67q38 69 107 107q70 39 157 39q127 0 202 -66t75 -174q0 -122 -105 -188
q123 -66 123 -201q0 -116 -77 -188t-210 -72z" />
    <glyph glyph-name="uni2084" unicode="&#x2084;" horiz-adv-x="776" 
d="M444 0v199h-378v131l372 534h148v-534h125v-131h-125v-199h-142zM221 330h223v317z" />
    <glyph glyph-name="uni2085" unicode="&#x2085;" horiz-adv-x="700" 
d="M350 -12q-103 0 -179 46t-114 116l131 79q53 -108 164 -108q64 0 107 43t43 110q0 71 -43 114q-44 44 -109 44q-104 0 -155 -96l-129 61l63 467h475v-135h-360l-29 -213q67 47 147 47q120 0 203 -77q82 -76 82 -212q0 -126 -84 -206q-85 -80 -213 -80z" />
    <glyph glyph-name="uni2086" unicode="&#x2086;" horiz-adv-x="722" 
d="M362 -12q-132 0 -220 86q-87 86 -87 211t66 219l231 360h168l-190 -291q45 9 59 9q119 0 200 -85t81 -212q0 -129 -88 -213q-89 -84 -220 -84zM360 119q68 0 118 50t50 120q0 67 -50 117q-49 49 -118 49t-117 -49q-48 -50 -48 -119t48 -119q48 -49 117 -49z" />
    <glyph glyph-name="uni2087" unicode="&#x2087;" horiz-adv-x="669" 
d="M133 0l320 727h-390v137h541v-125l-317 -739h-154z" />
    <glyph glyph-name="uni2088" unicode="&#x2088;" horiz-adv-x="692" 
d="M346 -12q-125 0 -200 77q-74 75 -74 189q0 132 110 203q-84 61 -84 176q0 99 70 172q69 72 178 72q106 0 178 -72t72 -172q0 -113 -88 -174q110 -71 110 -205q0 -113 -73 -189q-74 -77 -199 -77zM344 119q58 0 96 39q37 38 37 96q0 57 -36 96t-97 39q-59 0 -95 -39
t-36 -96t36 -96t95 -39zM344 522q49 0 78 31t29 80q0 47 -29 79q-28 31 -78 31q-48 0 -75 -31q-27 -32 -27 -79q0 -50 27 -80q28 -31 75 -31z" />
    <glyph glyph-name="uni2089" unicode="&#x2089;" horiz-adv-x="722" 
d="M201 0l192 293q-29 -8 -59 -8q-116 0 -199 84q-82 83 -82 211q0 129 88 213q89 84 219 84q131 0 220 -86q88 -85 88 -211q0 -120 -66 -220l-229 -360h-172zM362 410q70 0 118 50t48 120q0 68 -48 118t-118 50q-67 0 -118 -51q-49 -49 -49 -119t49 -119t118 -49z" />
    <glyph glyph-name="uni208A" unicode="&#x208a;" horiz-adv-x="575" 
d="M70 373v121h159v155h119v-155h158v-121h-158v-160h-119v160h-159z" />
    <glyph glyph-name="uni208B" unicode="&#x208b;" horiz-adv-x="575" 
d="M70 373v121h436v-121h-436z" />
    <glyph glyph-name="uni208C" unicode="&#x208c;" horiz-adv-x="575" 
d="M70 467v121h436v-121h-436zM70 270v121h436v-121h-436z" />
    <glyph glyph-name="uni208D" unicode="&#x208d;" horiz-adv-x="552" 
d="M371 -121q-316 220 -316 570q0 341 312 569l94 -117q-258 -175 -258 -452q0 -272 260 -451z" />
    <glyph glyph-name="uni208E" unicode="&#x208e;" horiz-adv-x="552" 
d="M182 -121l-92 119q260 179 260 451q0 277 -258 452l94 117q152 -115 232 -250q80 -136 80 -319q0 -350 -316 -570z" />
    <glyph glyph-name="uni20A1" unicode="&#x20a1;" horiz-adv-x="1605" 
d="M391 -246h-133l154 375q-147 109 -229 269q-83 161 -83 350q0 316 226 542t542 226q51 0 107 -9l88 213h137l-100 -241q64 -21 110 -45l119 286h137l-145 -354q128 -94 213 -236l-137 -79q-52 95 -137 168l-447 -1086q24 -2 55 -2q188 0 329 90q139 89 216 246l141 -74
q-101 -191 -279 -302q-179 -111 -407 -111q-55 0 -114 10l-97 -236h-135l107 262q-54 17 -111 47zM264 748q0 -283 209 -469l442 1083q-13 0 -23 1t-24 1q-256 0 -430 -180t-174 -436zM575 205q54 -29 113 -47l465 1134q-49 28 -111 45z" />
    <glyph glyph-name="uni20A2" unicode="&#x20a2;" horiz-adv-x="1605" 
d="M868 -20q-317 0 -542 225q-226 226 -226 543q0 316 226 542t542 226q209 0 386 -105q178 -106 280 -281l-137 -79q-77 143 -218 228q-140 85 -311 85q-256 0 -430 -180t-174 -436q0 -230 144 -403q145 -174 364 -208v703h158v-148q86 148 284 148h136v-148h-136
q-154 0 -218 -82t-64 -264v-213q165 15 289 104q123 88 192 230l141 -74q-101 -191 -279 -302q-179 -111 -407 -111z" />
    <glyph glyph-name="franc" unicode="&#x20a3;" horiz-adv-x="1095" 
d="M127 0v1495h846v-152h-686v-350h686v-147h-686v-197h686v-147h-686v-502h-160z" />
    <glyph glyph-name="lira" unicode="&#x20a4;" horiz-adv-x="1390" 
d="M145 874v130h193q-8 46 -8 108q0 185 116 294q118 110 310 110q262 0 420 -203l-129 -99q-50 81 -120 122q-68 40 -173 40q-123 0 -194 -71q-73 -73 -73 -191q0 -50 11 -110h460v-130h-421q22 -58 65 -147h356v-129h-299q50 -124 50 -229q0 -70 -23 -144
q128 -116 236 -116q102 0 150 60t48 202v41h162v-62q0 -370 -344 -370q-160 0 -309 133q-100 -133 -275 -133q-135 0 -202 61q-68 62 -68 162q0 95 68 157t180 62q123 0 246 -98q0 10 1 18t1 18q0 97 -68 238h-367v129h297q-51 95 -69 147h-228zM352 104q121 0 185 97
q-107 96 -199 96q-115 0 -115 -96q0 -43 36 -70t93 -27z" />
    <glyph glyph-name="uni20A6" unicode="&#x20a6;" horiz-adv-x="1689" 
d="M72 817v125h164v553h172l391 -553h495v553h160v-553h164v-125h-164v-155h164v-125h-164v-537h-164l-381 537h-514v-537h-159v537h-164v125h164v155h-164zM395 817v-155h426l-110 155h-316zM889 817l110 -155h295v155h-405zM621 942l-226 318v-318h226zM1087 537l207 -291
v291h-207z" />
    <glyph glyph-name="peseta" unicode="&#x20a7;" horiz-adv-x="2619" 
d="M2122 0h-461q-223 0 -301 81t-78 310v490h-154q-33 -185 -178 -300q-146 -116 -356 -116h-307v-465h-160v1495h467q228 0 377 -133q150 -133 166 -338h145v242l160 88v-330h241v-143h-241v-488q0 -155 44 -199t197 -44h445q113 0 172 43t59 116q0 46 -38 76
q-37 30 -75 42q-33 10 -122 28q-17 4 -29 6q-73 15 -126 32q-43 14 -105 46q-57 30 -86 84q-29 53 -29 127q0 119 103 207q105 90 270 90q115 0 220 -41q103 -40 169 -117l-117 -98q-107 120 -272 120q-104 0 -160 -46q-57 -47 -57 -113q0 -46 40 -77q41 -32 76 -43
q38 -12 127 -30q12 -3 27 -6q59 -11 101 -24q49 -15 91 -33q48 -21 81 -51q32 -29 52 -73q21 -46 21 -106q0 -138 -95 -224q-94 -85 -304 -85zM584 1348h-297v-734h297q179 0 286 104t107 263t-107 263t-286 104z" />
    <glyph glyph-name="uni20A8" unicode="&#x20a8;" horiz-adv-x="2017" 
d="M1485 -25q-196 0 -358 53q-161 53 -283 154q-125 104 -212 220q-88 118 -177 282h116q163 0 263 101t100 235q0 144 -98 235q-101 93 -263 93h-286v-1348h-160v1495h459q216 0 362 -137t146 -338q0 -168 -105 -297t-280 -162q91 -135 192 -228q100 -93 251 -156
q148 -62 329 -62q142 0 212 51t70 129q0 47 -39 79q-39 31 -77 43q-21 6 -125 32q-26 7 -35 8q-74 17 -125 36q-52 19 -105 49q-55 31 -82 84q-28 54 -28 124q0 119 103 207q105 90 270 90q115 0 220 -41q103 -40 169 -117l-117 -98q-107 120 -272 120q-104 0 -160 -46
q-57 -47 -57 -113q0 -67 61 -98q62 -32 186 -60q8 -1 21 -4q72 -17 127 -35q50 -17 106 -49q58 -34 86 -85q29 -53 29 -126q0 -133 -105 -226q-106 -94 -329 -94z" />
    <glyph glyph-name="uni20A9" unicode="&#x20a9;" horiz-adv-x="2252" 
d="M72 817v125h198l-161 553h170l157 -553h428l185 553h153l180 -553h441l166 553h163l-170 -553h199v-125h-237l-50 -155h287v-125h-326l-163 -537h-162l-174 537h-467l-178 -537h-164l-158 537h-317v125h280l-45 155h-235zM981 817l-51 -155h385l-51 155h-283zM1423 817
l52 -155h264l47 155h-363zM473 817l43 -155h256l51 155h-350zM1122 1245l-100 -303h201zM1516 537l96 -293l88 293h-184zM553 537l82 -289l96 289h-178z" />
    <glyph glyph-name="uni20AA" unicode="&#x20aa;" horiz-adv-x="1468" 
d="M127 0v1495h405q232 0 346 -119q113 -117 113 -385v-522q0 -92 -35 -130t-125 -38v690q0 191 -67 273t-225 82h-252v-1346h-160zM477 0v1167q90 0 125 -38t35 -130v-849h260q156 0 220 80q65 82 65 274v991h159v-991q0 -269 -110 -386q-111 -118 -340 -118h-414z" />
    <glyph glyph-name="Euro" unicode="&#x20ac;" 
d="M59 907v127h129q1 207 135 345q132 137 341 137q227 0 358 -152l-109 -100q-82 106 -247 106q-154 0 -235 -90q-82 -91 -83 -246h533l-23 -127h-510v-319h459l-21 -127h-438v-6q0 -159 79 -244q80 -86 235 -86q177 0 260 117l122 -101q-127 -161 -380 -161
q-231 0 -353 126q-123 128 -123 347v8h-129v127h129v319h-129z" />
    <glyph glyph-name="uni20AE" unicode="&#x20ae;" horiz-adv-x="1255" 
d="M266 698v125l283 115v410h-451v147h1059v-147h-448v-344l280 116v-125l-280 -116v-172l280 116v-125l-280 -116v-582h-160v516l-283 -115v125l283 115v172z" />
    <glyph glyph-name="uni20B1" unicode="&#x20b1;" horiz-adv-x="1464" 
d="M72 1057v125h164v313h466q182 0 315 -85q135 -86 191 -228h185v-125h-152q6 -38 6 -76q0 -43 -6 -80h152v-125h-185q-60 -144 -192 -227q-134 -84 -314 -84h-307v-465h-159v776h-164v125h164v156h-164zM1085 981q0 23 -8 76h-682v-156h682q8 53 8 80zM692 1348h-297v-166
h635q-105 166 -338 166zM692 614q229 0 334 162h-631v-162h297z" />
    <glyph glyph-name="published" unicode="&#x2117;" horiz-adv-x="1734" 
d="M868 -256q-317 0 -542 225q-226 226 -226 543t226 543q225 225 542 225q318 0 543 -225t225 -543t-225 -543t-543 -225zM868 -115q260 0 438 184q177 183 177 443t-177 443q-178 184 -438 184q-259 0 -437 -184q-177 -183 -177 -443t177 -443q178 -184 437 -184zM598 123
v788h340q124 0 206 -80q81 -79 81 -198q0 -124 -76 -209q-77 -86 -207 -86h-194v-215h-150zM920 782h-172v-309h172q68 0 112 47q43 46 43 113q0 65 -44 107q-43 42 -111 42z" />
    <glyph glyph-name="servicemark" unicode="&#x2120;" horiz-adv-x="1333" 
d="M569 901v594h109l217 -289l227 289h101v-594h-117v402l-211 -261l-211 263v-404h-115zM270 887q-146 0 -215 100l105 76q43 -72 108 -72q34 0 59 23q23 22 23 59q0 29 -27 47q-29 20 -68 31q-38 11 -80 30q-41 18 -67 56q-28 40 -28 98q0 71 53 115q52 43 131 43
q117 0 191 -86l-105 -68q-30 50 -90 50q-31 0 -52 -16q-20 -15 -20 -40q0 -32 43 -53q40 -19 97 -34q52 -14 96 -57q43 -43 43 -116q0 -78 -54 -132t-143 -54z" />
    <glyph glyph-name="trademark" unicode="&#x2122;" horiz-adv-x="1398" 
d="M635 901v594h108l218 -289l227 289h100v-594h-117v402l-210 -261l-211 263v-404h-115zM272 901v488h-188v106h489v-106h-186v-488h-115z" />
    <glyph glyph-name="uni2153" unicode="&#x2153;" horiz-adv-x="1697" 
d="M223 0l1080 1495h186l-1079 -1495h-187zM1354 -12q-174 0 -279 123l123 92q60 -84 156 -84q62 0 103 36q40 36 40 93q0 60 -45 94q-46 35 -119 35h-88v135h88q71 0 112 35q40 34 40 88q0 53 -38 85t-101 32q-93 0 -144 -88l-121 67q38 68 108 107q71 39 157 39
q126 0 201 -66t75 -174q0 -123 -104 -188q122 -65 122 -201q0 -116 -76 -188t-210 -72zM66 631v137h172v502q-17 -27 -60 -48q-42 -20 -82 -20h-14v152h6q79 0 116 43q38 44 38 98h139v-727h164v-137h-479z" />
    <glyph glyph-name="uni2154" unicode="&#x2154;" horiz-adv-x="1697" 
d="M223 0l1080 1495h186l-1079 -1495h-187zM72 631v135q0 67 39 130t78 96q37 31 112 83q121 84 148 121q26 33 26 72q0 49 -36 82q-35 32 -97 32q-107 0 -162 -122l-123 61q84 186 285 186q126 0 202 -69q77 -69 77 -172q0 -64 -37 -122q-38 -59 -74 -88t-109 -79
q-63 -43 -93 -66q-32 -24 -60 -62q-31 -42 -31 -81h406v-137h-551zM1354 -12q-174 0 -279 123l123 92q60 -84 156 -84q62 0 103 36q40 36 40 93q0 60 -45 94q-46 35 -119 35h-88v135h88q71 0 112 35q40 34 40 88q0 53 -38 85t-101 32q-93 0 -144 -88l-121 67q38 68 108 107
q71 39 157 39q126 0 201 -66t75 -174q0 -123 -104 -188q122 -65 122 -201q0 -116 -76 -188t-210 -72z" />
    <glyph glyph-name="uni2155" unicode="&#x2155;" horiz-adv-x="1740" 
d="M223 0l1080 1495h186l-1079 -1495h-187zM1391 -12q-104 0 -180 46q-75 45 -113 116l131 79q53 -108 164 -108q63 0 106 43t43 110q0 71 -43 114q-44 44 -108 44q-105 0 -156 -96l-129 61l63 467h476v-135h-361l-29 -213q67 47 148 47q120 0 203 -77q82 -76 82 -212
q0 -126 -84 -206q-85 -80 -213 -80zM66 631v137h172v502q-17 -27 -60 -48q-42 -20 -82 -20h-14v152h6q79 0 116 43q38 44 38 98h139v-727h164v-137h-479z" />
    <glyph glyph-name="uni2156" unicode="&#x2156;" horiz-adv-x="1740" 
d="M223 0l1080 1495h186l-1079 -1495h-187zM1391 -12q-104 0 -180 46q-75 45 -113 116l131 79q53 -108 164 -108q63 0 106 43t43 110q0 71 -43 114q-44 44 -108 44q-105 0 -156 -96l-129 61l63 467h476v-135h-361l-29 -213q67 47 148 47q120 0 203 -77q82 -76 82 -212
q0 -126 -84 -206q-85 -80 -213 -80zM72 631v135q0 67 39 130t78 96q37 31 112 83q121 84 148 121q26 33 26 72q0 49 -36 82q-35 32 -97 32q-107 0 -162 -122l-123 61q84 186 285 186q126 0 202 -69q77 -69 77 -172q0 -64 -37 -122q-38 -59 -74 -88t-109 -79q-63 -43 -93 -66
q-32 -24 -60 -62q-31 -42 -31 -81h406v-137h-551z" />
    <glyph glyph-name="uni2157" unicode="&#x2157;" horiz-adv-x="1740" 
d="M223 0l1080 1495h186l-1079 -1495h-187zM1391 -12q-104 0 -180 46q-75 45 -113 116l131 79q53 -108 164 -108q63 0 106 43t43 110q0 71 -43 114q-44 44 -108 44q-105 0 -156 -96l-129 61l63 467h476v-135h-361l-29 -213q67 47 148 47q120 0 203 -77q82 -76 82 -212
q0 -126 -84 -206q-85 -80 -213 -80zM313 618q-173 0 -278 123l123 93q60 -84 155 -84q65 0 104 35q40 36 40 94q0 59 -45 94q-46 35 -119 35h-88v135h88q70 0 111 35q40 34 40 88t-37 85t-102 31q-92 0 -143 -88l-121 68q38 68 107 106q71 39 157 39q128 0 202 -65
q75 -66 75 -174q0 -123 -105 -189q123 -66 123 -200q0 -116 -77 -188q-78 -73 -210 -73z" />
    <glyph glyph-name="uni2158" unicode="&#x2158;" horiz-adv-x="1740" 
d="M444 631v198h-378v132l372 534h148v-534h125v-132h-125v-198h-142zM223 0l1080 1495h186l-1079 -1495h-187zM1391 -12q-104 0 -180 46q-75 45 -113 116l131 79q53 -108 164 -108q63 0 106 43t43 110q0 71 -43 114q-44 44 -108 44q-105 0 -156 -96l-129 61l63 467h476
v-135h-361l-29 -213q67 47 148 47q120 0 203 -77q82 -76 82 -212q0 -126 -84 -206q-85 -80 -213 -80zM221 961h223v317z" />
    <glyph glyph-name="uni2159" unicode="&#x2159;" horiz-adv-x="1619" 
d="M1260 -12q-133 0 -221 86q-87 85 -87 211q0 125 66 219l231 360h168l-190 -291q45 9 59 9q119 0 200 -85t81 -212q0 -129 -88 -213q-89 -84 -219 -84zM223 0l1080 1495h186l-1079 -1495h-187zM66 631v137h172v502q-17 -27 -60 -48q-42 -20 -82 -20h-14v152h6q79 0 116 43
q38 44 38 98h139v-727h164v-137h-479zM1257 119q68 0 118 50t50 120q0 67 -50 117q-49 49 -118 49t-117 -49t-48 -119q0 -69 48 -119q48 -49 117 -49z" />
    <glyph glyph-name="uni215A" unicode="&#x215a;" horiz-adv-x="1619" 
d="M1260 -12q-133 0 -221 86q-87 85 -87 211q0 125 66 219l231 360h168l-190 -291q45 9 59 9q119 0 200 -85t81 -212q0 -129 -88 -213q-89 -84 -219 -84zM223 0l1080 1495h186l-1079 -1495h-187zM350 618q-102 0 -179 47t-114 115l131 80q53 -108 164 -108q64 0 107 43
t43 110q0 71 -43 114q-44 44 -109 44q-104 0 -155 -96l-129 61l63 467h475v-135h-360l-29 -213q67 47 147 47q120 0 203 -77q82 -76 82 -212q0 -127 -84 -207q-85 -80 -213 -80zM1257 119q68 0 118 50t50 120q0 67 -50 117q-49 49 -118 49t-117 -49t-48 -119q0 -69 48 -119
q48 -49 117 -49z" />
    <glyph glyph-name="uni215B" unicode="&#x215b;" horiz-adv-x="1732" 
d="M1386 -12q-124 0 -199 77t-75 189q0 131 111 203q-84 61 -84 176q0 100 69 172t178 72q107 0 179 -72q71 -71 71 -172q0 -113 -88 -174q111 -72 111 -205q0 -112 -74 -189t-199 -77zM223 0l1080 1495h186l-1079 -1495h-187zM66 631v137h172v502q-17 -27 -60 -48
q-42 -20 -82 -20h-14v152h6q79 0 116 43q38 44 38 98h139v-727h164v-137h-479zM1384 119q60 0 97 39q37 38 37 96q0 57 -36 96t-98 39q-59 0 -95 -39t-36 -96t36 -96t95 -39zM1384 522q49 0 78 31t29 80q0 47 -29 79q-28 31 -78 31q-47 0 -74 -31q-28 -33 -28 -79
q0 -49 28 -80t74 -31z" />
    <glyph glyph-name="uni215C" unicode="&#x215c;" horiz-adv-x="1732" 
d="M1386 -12q-124 0 -199 77t-75 189q0 131 111 203q-84 61 -84 176q0 100 69 172t178 72q107 0 179 -72q71 -71 71 -172q0 -113 -88 -174q111 -72 111 -205q0 -112 -74 -189t-199 -77zM223 0l1080 1495h186l-1079 -1495h-187zM313 618q-173 0 -278 123l123 93
q60 -84 155 -84q65 0 104 35q40 36 40 94q0 59 -45 94q-46 35 -119 35h-88v135h88q70 0 111 35q40 34 40 88t-37 85t-102 31q-92 0 -143 -88l-121 68q38 68 107 106q71 39 157 39q128 0 202 -65q75 -66 75 -174q0 -123 -105 -189q123 -66 123 -200q0 -116 -77 -188
q-78 -73 -210 -73zM1384 119q60 0 97 39q37 38 37 96q0 57 -36 96t-98 39q-59 0 -95 -39t-36 -96t36 -96t95 -39zM1384 522q49 0 78 31t29 80q0 47 -29 79q-28 31 -78 31q-47 0 -74 -31q-28 -33 -28 -79q0 -49 28 -80t74 -31z" />
    <glyph glyph-name="uni215D" unicode="&#x215d;" horiz-adv-x="1732" 
d="M1386 -12q-124 0 -199 77t-75 189q0 131 111 203q-84 61 -84 176q0 100 69 172t178 72q107 0 179 -72q71 -71 71 -172q0 -113 -88 -174q111 -72 111 -205q0 -112 -74 -189t-199 -77zM223 0l1080 1495h186l-1079 -1495h-187zM350 618q-102 0 -179 47t-114 115l131 80
q53 -108 164 -108q64 0 107 43t43 110q0 71 -43 114q-44 44 -109 44q-104 0 -155 -96l-129 61l63 467h475v-135h-360l-29 -213q67 47 147 47q120 0 203 -77q82 -76 82 -212q0 -127 -84 -207q-85 -80 -213 -80zM1384 119q60 0 97 39q37 38 37 96q0 57 -36 96t-98 39
q-59 0 -95 -39t-36 -96t36 -96t95 -39zM1384 522q49 0 78 31t29 80q0 47 -29 79q-28 31 -78 31q-47 0 -74 -31q-28 -33 -28 -79q0 -49 28 -80t74 -31z" />
    <glyph glyph-name="uni215E" unicode="&#x215e;" horiz-adv-x="1568" 
d="M1223 -12q-125 0 -200 77t-75 189q0 131 111 203q-84 61 -84 176q0 100 69 172t179 72q106 0 178 -72t72 -172q0 -112 -89 -174q111 -72 111 -205q0 -112 -74 -189t-198 -77zM59 0l1080 1495h186l-1079 -1495h-187zM133 631l320 727h-390v137h541v-125l-317 -739h-154z
M1221 119q59 0 96 39q37 38 37 96q0 57 -36 96t-97 39q-60 0 -96 -39q-35 -38 -35 -96t35 -96q36 -39 96 -39zM1221 522q48 0 77 31t29 80q0 47 -29 79q-28 31 -77 31q-48 0 -75 -31q-28 -33 -28 -79q0 -49 28 -80t75 -31z" />
    <glyph glyph-name="uni215F" unicode="&#x215f;" horiz-adv-x="1540" 
d="M223 0l1080 1495h186l-1079 -1495h-187zM66 631v137h172v502q-17 -27 -60 -48q-42 -20 -82 -20h-14v152h6q79 0 116 43q38 44 38 98h139v-727h164v-137h-479z" />
    <glyph glyph-name="arrowleft" unicode="&#x2190;" horiz-adv-x="1835" 
d="M528 240q-73 138 -186 266q-114 129 -240 199v96q127 71 240 198q112 127 186 267l134 -88q-51 -88 -143 -190q-89 -98 -171 -159h1340v-153h-1340q83 -60 172 -159q91 -100 142 -189z" />
    <glyph glyph-name="arrowup" unicode="&#x2191;" horiz-adv-x="1835" 
d="M815 0v1292q-58 -76 -159 -169q-94 -86 -185 -138l-88 133q135 71 266 187q130 115 199 239h96q69 -124 199 -239q131 -116 266 -187l-88 -133q-91 53 -189 141q-98 89 -157 170v-1296h-160z" />
    <glyph glyph-name="arrowright" unicode="&#x2192;" horiz-adv-x="1835" 
d="M1260 240l-132 88q49 87 141 189q88 96 173 159h-1340v153h1338q-193 145 -312 347l136 90q69 -136 184 -268q112 -128 240 -199v-94q-124 -69 -241 -198q-114 -126 -187 -267z" />
    <glyph glyph-name="arrowdown" unicode="&#x2193;" horiz-adv-x="1835" 
d="M846 -49q-69 124 -199 239q-131 116 -266 187l88 133q90 -51 185 -137q98 -88 157 -168v1290h160v-1298q64 88 157 171q101 90 191 142l88 -133q-135 -71 -266 -187q-130 -115 -199 -239h-96z" />
    <glyph glyph-name="uni2196" unicode="&#x2196;" horiz-adv-x="1835" 
d="M1401 137l-946 944q14 -90 8 -228q-6 -135 -33 -237l-156 33q49 153 56 314q8 171 -29 315l68 70q151 -39 317 -30q164 9 313 56l31 -155q-107 -29 -239 -35q-138 -6 -230 10l950 -948z" />
    <glyph glyph-name="uni2197" unicode="&#x2197;" horiz-adv-x="1835" 
d="M389 135l-108 111l944 944q-241 -34 -465 27l33 155q149 -48 313 -55q171 -8 315 29l70 -68q-39 -151 -30 -317q9 -161 57 -314l-156 -31q-62 230 -25 469z" />
    <glyph glyph-name="uni2198" unicode="&#x2198;" horiz-adv-x="1835" 
d="M1421 156q-148 38 -317 29q-164 -9 -313 -56l-31 156q98 26 238 32q141 6 231 -8l-950 948l110 109l944 -946q-14 90 -8 228q6 132 35 239l156 -33q-49 -153 -56 -313q-8 -172 29 -316z" />
    <glyph glyph-name="uni2199" unicode="&#x2199;" horiz-adv-x="1835" 
d="M997 131q-149 48 -313 55q-175 8 -315 -28l-70 67q39 151 30 318q-9 160 -57 313l156 31q27 -105 33 -240q6 -140 -8 -229l948 950l108 -111l-946 -946q239 33 467 -24z" />
    <glyph glyph-name="partialdiff" unicode="&#x2202;" horiz-adv-x="1236" 
d="M616 -10q-214 0 -361 143q-149 144 -149 356q0 213 145 358q144 144 347 144q182 0 289 -98q-155 271 -627 602h244q626 -487 626 -1006q0 -211 -147 -355t-367 -144zM621 135q143 0 246 105q104 106 104 249t-103 249t-247 106q-145 0 -250 -105t-105 -250
q0 -144 105 -249t250 -105z" />
    <glyph glyph-name="increment" unicode="&#x2206;" horiz-adv-x="1837" 
d="M1796 0h-1755l879 1520zM920 1206l-607 -1052h1213z" />
    <glyph glyph-name="product" unicode="&#x220f;" horiz-adv-x="1538" 
d="M88 1339v156h1364v-156h-270v-1339h-160v1339h-506v-1339h-160v1339h-268z" />
    <glyph glyph-name="summation" unicode="&#x2211;" horiz-adv-x="1153" 
d="M72 0v164l536 612l-516 557v162h989v-152h-788l520 -569l-547 -620h815v-154h-1009z" />
    <glyph glyph-name="minus" unicode="&#x2212;" horiz-adv-x="968" 
d="M106 680v137h758v-137h-758z" />
    <glyph glyph-name="radical" unicode="&#x221a;" horiz-adv-x="1615" 
d="M621 0l-332 862h-197v162h311l320 -856l610 1327h176l-698 -1495h-190z" />
    <glyph glyph-name="infinity" unicode="&#x221e;" horiz-adv-x="1925" 
d="M514 438q-145 0 -248 103q-102 102 -102 245q0 144 102 246q103 103 248 103q108 0 215 -65q106 -64 236 -179q130 117 232 179q106 65 214 65q144 0 247 -103q101 -101 101 -246q0 -144 -101 -245q-103 -103 -247 -103q-105 0 -212 67q-108 68 -236 187
q-126 -117 -237 -187q-107 -67 -212 -67zM516 580q72 0 151 52q82 54 191 156q-219 201 -342 201q-82 0 -143 -61q-62 -62 -62 -144q0 -81 62 -143q61 -61 143 -61zM1409 584q82 0 143 61t60 143q0 81 -61 144q-60 61 -142 61q-74 0 -152 -51q-82 -53 -186 -149
q117 -108 189 -156q79 -53 149 -53z" />
    <glyph glyph-name="integral" unicode="&#x222b;" horiz-adv-x="720" 
d="M-2 -393v145q160 0 202 45t42 203v1104q0 227 82 309t307 82h14v-145q-160 0 -202 -44t-42 -204v-1102q0 -229 -82 -311t-307 -82h-14z" />
    <glyph glyph-name="approxequal" unicode="&#x2248;" horiz-adv-x="942" 
d="M92 829v142q112 53 199 53q62 0 187 -39q124 -39 175 -39q80 0 197 51v-141q-90 -51 -197 -51q-59 0 -185 39t-177 39q-82 0 -199 -54zM92 487v142q113 55 193 55q61 0 192 -38t180 -38q85 0 193 47v-141q-83 -47 -193 -47q-58 0 -190 38t-182 38q-73 0 -193 -56z" />
    <glyph glyph-name="notequal" unicode="&#x2260;" horiz-adv-x="968" 
d="M729 1118l-67 -139h202v-137h-270l-96 -197h366v-135h-432l-63 -133h-146l64 133h-181v135h246l97 197h-343v137h410l68 139h145z" />
    <glyph glyph-name="equivalence" unicode="&#x2261;" horiz-adv-x="968" 
d="M106 676v135h758v-135h-758zM106 346v133h758v-133h-758zM106 1008v137h758v-137h-758z" />
    <glyph glyph-name="lessequal" unicode="&#x2264;" horiz-adv-x="968" 
d="M862 553l-758 291v137l758 285v-142l-590 -213l590 -217v-141zM104 326v137h758v-137h-758z" />
    <glyph glyph-name="greaterequal" unicode="&#x2265;" horiz-adv-x="968" 
d="M104 553v141l590 217l-590 213v142l758 -285v-137zM104 326v137h758v-137h-758z" />
    <glyph glyph-name="squaremultiply" unicode="&#x22a0;" horiz-adv-x="1896" 
d="M205 0v1495h1487v-1495h-1487zM365 1341v-1187h1167v1187h-1167zM659 348l-94 94l293 306l-297 311l94 94l295 -309l295 309l94 -94l-297 -311l289 -302l-94 -94l-287 299z" />
    <glyph glyph-name="house" unicode="&#x2302;" horiz-adv-x="1789" 
d="M1585 0h-1380v874l690 662l690 -662v-874z" />
    <glyph glyph-name="blacksquare" unicode="&#x25a0;" horiz-adv-x="1896" 
d="M205 0v1495h1487v-1495h-1487z" />
    <glyph glyph-name="blacksquare" unicode="&#xe740;" horiz-adv-x="1896" 
d="M205 0v1495h1487v-1495h-1487z" />
    <glyph glyph-name="whitesquare" unicode="&#x25a1;" horiz-adv-x="1896" 
d="M205 0v1495h1487v-1495h-1487zM365 1341v-1187h1167v1187h-1167z" />
    <glyph glyph-name="blacksmallsquare" unicode="&#x25aa;" horiz-adv-x="1433" 
d="M205 0v1024h1024v-1024h-1024z" />
    <glyph glyph-name="whitesmallsquare" unicode="&#x25ab;" horiz-adv-x="1433" 
d="M205 0v1024h1024v-1024h-1024zM365 870v-716h704v716h-704z" />
    <glyph glyph-name="triagup" unicode="&#x25b2;" horiz-adv-x="1837" 
d="M1796 0h-1755l879 1520z" />
    <glyph glyph-name="triagrt" unicode="&#x25ba;" horiz-adv-x="1837" 
d="M205 -117v1755l1519 -876z" />
    <glyph glyph-name="triagdn" unicode="&#x25bc;" horiz-adv-x="1837" 
d="M41 1495h1755l-876 -1520z" />
    <glyph glyph-name="triaglf" unicode="&#x25c4;" horiz-adv-x="1837" 
d="M1632 1638v-1755l-1519 879z" />
    <glyph glyph-name="lozenge" unicode="&#x25ca;" horiz-adv-x="1726" 
d="M850 -33l-782 783l778 778l782 -783zM268 750l582 -580l577 578l-581 579z" />
    <glyph glyph-name="whitecircle" unicode="&#x25cb;" horiz-adv-x="1898" 
d="M950 -20q-317 0 -542 225q-226 226 -226 543q0 316 226 542t542 226q317 0 543 -226q225 -225 225 -542q0 -318 -225 -543t-543 -225zM950 131q256 0 430 180t174 437q0 256 -174 436t-430 180t-430 -180t-174 -436q0 -257 174 -437t430 -180z" />
    <glyph glyph-name="whitecircle" unicode="&#x25ef;" horiz-adv-x="1898" 
d="M950 -20q-317 0 -542 225q-226 226 -226 543q0 316 226 542t542 226q317 0 543 -226q225 -225 225 -542q0 -318 -225 -543t-543 -225zM950 131q256 0 430 180t174 437q0 256 -174 436t-430 180t-430 -180t-174 -436q0 -257 174 -437t430 -180z" />
    <glyph glyph-name="bullseye" unicode="&#x25ce;" horiz-adv-x="1898" 
d="M950 -20q-317 0 -542 225q-226 226 -226 543q0 316 226 542t542 226q317 0 543 -226q225 -225 225 -542q0 -318 -225 -543t-543 -225zM950 131q256 0 430 180t174 437q0 256 -174 436t-430 180t-430 -180t-174 -436q0 -257 174 -437t430 -180zM950 287q-190 0 -323 132
t-133 326q0 195 133 327t323 132q192 0 326 -132q133 -132 133 -327q0 -194 -133 -326q-134 -132 -326 -132zM950 434q126 0 215 90q88 89 88 221q0 133 -88 222q-89 90 -215 90q-127 0 -214 -90t-87 -222q0 -131 87 -221t214 -90zM950 590q-63 0 -108 46t-45 112
q0 64 45 111q45 46 108 46q64 0 109 -46t45 -111q0 -66 -45 -112t-109 -46z" />
    <glyph glyph-name="blackcircle" unicode="&#x25cf;" horiz-adv-x="1898" 
d="M950 -20q-317 0 -542 225q-226 226 -226 543q0 316 226 542t542 226q317 0 543 -226q225 -225 225 -542q0 -318 -225 -543t-543 -225z" />
    <glyph glyph-name="uni25E2" unicode="&#x25e2;" horiz-adv-x="1837" 
d="M1788 1092l-1241 -1242l-455 1696z" />
    <glyph glyph-name="uni25E3" unicode="&#x25e3;" horiz-adv-x="1837" 
d="M1294 -150l-1241 1242l1696 454z" />
    <glyph glyph-name="uni25E4" unicode="&#x25e4;" horiz-adv-x="1837" 
d="M1755 -111l-1696 455l1241 1241z" />
    <glyph glyph-name="uni25E5" unicode="&#x25e5;" horiz-adv-x="1837" 
d="M1786 334l-1696 -453l457 1696z" />
    <glyph glyph-name="uni2605" unicode="&#x2605;" horiz-adv-x="1843" 
d="M1151 621l147 -447l-383 277l-380 -277l147 449l-381 276l469 -2l148 446l145 -446l471 -2z" />
    <glyph glyph-name="ballotboxwithx" unicode="&#x2612;" horiz-adv-x="1433" 
d="M205 0v1024h1024v-1024h-1024zM365 870v-716h704v716h-704zM532 776l181 -174l178 184l94 -94l-176 -182l184 -178l-94 -94l-184 176l-174 -183l-95 95l175 180l-183 176z" />
    <glyph glyph-name="uni263C" unicode="&#x263c;" horiz-adv-x="1900" 
d="M588 748q0 145 105 250q106 106 251 106t251 -106q105 -105 105 -250q0 -146 -105 -251q-106 -106 -251 -106t-251 106q-105 105 -105 251zM924 1182l-35 291h110l-34 -291h-41zM965 317l34 -290h-110l35 290h41zM512 729l-291 -35v111l291 -35v-41zM1376 770l291 35
v-111l-291 35v41zM559 950l-272 113l57 96l236 -178zM1329 549l273 -113l-58 -96l-235 178zM713 1114l-178 236l96 57l112 -272zM1176 385l178 -235l-97 -58l-112 273zM1145 1135l112 272l97 -57l-178 -236zM743 365l-112 -273l-96 58l178 235zM1309 983l231 176l62 -94
l-273 -115zM580 516l-232 -176l-61 94l272 115z" />
    <glyph glyph-name="uni263E" unicode="&#x263e;" horiz-adv-x="1611" 
d="M1094 1262q-201 0 -346 -151q-144 -150 -144 -363q0 -214 144 -364q145 -151 346 -151q62 0 145 25q-167 -117 -365 -117q-250 0 -428 178t-178 429q0 250 178 428t428 178q198 0 365 -117q-98 25 -145 25z" />
    <glyph glyph-name="spade" unicode="&#x2660;" horiz-adv-x="1884" 
d="M1217 0h-531q53 98 81 155q25 53 69 189q43 135 43 250q-43 -121 -131 -200t-218 -79q-141 0 -246 97q-104 96 -104 227q0 167 107 307t375 354l286 230h2l287 -230q265 -214 365 -350q102 -140 102 -311q0 -132 -94 -226q-96 -96 -228 -96q-142 0 -234 79t-136 198
q0 -59 12 -125t27 -114q17 -55 44 -114q40 -88 43 -94q13 -26 46 -86t33 -61z" />
    <glyph glyph-name="club" unicode="&#x2663;" horiz-adv-x="1884" 
d="M1219 0h-531q164 308 186 508q-46 -110 -136 -175q-93 -67 -206 -67q-152 0 -257 107t-105 256t105 256q105 106 257 106q43 0 86 -14q-38 82 -38 178q0 151 104 255q106 106 254 106q149 0 255 -106q105 -105 105 -255q0 -94 -38 -180q44 16 94 16q150 0 255 -105
t105 -257q0 -149 -105 -256t-257 -107q-114 0 -203 66q-87 65 -131 174q6 -52 21 -107q13 -47 32 -98q12 -31 41 -95q25 -55 39 -80q2 -3 39 -73q22 -42 29 -53z" />
    <glyph glyph-name="heart" unicode="&#x2665;" horiz-adv-x="1884" 
d="M182 1126q0 160 109 275t266 115q152 0 258 -94q105 -93 121 -236q18 142 122 236q105 94 257 94q158 0 272 -116q115 -117 115 -274q0 -173 -108 -362q-107 -186 -367 -477l-291 -322l-289 322q-253 281 -360 474q-105 189 -105 365z" />
    <glyph glyph-name="diamond" unicode="&#x2666;" horiz-adv-x="1884" 
d="M272 799l670 821l670 -821l-670 -819z" />
    <glyph glyph-name="uni267B" unicode="&#x267b;" horiz-adv-x="1886" 
d="M1681 504l2 -4l-186 -322q-24 -35 -40 -56q-13 -18 -47 -34q-33 -16 -81 -16h-110v-97l-218 263l218 260v-95h278q50 0 97 26q45 25 67 50zM377 227h-4l-185 324q-20 36 -28 60q-8 21 -6 59q1 37 26 78l56 94l-82 47l335 59l113 -319l-78 47q-132 -226 -139 -242
q-26 -46 -27 -95q-2 -53 9 -81zM797 1491v2h372q40 -1 69 -5q24 -3 54 -24q33 -23 54 -61l53 -94l84 47l-119 -322l-332 62l78 45l-137 241q-27 45 -71 72q-43 27 -75 33zM403 1143l129 229q22 38 66 60q88 45 186 18t131 -86l-223 -387zM879 72h-261q-47 0 -86 24
q-82 46 -109 152t9 155h447v-331zM1571 1006l133 -226q18 -28 18 -84q2 -93 -72 -167t-143 -74l-223 387z" />
    <glyph glyph-name="uni267C" unicode="&#x267c;" horiz-adv-x="1886" 
d="M1714 750q0 -319 -225 -544q-224 -224 -543 -224q-323 0 -547 224q-225 225 -225 544q0 318 225 545t547 227q318 0 543 -227t225 -545zM623 1241l-101 -176l223 -129l173 299q-24 47 -102 68q-75 20 -144 -15q-38 -23 -49 -47zM817 1335v-2q93 -7 137 -84l109 -186
l-62 -37l259 -47l90 250l-64 -37l-43 74q-27 46 -56 57q-30 12 -81 12h-289zM680 233h203v259h-348q-29 -42 -7 -122t86 -118q35 -19 66 -19zM498 354h2q-38 84 6 162l108 186l62 -36l-88 247l-260 -45l63 -37l-43 -73q-18 -31 -20 -61t4 -44q7 -18 22 -49zM1528 784
l-101 174l-225 -129l174 -301q53 0 112 59q58 58 56 132q0 37 -16 65zM1513 565l-2 2q-51 -75 -143 -75h-215v71l-170 -201l170 -202v73h84q52 0 80 20t51 62z" />
    <glyph glyph-name="uni267D" unicode="&#x267d;" horiz-adv-x="1886" 
d="M1714 750q0 -319 -225 -544q-224 -224 -543 -224q-323 0 -547 224q-225 225 -225 544q0 318 225 545t547 227q318 0 543 -227t225 -545zM1675 750q0 304 -213 519q-213 214 -516 214q-306 0 -520 -214q-215 -215 -215 -519q0 -303 215 -518q214 -214 520 -214
q303 0 516 214t213 518zM522 1065l101 176q11 24 49 47q69 35 144 15q78 -21 102 -68l-173 -299zM817 1333v2h289q51 0 81 -12q29 -11 56 -57l43 -74l64 37l-90 -250l-259 47l62 37l-109 186q-19 34 -53 55q-33 20 -59 25zM883 233h-203q-31 0 -66 19q-64 38 -86 118t7 122
h348v-259zM500 354h-2l-144 250q-15 31 -22 49q-6 14 -4 44t20 61l43 73l-63 37l260 45l88 -247l-62 36l-108 -186q-20 -38 -21 -75t7 -64zM1427 958l101 -174q16 -28 16 -65q2 -74 -56 -132q-59 -59 -112 -59l-174 301zM1511 567l2 -2l-145 -250q-14 -24 -29 -43
q-11 -13 -39 -26q-29 -13 -63 -13h-84v-73l-170 202l170 201v-71h215q41 0 77 18q34 17 50 39z" />
    <glyph glyph-name="mediumwhitecircle" unicode="&#x26aa;" horiz-adv-x="1429" 
d="M715 -20q-221 0 -376 153t-155 379t155 379t376 153q223 0 378 -153q154 -153 154 -379t-154 -379q-155 -153 -378 -153zM715 123q156 0 264 114t108 275t-108 275t-264 114q-155 0 -263 -114t-108 -275t108 -275t263 -114z" />
    <glyph glyph-name="mediumblackcircle" unicode="&#x26ab;" horiz-adv-x="1429" 
d="M715 -20q-222 0 -376 155q-155 157 -155 377t155 377q154 155 376 155t376 -155t154 -377t-154 -377t-376 -155z" />
    <glyph glyph-name="anglebracketleft" unicode="&#x3008;" horiz-adv-x="753" 
d="M530 -471l-467 983l467 983h170l-467 -983l467 -983h-170z" />
    <glyph glyph-name="anglebracketright" unicode="&#x3009;" horiz-adv-x="753" 
d="M233 -471h-170l467 983l-467 983h170l467 -983z" />
    <glyph glyph-name="cordinal" unicode="&#xe181;" horiz-adv-x="800" 
d="M416 891q-127 0 -217 90t-90 217q0 129 90 219t217 90q83 0 155 -42q73 -42 113 -111l-102 -60q-52 99 -166 99q-82 0 -136 -57q-55 -58 -55 -138q0 -78 56 -136q55 -56 135 -56q121 0 172 106l104 -55q-90 -166 -276 -166z" />
    <glyph glyph-name="p.smcp" unicode="&#xe200;" horiz-adv-x="1081" 
d="M143 0v1221h394q192 0 317 -122t125 -302q0 -182 -125 -304t-319 -122h-234v-371h-158zM524 1073h-223v-553h223q134 0 213 79q80 80 80 198q0 117 -80 197q-79 79 -213 79z" />
    <glyph glyph-name="p.smcp" unicode="&#xf770;" horiz-adv-x="1081" 
d="M143 0v1221h394q192 0 317 -122t125 -302q0 -182 -125 -304t-319 -122h-234v-371h-158zM524 1073h-223v-553h223q134 0 213 79q80 80 80 198q0 117 -80 197q-79 79 -213 79z" />
    <glyph glyph-name="a.smcp" unicode="&#xe201;" horiz-adv-x="1189" 
d="M57 0l453 1221h168l455 -1221h-164l-105 281h-538l-103 -281h-166zM596 1008l-213 -576h426z" />
    <glyph glyph-name="a.smcp" unicode="&#xf761;" horiz-adv-x="1189" 
d="M57 0l453 1221h168l455 -1221h-164l-105 281h-538l-103 -281h-166zM596 1008l-213 -576h426z" />
    <glyph glyph-name="b.smcp" unicode="&#xe202;" horiz-adv-x="1095" 
d="M143 0v1221h426q179 0 285 -88q107 -89 107 -240q0 -173 -148 -256q184 -78 184 -289q0 -162 -108 -255t-291 -93h-455zM594 553h-293v-408h301q108 0 173 57t65 148q0 97 -62 150t-184 53zM573 1075h-272v-373h283q104 0 162 53q57 53 57 138q0 83 -61 133
q-59 49 -169 49z" />
    <glyph glyph-name="b.smcp" unicode="&#xf762;" horiz-adv-x="1095" 
d="M143 0v1221h426q179 0 285 -88q107 -89 107 -240q0 -173 -148 -256q184 -78 184 -289q0 -162 -108 -255t-291 -93h-455zM594 553h-293v-408h301q108 0 173 57t65 148q0 97 -62 150t-184 53zM573 1075h-272v-373h283q104 0 162 53q57 53 57 138q0 83 -61 133
q-59 49 -169 49z" />
    <glyph glyph-name="c.smcp" unicode="&#xe203;" horiz-adv-x="1353" 
d="M727 -16q-268 0 -448 184q-181 186 -181 442q0 261 184 445q182 182 441 182q176 0 327 -92q149 -91 228 -244l-141 -74q-61 119 -168 190q-109 73 -244 73q-198 0 -332 -142q-133 -140 -133 -338q0 -200 135 -340q135 -139 328 -139q147 0 256 77q109 78 166 204
l147 -66q-83 -168 -230 -265q-148 -97 -335 -97z" />
    <glyph glyph-name="c.smcp" unicode="&#xf763;" horiz-adv-x="1353" 
d="M727 -16q-268 0 -448 184q-181 186 -181 442q0 261 184 445q182 182 441 182q176 0 327 -92q149 -91 228 -244l-141 -74q-61 119 -168 190q-109 73 -244 73q-198 0 -332 -142q-133 -140 -133 -338q0 -200 135 -340q135 -139 328 -139q147 0 256 77q109 78 166 204
l147 -66q-83 -168 -230 -265q-148 -97 -335 -97z" />
    <glyph glyph-name="d.smcp" unicode="&#xe204;" horiz-adv-x="1218" 
d="M143 0v1221h340q286 0 462 -173q175 -172 175 -438q0 -262 -179 -436t-452 -174h-346zM469 1073h-168v-923h174q213 0 347 131t134 329q0 205 -130 334t-357 129z" />
    <glyph glyph-name="d.smcp" unicode="&#xf764;" horiz-adv-x="1218" 
d="M143 0v1221h340q286 0 462 -173q175 -172 175 -438q0 -262 -179 -436t-452 -174h-346zM469 1073h-168v-923h174q213 0 347 131t134 329q0 205 -130 334t-357 129z" />
    <glyph glyph-name="e.smcp" unicode="&#xe205;" horiz-adv-x="993" 
d="M143 0v1221h736v-148h-578v-387h578v-147h-578v-389h578v-150h-736z" />
    <glyph glyph-name="e.smcp" unicode="&#xf765;" horiz-adv-x="993" 
d="M143 0v1221h736v-148h-578v-387h578v-147h-578v-389h578v-150h-736z" />
    <glyph glyph-name="f.smcp" unicode="&#xe206;" horiz-adv-x="933" 
d="M143 0v1221h691v-148h-533v-387h533v-147h-533v-539h-158z" />
    <glyph glyph-name="f.smcp" unicode="&#xf766;" horiz-adv-x="933" 
d="M143 0v1221h691v-148h-533v-387h533v-147h-533v-539h-158z" />
    <glyph glyph-name="g.smcp" unicode="&#xe207;" horiz-adv-x="1437" 
d="M729 -16q-265 0 -448 183t-183 443t184 444q183 183 449 183q179 0 322 -85q144 -86 223 -230l-139 -82q-62 114 -167 182q-106 68 -239 68q-203 0 -337 -142t-134 -338q0 -199 133 -339t336 -140q179 0 297 106q116 104 145 273h-460v152h628v-52q0 -261 -168 -444
q-167 -182 -442 -182z" />
    <glyph glyph-name="g.smcp" unicode="&#xf767;" horiz-adv-x="1437" 
d="M729 -16q-265 0 -448 183t-183 443t184 444q183 183 449 183q179 0 322 -85q144 -86 223 -230l-139 -82q-62 114 -167 182q-106 68 -239 68q-203 0 -337 -142t-134 -338q0 -199 133 -339t336 -140q179 0 297 106q116 104 145 273h-460v152h628v-52q0 -261 -168 -444
q-167 -182 -442 -182z" />
    <glyph glyph-name="h.smcp" unicode="&#xe208;" horiz-adv-x="1198" 
d="M897 0v539h-596v-539h-158v1221h158v-533h596v533h158v-1221h-158z" />
    <glyph glyph-name="h.smcp" unicode="&#xf768;" horiz-adv-x="1198" 
d="M897 0v539h-596v-539h-158v1221h158v-533h596v533h158v-1221h-158z" />
    <glyph glyph-name="i.smcp" unicode="&#xe209;" horiz-adv-x="468" 
d="M154 0v1221h161v-1221h-161z" />
    <glyph glyph-name="i.smcp" unicode="&#xf769;" horiz-adv-x="468" 
d="M154 0v1221h161v-1221h-161z" />
    <glyph glyph-name="j.smcp" unicode="&#xe20a;" horiz-adv-x="823" 
d="M369 -16q-117 0 -205 55q-87 55 -125 147l149 74q50 -129 179 -129q75 0 120 53q45 52 45 144v893h158v-885q0 -170 -85 -261t-236 -91z" />
    <glyph glyph-name="j.smcp" unicode="&#xf76a;" horiz-adv-x="823" 
d="M369 -16q-117 0 -205 55q-87 55 -125 147l149 74q50 -129 179 -129q75 0 120 53q45 52 45 144v893h158v-885q0 -170 -85 -261t-236 -91z" />
    <glyph glyph-name="k.smcp" unicode="&#xe20b;" horiz-adv-x="1128" 
d="M891 0l-385 629l-205 -228v-401h-158v1221h158v-621l557 621h195l-435 -482l453 -739h-180z" />
    <glyph glyph-name="k.smcp" unicode="&#xf76b;" horiz-adv-x="1128" 
d="M891 0l-385 629l-205 -228v-401h-158v1221h158v-621l557 621h195l-435 -482l453 -739h-180z" />
    <glyph glyph-name="l.smcp" unicode="&#xe20c;" horiz-adv-x="915" 
d="M143 0v1221h158v-1069h518v-152h-676z" />
    <glyph glyph-name="l.smcp" unicode="&#xf76c;" horiz-adv-x="915" 
d="M143 0v1221h158v-1069h518v-152h-676z" />
    <glyph glyph-name="m.smcp" unicode="&#xe20d;" horiz-adv-x="1482" 
d="M143 0v1221h156l444 -617l445 617h151v-1221h-157v948l-439 -606l-442 612v-954h-158z" />
    <glyph glyph-name="m.smcp" unicode="&#xf76d;" horiz-adv-x="1482" 
d="M143 0v1221h156l444 -617l445 617h151v-1221h-157v948l-439 -606l-442 612v-954h-158z" />
    <glyph glyph-name="n.smcp" unicode="&#xe20e;" horiz-adv-x="1288" 
d="M143 0v1221h176l668 -965v965h158v-1221h-168l-676 975v-975h-158z" />
    <glyph glyph-name="n.smcp" unicode="&#xf76e;" horiz-adv-x="1288" 
d="M143 0v1221h176l668 -965v965h158v-1221h-168l-676 975v-975h-158z" />
    <glyph glyph-name="o.smcp" unicode="&#xe20f;" horiz-adv-x="1447" 
d="M723 -16q-259 0 -442 183t-183 443q0 261 183 444t442 183q260 0 443 -183q184 -184 184 -444q0 -259 -184 -443q-183 -183 -443 -183zM723 131q196 0 329 140q134 142 134 339t-134 339q-133 141 -329 141q-195 0 -329 -141q-134 -142 -134 -339t134 -339
q133 -140 329 -140z" />
    <glyph glyph-name="o.smcp" unicode="&#xf76f;" horiz-adv-x="1447" 
d="M723 -16q-259 0 -442 183t-183 443q0 261 183 444t442 183q260 0 443 -183q184 -184 184 -444q0 -259 -184 -443q-183 -183 -443 -183zM723 131q196 0 329 140q134 142 134 339t-134 339q-133 141 -329 141q-195 0 -329 -141q-134 -142 -134 -339t134 -339
q133 -140 329 -140z" />
    <glyph glyph-name="q.smcp" unicode="&#xe211;" horiz-adv-x="1447" 
d="M723 -16q-259 0 -442 183t-183 443q0 261 183 444t442 183q260 0 443 -183q184 -184 184 -444q0 -244 -166 -422l153 -188h-200l-441 551h195l194 -242q101 130 101 301q0 197 -134 339q-133 141 -329 141q-195 0 -329 -141q-134 -142 -134 -339t134 -339
q133 -140 329 -140q105 0 199 45l94 -119q-140 -73 -293 -73z" />
    <glyph glyph-name="q.smcp" unicode="&#xf771;" horiz-adv-x="1447" 
d="M723 -16q-259 0 -442 183t-183 443q0 261 183 444t442 183q260 0 443 -183q184 -184 184 -444q0 -244 -166 -422l153 -188h-200l-441 551h195l194 -242q101 130 101 301q0 197 -134 339q-133 141 -329 141q-195 0 -329 -141q-134 -142 -134 -339t134 -339
q133 -140 329 -140q105 0 199 45l94 -119q-140 -73 -293 -73z" />
    <glyph glyph-name="r.smcp" unicode="&#xe212;" horiz-adv-x="1046" 
d="M143 0v1221h379q184 0 304 -114t120 -282q0 -130 -76 -231q-77 -103 -206 -137l299 -457h-189l-364 571h92q128 0 205 78q75 76 75 176q0 114 -67 181t-201 67h-209v-1073h-162z" />
    <glyph glyph-name="r.smcp" unicode="&#xf772;" horiz-adv-x="1046" 
d="M143 0v1221h379q184 0 304 -114t120 -282q0 -130 -76 -231q-77 -103 -206 -137l299 -457h-189l-364 571h92q128 0 205 78q75 76 75 176q0 114 -67 181t-201 67h-209v-1073h-162z" />
    <glyph glyph-name="s.smcp" unicode="&#xe213;" horiz-adv-x="978" 
d="M487 -16q-269 0 -442 221l139 108q112 -182 301 -182q103 0 169 60q67 61 67 151q0 61 -41 105t-89 65q-42 18 -134 49q-15 5 -21 6q-92 31 -127 47q-47 21 -103 61q-58 41 -84 98q-28 61 -28 138q0 140 110 233t271 93q242 0 389 -180l-129 -99q-86 140 -258 140
q-97 0 -158 -52t-61 -133q0 -44 20 -79q20 -36 57 -58q33 -20 82 -40q17 -7 101 -38q15 -4 21 -6q84 -28 127 -48q49 -22 105 -61q60 -41 86 -100q28 -62 28 -141q0 -146 -111 -252q-110 -106 -287 -106z" />
    <glyph glyph-name="s.smcp" unicode="&#xf773;" horiz-adv-x="978" 
d="M487 -16q-269 0 -442 221l139 108q112 -182 301 -182q103 0 169 60q67 61 67 151q0 61 -41 105t-89 65q-42 18 -134 49q-15 5 -21 6q-92 31 -127 47q-47 21 -103 61q-58 41 -84 98q-28 61 -28 138q0 140 110 233t271 93q242 0 389 -180l-129 -99q-86 140 -258 140
q-97 0 -158 -52t-61 -133q0 -44 20 -79q20 -36 57 -58q33 -20 82 -40q17 -7 101 -38q15 -4 21 -6q84 -28 127 -48q49 -22 105 -61q60 -41 86 -100q28 -62 28 -141q0 -146 -111 -252q-110 -106 -287 -106z" />
    <glyph glyph-name="t.smcp" unicode="&#xe214;" horiz-adv-x="1046" 
d="M444 0v1069h-356v152h870v-152h-354v-1069h-160z" />
    <glyph glyph-name="t.smcp" unicode="&#xf774;" horiz-adv-x="1046" 
d="M444 0v1069h-356v152h870v-152h-354v-1069h-160z" />
    <glyph glyph-name="u.smcp" unicode="&#xe215;" horiz-adv-x="1099" 
d="M549 -16q-185 0 -300 111q-116 111 -116 302v824h158v-832q0 -117 71 -187q73 -71 189 -71q113 0 186 71q72 71 72 187v832h158v-824q0 -191 -117 -302t-301 -111z" />
    <glyph glyph-name="u.smcp" unicode="&#xf775;" horiz-adv-x="1099" 
d="M549 -16q-185 0 -300 111q-116 111 -116 302v824h158v-832q0 -117 71 -187q73 -71 189 -71q113 0 186 71q72 71 72 187v832h158v-824q0 -191 -117 -302t-301 -111z" />
    <glyph glyph-name="v.smcp" unicode="&#xe216;" horiz-adv-x="1144" 
d="M489 0l-432 1221h166l348 -994l349 994h167l-436 -1221h-162z" />
    <glyph glyph-name="v.smcp" unicode="&#xf776;" horiz-adv-x="1144" 
d="M489 0l-432 1221h166l348 -994l349 994h167l-436 -1221h-162z" />
    <glyph glyph-name="w.smcp" unicode="&#xe217;" horiz-adv-x="1789" 
d="M410 0l-349 1221h168l269 -973l311 973h152l311 -985l295 985h162l-375 -1221h-162l-307 971l-312 -971h-163z" />
    <glyph glyph-name="w.smcp" unicode="&#xf777;" horiz-adv-x="1789" 
d="M410 0l-349 1221h168l269 -973l311 973h152l311 -985l295 985h162l-375 -1221h-162l-307 971l-312 -971h-163z" />
    <glyph glyph-name="x.smcp" unicode="&#xe218;" horiz-adv-x="1107" 
d="M874 0l-315 492l-315 -492h-187l414 621l-389 600h174l305 -471l295 471h184l-389 -596l400 -625h-177z" />
    <glyph glyph-name="x.smcp" unicode="&#xf778;" horiz-adv-x="1107" 
d="M874 0l-315 492l-315 -492h-187l414 621l-389 600h174l305 -471l295 471h184l-389 -596l400 -625h-177z" />
    <glyph glyph-name="y.smcp" unicode="&#xe219;" horiz-adv-x="1071" 
d="M457 0v575l-402 646h174l303 -494l308 494h176l-402 -646v-575h-157z" />
    <glyph glyph-name="y.smcp" unicode="&#xf779;" horiz-adv-x="1071" 
d="M457 0v575l-402 646h174l303 -494l308 494h176l-402 -646v-575h-157z" />
    <glyph glyph-name="z.smcp" unicode="&#xe21a;" horiz-adv-x="1007" 
d="M96 0v147l621 922h-600v152h788v-146l-620 -921h620v-154h-809z" />
    <glyph glyph-name="z.smcp" unicode="&#xf77a;" horiz-adv-x="1007" 
d="M96 0v147l621 922h-600v152h788v-146l-620 -921h620v-154h-809z" />
    <glyph glyph-name="anocross.smcp" unicode="&#xe220;" horiz-adv-x="1189" 
d="M57 0l453 1221h168l455 -1221h-164l-373 1008l-373 -1008h-166z" />
    <glyph glyph-name="aacute.smcp" unicode="&#xe221;" horiz-adv-x="1189" 
d="M57 0l453 1221h168l455 -1221h-164l-105 281h-538l-103 -281h-166zM596 1008l-213 -576h426zM516 1339l240 332h205l-297 -332h-148z" />
    <glyph glyph-name="aacute.smcp" unicode="&#xf7e1;" horiz-adv-x="1189" 
d="M57 0l453 1221h168l455 -1221h-164l-105 281h-538l-103 -281h-166zM596 1008l-213 -576h426zM516 1339l240 332h205l-297 -332h-148z" />
    <glyph glyph-name="agrave.smcp" unicode="&#xe222;" horiz-adv-x="1189" 
d="M57 0l453 1221h168l455 -1221h-164l-105 281h-538l-103 -281h-166zM596 1008l-213 -576h426zM512 1339l-297 332h203l241 -332h-147z" />
    <glyph glyph-name="agrave.smcp" unicode="&#xf7e0;" horiz-adv-x="1189" 
d="M57 0l453 1221h168l455 -1221h-164l-105 281h-538l-103 -281h-166zM596 1008l-213 -576h426zM512 1339l-297 332h203l241 -332h-147z" />
    <glyph glyph-name="acircumflex.smcp" unicode="&#xe223;" horiz-adv-x="1189" 
d="M57 0l453 1221h168l455 -1221h-164l-105 281h-538l-103 -281h-166zM596 1008l-213 -576h426zM279 1323l243 332h135l244 -332h-164l-147 205l-146 -205h-165z" />
    <glyph glyph-name="acircumflex.smcp" unicode="&#xf7e2;" horiz-adv-x="1189" 
d="M57 0l453 1221h168l455 -1221h-164l-105 281h-538l-103 -281h-166zM596 1008l-213 -576h426zM279 1323l243 332h135l244 -332h-164l-147 205l-146 -205h-165z" />
    <glyph glyph-name="adieresis.smcp" unicode="&#xe224;" horiz-adv-x="1189" 
d="M57 0l453 1221h168l455 -1221h-164l-105 281h-538l-103 -281h-166zM596 1008l-213 -576h426zM655 1354v284h158v-284h-158zM381 1354v284h158v-284h-158z" />
    <glyph glyph-name="adieresis.smcp" unicode="&#xf7e4;" horiz-adv-x="1189" 
d="M57 0l453 1221h168l455 -1221h-164l-105 281h-538l-103 -281h-166zM596 1008l-213 -576h426zM655 1354v284h158v-284h-158zM381 1354v284h158v-284h-158z" />
    <glyph glyph-name="atilde.smcp" unicode="&#xe225;" horiz-adv-x="1189" 
d="M57 0l453 1221h168l455 -1221h-164l-105 281h-538l-103 -281h-166zM596 1008l-213 -576h426zM242 1339q0 113 56 179q57 67 146 67q72 0 166 -55q90 -57 129 -57q80 0 80 106h127q0 -114 -53 -181t-152 -67q-73 0 -186 68q-78 45 -111 45q-75 0 -75 -105h-127z" />
    <glyph glyph-name="atilde.smcp" unicode="&#xf7e3;" horiz-adv-x="1189" 
d="M57 0l453 1221h168l455 -1221h-164l-105 281h-538l-103 -281h-166zM596 1008l-213 -576h426zM242 1339q0 113 56 179q57 67 146 67q72 0 166 -55q90 -57 129 -57q80 0 80 106h127q0 -114 -53 -181t-152 -67q-73 0 -186 68q-78 45 -111 45q-75 0 -75 -105h-127z" />
    <glyph glyph-name="aring.smcp" unicode="&#xe226;" horiz-adv-x="1189" 
d="M57 0l424 1141q-108 63 -108 190q0 93 63 157t154 64q94 0 159 -63q64 -63 64 -158q0 -122 -106 -188l426 -1143h-164l-105 281h-538l-103 -281h-166zM596 1008l-213 -576h426zM590 1235q39 0 70 29q30 28 30 67q0 41 -30 71t-70 30t-68 -30q-28 -29 -28 -71
q0 -39 28 -67q29 -29 68 -29z" />
    <glyph glyph-name="aring.smcp" unicode="&#xf7e5;" horiz-adv-x="1189" 
d="M57 0l424 1141q-108 63 -108 190q0 93 63 157t154 64q94 0 159 -63q64 -63 64 -158q0 -122 -106 -188l426 -1143h-164l-105 281h-538l-103 -281h-166zM596 1008l-213 -576h426zM590 1235q39 0 70 29q30 28 30 67q0 41 -30 71t-70 30t-68 -30q-28 -29 -28 -71
q0 -39 28 -67q29 -29 68 -29z" />
    <glyph glyph-name="amacron.smcp" unicode="&#xe228;" horiz-adv-x="1189" 
d="M57 0l453 1221h168l455 -1221h-164l-105 281h-538l-103 -281h-166zM596 1008l-213 -576h426zM319 1339v138h541v-138h-541z" />
    <glyph glyph-name="amacron.smcp" unicode="&#xf641;" horiz-adv-x="1189" 
d="M57 0l453 1221h168l455 -1221h-164l-105 281h-538l-103 -281h-166zM596 1008l-213 -576h426zM319 1339v138h541v-138h-541z" />
    <glyph glyph-name="abreve.smcp" unicode="&#xe229;" horiz-adv-x="1189" 
d="M57 0l453 1221h168l455 -1221h-164l-105 281h-538l-103 -281h-166zM596 1008l-213 -576h426zM590 1325q-162 0 -246 94q-84 95 -84 240h135q0 -98 50 -156q50 -57 145 -59q92 2 142 59q50 58 50 156h140q0 -141 -92 -238q-92 -96 -240 -96z" />
    <glyph glyph-name="abreve.smcp" unicode="&#xf640;" horiz-adv-x="1189" 
d="M57 0l453 1221h168l455 -1221h-164l-105 281h-538l-103 -281h-166zM596 1008l-213 -576h426zM590 1325q-162 0 -246 94q-84 95 -84 240h135q0 -98 50 -156q50 -57 145 -59q92 2 142 59q50 58 50 156h140q0 -141 -92 -238q-92 -96 -240 -96z" />
    <glyph glyph-name="aringacute.smcp" unicode="&#xe22d;" horiz-adv-x="1189" 
d="M57 0l424 1141q-108 63 -108 190q0 93 63 157t154 64q94 0 159 -63q64 -63 64 -158q0 -122 -106 -188l426 -1143h-164l-105 281h-538l-103 -281h-166zM596 1008l-213 -576h426zM508 1624l240 332h204l-297 -332h-147zM590 1235q39 0 70 29q30 28 30 67q0 41 -30 71
t-70 30t-68 -30q-28 -29 -28 -71q0 -39 28 -67q29 -29 68 -29z" />
    <glyph glyph-name="aringacute.smcp" unicode="&#xf625;" horiz-adv-x="1189" 
d="M57 0l424 1141q-108 63 -108 190q0 93 63 157t154 64q94 0 159 -63q64 -63 64 -158q0 -122 -106 -188l426 -1143h-164l-105 281h-538l-103 -281h-166zM596 1008l-213 -576h426zM508 1624l240 332h204l-297 -332h-147zM590 1235q39 0 70 29q30 28 30 67q0 41 -30 71
t-70 30t-68 -30q-28 -29 -28 -71q0 -39 28 -67q29 -29 68 -29z" />
    <glyph glyph-name="aogonek.smcp" unicode="&#xe22f;" horiz-adv-x="1189" 
d="M993 -442q-121 0 -198 59q-78 60 -78 147q0 150 235 277l-88 240h-538l-103 -281h-166l453 1221h168l455 -1221q-158 -95 -206 -138q-50 -44 -50 -89q0 -43 32 -63q33 -21 84 -21q69 0 152 69l125 -86q-129 -114 -277 -114zM596 1008l-213 -576h426z" />
    <glyph glyph-name="aogonek.smcp" unicode="&#xf642;" horiz-adv-x="1189" 
d="M993 -442q-121 0 -198 59q-78 60 -78 147q0 150 235 277l-88 240h-538l-103 -281h-166l453 1221h168l455 -1221q-158 -95 -206 -138q-50 -44 -50 -89q0 -43 32 -63q33 -21 84 -21q69 0 152 69l125 -86q-129 -114 -277 -114zM596 1008l-213 -576h426z" />
    <glyph glyph-name="edieresis.smcp" unicode="&#xe230;" horiz-adv-x="993" 
d="M143 0v1221h736v-148h-578v-387h578v-147h-578v-389h578v-150h-736zM307 1354v284h158v-284h-158zM582 1354v284h157v-284h-157z" />
    <glyph glyph-name="edieresis.smcp" unicode="&#xf7eb;" horiz-adv-x="993" 
d="M143 0v1221h736v-148h-578v-387h578v-147h-578v-389h578v-150h-736zM307 1354v284h158v-284h-158zM582 1354v284h157v-284h-157z" />
    <glyph glyph-name="ae.smcp" unicode="&#xe231;" horiz-adv-x="1753" 
d="M59 0l578 1221h1001v-152h-792l80 -381h712v-151h-682l80 -383h602v-154h-733l-59 276h-484l-129 -276h-174zM696 991l-264 -567h383z" />
    <glyph glyph-name="ae.smcp" unicode="&#xf7e6;" horiz-adv-x="1753" 
d="M59 0l578 1221h1001v-152h-792l80 -381h712v-151h-682l80 -383h602v-154h-733l-59 276h-484l-129 -276h-174zM696 991l-264 -567h383z" />
    <glyph glyph-name="aeacute.smcp" unicode="&#xe232;" horiz-adv-x="1767" 
d="M61 0l578 1221h1001v-152h-792l80 -381h712v-151h-682l80 -383h602v-154h-733l-59 276h-483l-129 -276h-175zM698 991l-264 -567h383zM940 1339l240 332h204l-297 -332h-147z" />
    <glyph glyph-name="aeacute.smcp" unicode="&#xf624;" horiz-adv-x="1767" 
d="M61 0l578 1221h1001v-152h-792l80 -381h712v-151h-682l80 -383h602v-154h-733l-59 276h-483l-129 -276h-175zM698 991l-264 -567h383zM940 1339l240 332h204l-297 -332h-147z" />
    <glyph glyph-name="cacute.smcp" unicode="&#xe234;" horiz-adv-x="1353" 
d="M637 1339l240 332h204l-297 -332h-147zM727 -16q-268 0 -448 184q-181 186 -181 442q0 261 184 445q182 182 441 182q176 0 327 -92q149 -91 228 -244l-141 -74q-61 119 -168 190q-109 73 -244 73q-198 0 -332 -142q-133 -140 -133 -338q0 -200 135 -340
q135 -139 328 -139q147 0 256 77q109 78 166 204l147 -66q-83 -168 -230 -265q-148 -97 -335 -97z" />
    <glyph glyph-name="cacute.smcp" unicode="&#xf643;" horiz-adv-x="1353" 
d="M637 1339l240 332h204l-297 -332h-147zM727 -16q-268 0 -448 184q-181 186 -181 442q0 261 184 445q182 182 441 182q176 0 327 -92q149 -91 228 -244l-141 -74q-61 119 -168 190q-109 73 -244 73q-198 0 -332 -142q-133 -140 -133 -338q0 -200 135 -340
q135 -139 328 -139q147 0 256 77q109 78 166 204l147 -66q-83 -168 -230 -265q-148 -97 -335 -97z" />
    <glyph glyph-name="ccircumflex.smcp" unicode="&#xe235;" horiz-adv-x="1353" 
d="M727 -16q-268 0 -448 184q-181 186 -181 442q0 261 184 445q182 182 441 182q176 0 327 -92q149 -91 228 -244l-141 -74q-61 119 -168 190q-109 73 -244 73q-198 0 -332 -142q-133 -140 -133 -338q0 -200 135 -340q135 -139 328 -139q147 0 256 77q109 78 166 204
l147 -66q-83 -168 -230 -265q-148 -97 -335 -97zM420 1333l244 332h135l243 -332h-163l-148 205l-145 -205h-166z" />
    <glyph glyph-name="ccircumflex.smcp" unicode="&#xf628;" horiz-adv-x="1353" 
d="M727 -16q-268 0 -448 184q-181 186 -181 442q0 261 184 445q182 182 441 182q176 0 327 -92q149 -91 228 -244l-141 -74q-61 119 -168 190q-109 73 -244 73q-198 0 -332 -142q-133 -140 -133 -338q0 -200 135 -340q135 -139 328 -139q147 0 256 77q109 78 166 204
l147 -66q-83 -168 -230 -265q-148 -97 -335 -97zM420 1333l244 332h135l243 -332h-163l-148 205l-145 -205h-166z" />
    <glyph glyph-name="ccaron.smcp" unicode="&#xe236;" horiz-adv-x="1353" 
d="M727 -16q-268 0 -448 184q-181 186 -181 442q0 261 184 445q182 182 441 182q176 0 327 -92q149 -91 228 -244l-141 -74q-61 119 -168 190q-109 73 -244 73q-198 0 -332 -142q-133 -140 -133 -338q0 -200 135 -340q135 -139 328 -139q147 0 256 77q109 78 166 204
l147 -66q-83 -168 -230 -265q-148 -97 -335 -97zM662 1339l-244 332h164l145 -205l147 205h164l-243 -332h-133z" />
    <glyph glyph-name="ccaron.smcp" unicode="&#xf644;" horiz-adv-x="1353" 
d="M727 -16q-268 0 -448 184q-181 186 -181 442q0 261 184 445q182 182 441 182q176 0 327 -92q149 -91 228 -244l-141 -74q-61 119 -168 190q-109 73 -244 73q-198 0 -332 -142q-133 -140 -133 -338q0 -200 135 -340q135 -139 328 -139q147 0 256 77q109 78 166 204
l147 -66q-83 -168 -230 -265q-148 -97 -335 -97zM662 1339l-244 332h164l145 -205l147 205h164l-243 -332h-133z" />
    <glyph glyph-name="cdotaccent.smcp" unicode="&#xe237;" horiz-adv-x="1353" 
d="M727 -16q-268 0 -448 184q-181 186 -181 442q0 261 184 445q182 182 441 182q176 0 327 -92q149 -91 228 -244l-141 -74q-61 119 -168 190q-109 73 -244 73q-198 0 -332 -142q-133 -140 -133 -338q0 -200 135 -340q135 -139 328 -139q147 0 256 77q109 78 166 204
l147 -66q-83 -168 -230 -265q-148 -97 -335 -97zM657 1354v284h158v-284h-158z" />
    <glyph glyph-name="cdotaccent.smcp" unicode="&#xf629;" horiz-adv-x="1353" 
d="M727 -16q-268 0 -448 184q-181 186 -181 442q0 261 184 445q182 182 441 182q176 0 327 -92q149 -91 228 -244l-141 -74q-61 119 -168 190q-109 73 -244 73q-198 0 -332 -142q-133 -140 -133 -338q0 -200 135 -340q135 -139 328 -139q147 0 256 77q109 78 166 204
l147 -66q-83 -168 -230 -265q-148 -97 -335 -97zM657 1354v284h158v-284h-158z" />
    <glyph glyph-name="ccedilla.smcp" unicode="&#xe238;" horiz-adv-x="1353" 
d="M715 -479q-177 0 -299 114l125 76q91 -73 174 -73q59 0 99 24t40 59q0 74 -145 74h-84v197q-229 34 -378 211q-149 176 -149 407q0 261 184 445q182 182 441 182q176 0 327 -92q149 -91 228 -244l-141 -74q-61 119 -168 190q-109 73 -244 73q-198 0 -332 -142
q-133 -140 -133 -338q0 -200 135 -340q135 -139 328 -139q147 0 256 77q109 78 166 204l147 -66q-79 -162 -218 -256q-142 -97 -316 -104v-92q106 0 176 -48q67 -46 67 -118q0 -91 -83 -149t-203 -58z" />
    <glyph glyph-name="ccedilla.smcp" unicode="&#xf7e7;" horiz-adv-x="1353" 
d="M715 -479q-177 0 -299 114l125 76q91 -73 174 -73q59 0 99 24t40 59q0 74 -145 74h-84v197q-229 34 -378 211q-149 176 -149 407q0 261 184 445q182 182 441 182q176 0 327 -92q149 -91 228 -244l-141 -74q-61 119 -168 190q-109 73 -244 73q-198 0 -332 -142
q-133 -140 -133 -338q0 -200 135 -340q135 -139 328 -139q147 0 256 77q109 78 166 204l147 -66q-79 -162 -218 -256q-142 -97 -316 -104v-92q106 0 176 -48q67 -46 67 -118q0 -91 -83 -149t-203 -58z" />
    <glyph glyph-name="dcaron.smcp" unicode="&#xe239;" horiz-adv-x="1218" 
d="M143 0v1221h340q286 0 462 -173q175 -172 175 -438q0 -262 -179 -436t-452 -174h-346zM469 1073h-168v-923h174q213 0 347 131t134 329q0 205 -130 334t-357 129zM483 1339l-243 332h163l146 -205l147 205h164l-244 -332h-133z" />
    <glyph glyph-name="dcaron.smcp" unicode="&#xf645;" horiz-adv-x="1218" 
d="M143 0v1221h340q286 0 462 -173q175 -172 175 -438q0 -262 -179 -436t-452 -174h-346zM469 1073h-168v-923h174q213 0 347 131t134 329q0 205 -130 334t-357 129zM483 1339l-243 332h163l146 -205l147 205h164l-244 -332h-133z" />
    <glyph glyph-name="dcroat.smcp" unicode="&#xe23c;" horiz-adv-x="1275" 
d="M57 543v143h144v535h340q285 0 461 -173t176 -438q0 -261 -180 -436q-178 -174 -451 -174h-346v543h-144zM657 543h-299v-393h174q214 0 348 131t134 329q0 205 -130 334t-358 129h-168v-387h299v-143z" />
    <glyph glyph-name="dcroat.smcp" unicode="&#xf646;" horiz-adv-x="1275" 
d="M57 543v143h144v535h340q285 0 461 -173t176 -438q0 -261 -180 -436q-178 -174 -451 -174h-346v543h-144zM657 543h-299v-393h174q214 0 348 131t134 329q0 205 -130 334t-358 129h-168v-387h299v-143z" />
    <glyph glyph-name="eacute.smcp" unicode="&#xe23d;" horiz-adv-x="993" 
d="M143 0v1221h736v-148h-578v-387h578v-147h-578v-389h578v-150h-736zM399 1339l240 332h205l-297 -332h-148z" />
    <glyph glyph-name="eacute.smcp" unicode="&#xf7e9;" horiz-adv-x="993" 
d="M143 0v1221h736v-148h-578v-387h578v-147h-578v-389h578v-150h-736zM399 1339l240 332h205l-297 -332h-148z" />
    <glyph glyph-name="egrave.smcp" unicode="&#xe23e;" horiz-adv-x="993" 
d="M143 0v1221h736v-148h-578v-387h578v-147h-578v-389h578v-150h-736zM473 1339l-297 332h203l242 -332h-148z" />
    <glyph glyph-name="egrave.smcp" unicode="&#xf7e8;" horiz-adv-x="993" 
d="M143 0v1221h736v-148h-578v-387h578v-147h-578v-389h578v-150h-736zM473 1339l-297 332h203l242 -332h-148z" />
    <glyph glyph-name="ecircumflex.smcp" unicode="&#xe23f;" horiz-adv-x="993" 
d="M143 0v1221h736v-148h-578v-387h578v-147h-578v-389h578v-150h-736zM205 1339l244 332h135l243 -332h-163l-148 205l-145 -205h-166z" />
    <glyph glyph-name="ecircumflex.smcp" unicode="&#xf7ea;" horiz-adv-x="993" 
d="M143 0v1221h736v-148h-578v-387h578v-147h-578v-389h578v-150h-736zM205 1339l244 332h135l243 -332h-163l-148 205l-145 -205h-166z" />
    <glyph glyph-name="gcommaaccent.smcp" unicode="&#xe240;" horiz-adv-x="1437" 
d="M729 -16q-265 0 -448 183t-183 443t184 444q183 183 449 183q179 0 322 -85q144 -86 223 -230l-139 -82q-62 114 -167 182q-106 68 -239 68q-203 0 -337 -142t-134 -338q0 -199 133 -339t336 -140q179 0 297 106q116 104 145 273h-460v152h628v-52q0 -261 -168 -444
q-167 -182 -442 -182zM680 -561h-109l84 418h146z" />
    <glyph glyph-name="gcommaaccent.smcp" unicode="&#xf64c;" horiz-adv-x="1437" 
d="M729 -16q-265 0 -448 183t-183 443t184 444q183 183 449 183q179 0 322 -85q144 -86 223 -230l-139 -82q-62 114 -167 182q-106 68 -239 68q-203 0 -337 -142t-134 -338q0 -199 133 -339t336 -140q179 0 297 106q116 104 145 273h-460v152h628v-52q0 -261 -168 -444
q-167 -182 -442 -182zM680 -561h-109l84 418h146z" />
    <glyph glyph-name="ecaron.smcp" unicode="&#xe241;" horiz-adv-x="993" 
d="M143 0v1221h736v-148h-578v-387h578v-147h-578v-389h578v-150h-736zM446 1339l-243 332h164l145 -205l147 205h164l-243 -332h-134z" />
    <glyph glyph-name="ecaron.smcp" unicode="&#xf647;" horiz-adv-x="993" 
d="M143 0v1221h736v-148h-578v-387h578v-147h-578v-389h578v-150h-736zM446 1339l-243 332h164l145 -205l147 205h164l-243 -332h-134z" />
    <glyph glyph-name="emacron.smcp" unicode="&#xe242;" horiz-adv-x="993" 
d="M143 0v1221h736v-148h-578v-387h578v-147h-578v-389h578v-150h-736zM242 1339v138h540v-138h-540z" />
    <glyph glyph-name="emacron.smcp" unicode="&#xf649;" horiz-adv-x="993" 
d="M143 0v1221h736v-148h-578v-387h578v-147h-578v-389h578v-150h-736zM242 1339v138h540v-138h-540z" />
    <glyph glyph-name="ebreve.smcp" unicode="&#xe243;" horiz-adv-x="993" 
d="M143 0v1221h736v-148h-578v-387h578v-147h-578v-389h578v-150h-736zM512 1325q-162 0 -246 94q-84 95 -84 240h135q0 -97 51 -156q50 -58 144 -59q92 2 142 59q51 59 51 156h139q0 -143 -91 -238q-91 -96 -241 -96z" />
    <glyph glyph-name="ebreve.smcp" unicode="&#xf62a;" horiz-adv-x="993" 
d="M143 0v1221h736v-148h-578v-387h578v-147h-578v-389h578v-150h-736zM512 1325q-162 0 -246 94q-84 95 -84 240h135q0 -97 51 -156q50 -58 144 -59q92 2 142 59q51 59 51 156h139q0 -143 -91 -238q-91 -96 -241 -96z" />
    <glyph glyph-name="edotaccent.smcp" unicode="&#xe246;" horiz-adv-x="993" 
d="M143 0v1221h736v-148h-578v-387h578v-147h-578v-389h578v-150h-736zM451 1354v284h157v-284h-157z" />
    <glyph glyph-name="edotaccent.smcp" unicode="&#xf648;" horiz-adv-x="993" 
d="M143 0v1221h736v-148h-578v-387h578v-147h-578v-389h578v-150h-736zM451 1354v284h157v-284h-157z" />
    <glyph glyph-name="eogonek.smcp" unicode="&#xe249;" horiz-adv-x="993" 
d="M143 0v1221h736v-148h-578v-387h578v-147h-578v-389h578v-150q-158 -95 -206 -138q-50 -44 -50 -89q0 -43 32 -63q33 -21 84 -21q69 0 152 69l125 -86q-129 -114 -277 -114q-121 0 -198 59q-78 60 -78 147q0 130 166 236h-486z" />
    <glyph glyph-name="eogonek.smcp" unicode="&#xf64a;" horiz-adv-x="993" 
d="M143 0v1221h736v-148h-578v-387h578v-147h-578v-389h578v-150q-158 -95 -206 -138q-50 -44 -50 -89q0 -43 32 -63q33 -21 84 -21q69 0 152 69l125 -86q-129 -114 -277 -114q-121 0 -198 59q-78 60 -78 147q0 130 166 236h-486z" />
    <glyph glyph-name="gcircumflex.smcp" unicode="&#xe24b;" horiz-adv-x="1437" 
d="M729 -16q-265 0 -448 183t-183 443t184 444q183 183 449 183q179 0 322 -85q144 -86 223 -230l-139 -82q-62 114 -167 182q-106 68 -239 68q-203 0 -337 -142t-134 -338q0 -199 133 -339t336 -140q179 0 297 106q116 104 145 273h-460v152h628v-52q0 -261 -168 -444
q-167 -182 -442 -182zM410 1337l243 332h135l244 -332h-164l-147 205l-146 -205h-165z" />
    <glyph glyph-name="gcircumflex.smcp" unicode="&#xf62c;" horiz-adv-x="1437" 
d="M729 -16q-265 0 -448 183t-183 443t184 444q183 183 449 183q179 0 322 -85q144 -86 223 -230l-139 -82q-62 114 -167 182q-106 68 -239 68q-203 0 -337 -142t-134 -338q0 -199 133 -339t336 -140q179 0 297 106q116 104 145 273h-460v152h628v-52q0 -261 -168 -444
q-167 -182 -442 -182zM410 1337l243 332h135l244 -332h-164l-147 205l-146 -205h-165z" />
    <glyph glyph-name="gbreve.smcp" unicode="&#xe24e;" horiz-adv-x="1437" 
d="M729 -16q-265 0 -448 183t-183 443t184 444q183 183 449 183q179 0 322 -85q144 -86 223 -230l-139 -82q-62 114 -167 182q-106 68 -239 68q-203 0 -337 -142t-134 -338q0 -199 133 -339t336 -140q179 0 297 106q116 104 145 273h-460v152h628v-52q0 -261 -168 -444
q-167 -182 -442 -182zM723 1337q-162 0 -246 95q-84 94 -84 239h135q0 -96 51 -155t144 -60q91 1 142 60q50 58 50 155h140q0 -142 -91 -237q-92 -97 -241 -97z" />
    <glyph glyph-name="gbreve.smcp" unicode="&#xf64b;" horiz-adv-x="1437" 
d="M729 -16q-265 0 -448 183t-183 443t184 444q183 183 449 183q179 0 322 -85q144 -86 223 -230l-139 -82q-62 114 -167 182q-106 68 -239 68q-203 0 -337 -142t-134 -338q0 -199 133 -339t336 -140q179 0 297 106q116 104 145 273h-460v152h628v-52q0 -261 -168 -444
q-167 -182 -442 -182zM723 1337q-162 0 -246 95q-84 94 -84 239h135q0 -96 51 -155t144 -60q91 1 142 60q50 58 50 155h140q0 -142 -91 -237q-92 -97 -241 -97z" />
    <glyph glyph-name="gdotaccent.smcp" unicode="&#xe24f;" horiz-adv-x="1437" 
d="M729 -16q-265 0 -448 183t-183 443t184 444q183 183 449 183q179 0 322 -85q144 -86 223 -230l-139 -82q-62 114 -167 182q-106 68 -239 68q-203 0 -337 -142t-134 -338q0 -199 133 -339t336 -140q179 0 297 106q116 104 145 273h-460v152h628v-52q0 -261 -168 -444
q-167 -182 -442 -182zM651 1354v284h158v-284h-158z" />
    <glyph glyph-name="gdotaccent.smcp" unicode="&#xf62d;" horiz-adv-x="1437" 
d="M729 -16q-265 0 -448 183t-183 443t184 444q183 183 449 183q179 0 322 -85q144 -86 223 -230l-139 -82q-62 114 -167 182q-106 68 -239 68q-203 0 -337 -142t-134 -338q0 -199 133 -339t336 -140q179 0 297 106q116 104 145 273h-460v152h628v-52q0 -261 -168 -444
q-167 -182 -442 -182zM651 1354v284h158v-284h-158z" />
    <glyph glyph-name="hcircumflex.smcp" unicode="&#xe253;" horiz-adv-x="1198" 
d="M897 0v539h-596v-539h-158v1221h158v-533h596v533h158v-1221h-158zM281 1337l243 332h135l244 -332h-164l-147 205l-146 -205h-165z" />
    <glyph glyph-name="hcircumflex.smcp" unicode="&#xf62f;" horiz-adv-x="1198" 
d="M897 0v539h-596v-539h-158v1221h158v-533h596v533h158v-1221h-158zM281 1337l243 332h135l244 -332h-164l-147 205l-146 -205h-165z" />
    <glyph glyph-name="hbar.smcp" unicode="&#xe257;" horiz-adv-x="1304" 
d="M950 0v539h-596v-539h-157v881h-144v149h144v191h157v-191h596v191h158v-191h143v-149h-143v-881h-158zM354 881v-193h596v193h-596z" />
    <glyph glyph-name="hbar.smcp" unicode="&#xf62e;" horiz-adv-x="1304" 
d="M950 0v539h-596v-539h-157v881h-144v149h144v191h157v-191h596v191h158v-191h143v-149h-143v-881h-158zM354 881v-193h596v193h-596z" />
    <glyph glyph-name="iacute.smcp" unicode="&#xe258;" horiz-adv-x="468" 
d="M147 1339l240 332h205l-297 -332h-148zM154 0v1221h161v-1221h-161z" />
    <glyph glyph-name="iacute.smcp" unicode="&#xf7ed;" horiz-adv-x="468" 
d="M147 1339l240 332h205l-297 -332h-148zM154 0v1221h161v-1221h-161z" />
    <glyph glyph-name="igrave.smcp" unicode="&#xe259;" horiz-adv-x="468" 
d="M158 1339l-297 332h202l242 -332h-147zM154 0v1221h161v-1221h-161z" />
    <glyph glyph-name="igrave.smcp" unicode="&#xf7ec;" horiz-adv-x="468" 
d="M158 1339l-297 332h202l242 -332h-147zM154 0v1221h161v-1221h-161z" />
    <glyph glyph-name="icircumflex.smcp" unicode="&#xe25a;" horiz-adv-x="468" 
d="M154 0v1221h161v-1221h-161zM-82 1323l244 332h135l244 -332h-164l-148 205l-145 -205h-166z" />
    <glyph glyph-name="icircumflex.smcp" unicode="&#xf7ee;" horiz-adv-x="468" 
d="M154 0v1221h161v-1221h-161zM-82 1323l244 332h135l244 -332h-164l-148 205l-145 -205h-166z" />
    <glyph glyph-name="idieresis.smcp" unicode="&#xe25b;" horiz-adv-x="468" 
d="M365 1354v284h157v-284h-157zM-51 1354v284h157v-284h-157zM154 0v1221h161v-1221h-161z" />
    <glyph glyph-name="idieresis.smcp" unicode="&#xf7ef;" horiz-adv-x="468" 
d="M365 1354v284h157v-284h-157zM-51 1354v284h157v-284h-157zM154 0v1221h161v-1221h-161z" />
    <glyph glyph-name="itilde.smcp" unicode="&#xe25c;" horiz-adv-x="468" 
d="M-119 1339q0 111 57 179q57 67 146 67q72 0 166 -55q90 -57 129 -57q80 0 80 106h127q0 -113 -54 -181q-53 -67 -151 -67q-73 0 -186 68q-78 45 -111 45q-76 0 -76 -105h-127zM154 0v1221h161v-1221h-161z" />
    <glyph glyph-name="itilde.smcp" unicode="&#xf632;" horiz-adv-x="468" 
d="M-119 1339q0 111 57 179q57 67 146 67q72 0 166 -55q90 -57 129 -57q80 0 80 106h127q0 -113 -54 -181q-53 -67 -151 -67q-73 0 -186 68q-78 45 -111 45q-76 0 -76 -105h-127zM154 0v1221h161v-1221h-161z" />
    <glyph glyph-name="imacron.smcp" unicode="&#xe25e;" horiz-adv-x="468" 
d="M-41 1339v138h541v-138h-541zM154 0v1221h161v-1221h-161z" />
    <glyph glyph-name="imacron.smcp" unicode="&#xf64d;" horiz-adv-x="468" 
d="M-41 1339v138h541v-138h-541zM154 0v1221h161v-1221h-161z" />
    <glyph glyph-name="ibreve.smcp" unicode="&#xe25f;" horiz-adv-x="468" 
d="M231 1325q-161 0 -245 94q-84 95 -84 240h135q0 -98 50 -156t144 -59q93 2 143 59q50 58 50 156h139q0 -143 -91 -238q-92 -96 -241 -96zM154 0v1221h161v-1221h-161z" />
    <glyph glyph-name="ibreve.smcp" unicode="&#xf630;" horiz-adv-x="468" 
d="M231 1325q-161 0 -245 94q-84 95 -84 240h135q0 -98 50 -156t144 -59q93 2 143 59q50 58 50 156h139q0 -143 -91 -238q-92 -96 -241 -96zM154 0v1221h161v-1221h-161z" />
    <glyph glyph-name="idotaccent.smcp" unicode="&#xe262;" horiz-adv-x="468" 
d="M154 0v1221h161v-1221h-161zM154 1337v285h157v-285h-157z" />
    <glyph glyph-name="idotaccent.smcp" unicode="&#xf666;" horiz-adv-x="468" 
d="M154 0v1221h161v-1221h-161zM154 1337v285h157v-285h-157z" />
    <glyph glyph-name="iogonek.smcp" unicode="&#xe264;" horiz-adv-x="468" 
d="M254 -444q-124 0 -187 64t-63 159q0 127 150 252v1190h161v-1221q-161 -128 -161 -215q0 -41 27 -68q26 -26 73 -26q67 0 131 53l90 -111q-105 -77 -221 -77z" />
    <glyph glyph-name="iogonek.smcp" unicode="&#xf64e;" horiz-adv-x="468" 
d="M254 -444q-124 0 -187 64t-63 159q0 127 150 252v1190h161v-1221q-161 -128 -161 -215q0 -41 27 -68q26 -26 73 -26q67 0 131 53l90 -111q-105 -77 -221 -77z" />
    <glyph glyph-name="jcircumflex.smcp" unicode="&#xe265;" horiz-adv-x="823" 
d="M369 -16q-117 0 -205 55q-87 55 -125 147l149 74q50 -129 179 -129q75 0 120 53q45 52 45 144v893h158v-885q0 -170 -85 -261t-236 -91zM289 1319l243 332h136l243 -332h-163l-148 205l-145 -205h-166z" />
    <glyph glyph-name="jcircumflex.smcp" unicode="&#xf633;" horiz-adv-x="823" 
d="M369 -16q-117 0 -205 55q-87 55 -125 147l149 74q50 -129 179 -129q75 0 120 53q45 52 45 144v893h158v-885q0 -170 -85 -261t-236 -91zM289 1319l243 332h136l243 -332h-163l-148 205l-145 -205h-166z" />
    <glyph glyph-name="kcommaaccent.smcp" unicode="&#xe268;" horiz-adv-x="1128" 
d="M891 0l-385 629l-205 -228v-401h-158v1221h158v-621l557 621h195l-435 -482l453 -739h-180zM545 -520h-109l84 418h146z" />
    <glyph glyph-name="kcommaaccent.smcp" unicode="&#xf64f;" horiz-adv-x="1128" 
d="M891 0l-385 629l-205 -228v-401h-158v1221h158v-621l557 621h195l-435 -482l453 -739h-180zM545 -520h-109l84 418h146z" />
    <glyph glyph-name="lacute.smcp" unicode="&#xe26b;" horiz-adv-x="915" 
d="M143 0v1221h158v-1069h518v-152h-676zM137 1339l240 332h205l-297 -332h-148z" />
    <glyph glyph-name="lacute.smcp" unicode="&#xf650;" horiz-adv-x="915" 
d="M143 0v1221h158v-1069h518v-152h-676zM137 1339l240 332h205l-297 -332h-148z" />
    <glyph glyph-name="lcaron.smcp" unicode="&#xe26c;" horiz-adv-x="915" 
d="M143 0v1221h158v-1069h518v-152h-676zM612 844l84 377h146l-121 -377h-109z" />
    <glyph glyph-name="lcaron.smcp" unicode="&#xf651;" horiz-adv-x="915" 
d="M143 0v1221h158v-1069h518v-152h-676zM612 844l84 377h146l-121 -377h-109z" />
    <glyph glyph-name="lcommaaccent.smcp" unicode="&#xe26d;" horiz-adv-x="915" 
d="M143 0v1221h158v-1069h518v-152h-676zM440 -520h-108l84 418h145z" />
    <glyph glyph-name="lcommaaccent.smcp" unicode="&#xf652;" horiz-adv-x="915" 
d="M143 0v1221h158v-1069h518v-152h-676zM440 -520h-108l84 418h145z" />
    <glyph glyph-name="ldot.smcp" unicode="&#xe271;" horiz-adv-x="915" 
d="M143 0v1221h158v-1069h518v-152h-676zM659 520v285h158v-285h-158z" />
    <glyph glyph-name="ldot.smcp" unicode="&#xf634;" horiz-adv-x="915" 
d="M143 0v1221h158v-1069h518v-152h-676zM659 520v285h158v-285h-158z" />
    <glyph glyph-name="lslash.smcp" unicode="&#xe272;" horiz-adv-x="962" 
d="M35 397v138l155 71v615h158v-543l357 166v-139l-357 -164v-389h518v-152h-676v469z" />
    <glyph glyph-name="lslash.smcp" unicode="&#xf6f9;" horiz-adv-x="962" 
d="M35 397v138l155 71v615h158v-543l357 166v-139l-357 -164v-389h518v-152h-676v469z" />
    <glyph glyph-name="nacute.smcp" unicode="&#xe276;" horiz-adv-x="1288" 
d="M143 0v1221h176l668 -965v965h158v-1221h-168l-676 975v-975h-158zM573 1323l240 332h205l-297 -332h-148z" />
    <glyph glyph-name="nacute.smcp" unicode="&#xf653;" horiz-adv-x="1288" 
d="M143 0v1221h176l668 -965v965h158v-1221h-168l-676 975v-975h-158zM573 1323l240 332h205l-297 -332h-148z" />
    <glyph glyph-name="ntilde.smcp" unicode="&#xe279;" horiz-adv-x="1288" 
d="M143 0v1221h176l668 -965v965h158v-1221h-168l-676 975v-975h-158zM297 1339q0 113 56 179q57 67 147 67q72 0 166 -55q90 -57 129 -57q79 0 79 106h127q0 -114 -53 -181t-151 -67q-74 0 -187 68q-78 45 -110 45q-76 0 -76 -105h-127z" />
    <glyph glyph-name="ncaron.smcp" unicode="&#xe27a;" horiz-adv-x="1288" 
d="M143 0v1221h176l668 -965v965h158v-1221h-168l-676 975v-975h-158zM582 1323l-244 332h164l145 -205l148 205h163l-243 -332h-133z" />
    <glyph glyph-name="ncaron.smcp" unicode="&#xf654;" horiz-adv-x="1288" 
d="M143 0v1221h176l668 -965v965h158v-1221h-168l-676 975v-975h-158zM582 1323l-244 332h164l145 -205l148 205h163l-243 -332h-133z" />
    <glyph glyph-name="ncommaaccent.smcp" unicode="&#xe27d;" horiz-adv-x="1288" 
d="M143 0v1221h176l668 -965v965h158v-1221h-168l-676 975v-975h-158zM621 -520h-109l84 418h145z" />
    <glyph glyph-name="ncommaaccent.smcp" unicode="&#xf655;" horiz-adv-x="1288" 
d="M143 0v1221h176l668 -965v965h158v-1221h-168l-676 975v-975h-158zM621 -520h-109l84 418h145z" />
    <glyph glyph-name="oacute.smcp" unicode="&#xe281;" horiz-adv-x="1447" 
d="M621 1339l239 332h205l-297 -332h-147zM723 -16q-259 0 -442 183t-183 443q0 261 183 444t442 183q260 0 443 -183q184 -184 184 -444q0 -259 -184 -443q-183 -183 -443 -183zM723 131q196 0 329 140q134 142 134 339t-134 339q-133 141 -329 141q-195 0 -329 -141
q-134 -142 -134 -339t134 -339q133 -140 329 -140z" />
    <glyph glyph-name="oacute.smcp" unicode="&#xf7f3;" horiz-adv-x="1447" 
d="M621 1339l239 332h205l-297 -332h-147zM723 -16q-259 0 -442 183t-183 443q0 261 183 444t442 183q260 0 443 -183q184 -184 184 -444q0 -259 -184 -443q-183 -183 -443 -183zM723 131q196 0 329 140q134 142 134 339t-134 339q-133 141 -329 141q-195 0 -329 -141
q-134 -142 -134 -339t134 -339q133 -140 329 -140z" />
    <glyph glyph-name="ograve.smcp" unicode="&#xe282;" horiz-adv-x="1447" 
d="M723 -16q-259 0 -442 183t-183 443q0 261 183 444t442 183q260 0 443 -183q184 -184 184 -444q0 -259 -184 -443q-183 -183 -443 -183zM723 131q196 0 329 140q134 142 134 339t-134 339q-133 141 -329 141q-195 0 -329 -141q-134 -142 -134 -339t134 -339
q133 -140 329 -140zM649 1339l-297 332h203l242 -332h-148z" />
    <glyph glyph-name="ograve.smcp" unicode="&#xf7f2;" horiz-adv-x="1447" 
d="M723 -16q-259 0 -442 183t-183 443q0 261 183 444t442 183q260 0 443 -183q184 -184 184 -444q0 -259 -184 -443q-183 -183 -443 -183zM723 131q196 0 329 140q134 142 134 339t-134 339q-133 141 -329 141q-195 0 -329 -141q-134 -142 -134 -339t134 -339
q133 -140 329 -140zM649 1339l-297 332h203l242 -332h-148z" />
    <glyph glyph-name="ocircumflex.smcp" unicode="&#xe283;" horiz-adv-x="1447" 
d="M723 -16q-259 0 -442 183t-183 443q0 261 183 444t442 183q260 0 443 -183q184 -184 184 -444q0 -259 -184 -443q-183 -183 -443 -183zM723 131q196 0 329 140q134 142 134 339t-134 339q-133 141 -329 141q-195 0 -329 -141q-134 -142 -134 -339t134 -339
q133 -140 329 -140zM412 1331l243 332h136l243 -332h-164l-147 205l-145 -205h-166z" />
    <glyph glyph-name="ocircumflex.smcp" unicode="&#xf7f4;" horiz-adv-x="1447" 
d="M723 -16q-259 0 -442 183t-183 443q0 261 183 444t442 183q260 0 443 -183q184 -184 184 -444q0 -259 -184 -443q-183 -183 -443 -183zM723 131q196 0 329 140q134 142 134 339t-134 339q-133 141 -329 141q-195 0 -329 -141q-134 -142 -134 -339t134 -339
q133 -140 329 -140zM412 1331l243 332h136l243 -332h-164l-147 205l-145 -205h-166z" />
    <glyph glyph-name="odieresis.smcp" unicode="&#xe284;" horiz-adv-x="1447" 
d="M786 1352v284h158v-284h-158zM512 1352v284h158v-284h-158zM723 -16q-259 0 -442 183t-183 443q0 261 183 444t442 183q260 0 443 -183q184 -184 184 -444q0 -259 -184 -443q-183 -183 -443 -183zM723 131q196 0 329 140q134 142 134 339t-134 339q-133 141 -329 141
q-195 0 -329 -141q-134 -142 -134 -339t134 -339q133 -140 329 -140z" />
    <glyph glyph-name="odieresis.smcp" unicode="&#xf7f6;" horiz-adv-x="1447" 
d="M786 1352v284h158v-284h-158zM512 1352v284h158v-284h-158zM723 -16q-259 0 -442 183t-183 443q0 261 183 444t442 183q260 0 443 -183q184 -184 184 -444q0 -259 -184 -443q-183 -183 -443 -183zM723 131q196 0 329 140q134 142 134 339t-134 339q-133 141 -329 141
q-195 0 -329 -141q-134 -142 -134 -339t134 -339q133 -140 329 -140z" />
    <glyph glyph-name="otilde.smcp" unicode="&#xe285;" horiz-adv-x="1447" 
d="M723 -16q-259 0 -442 183t-183 443q0 261 183 444t442 183q260 0 443 -183q184 -184 184 -444q0 -259 -184 -443q-183 -183 -443 -183zM723 131q196 0 329 140q134 142 134 339t-134 339q-133 141 -329 141q-195 0 -329 -141q-134 -142 -134 -339t134 -339
q133 -140 329 -140zM373 1339q0 113 56 179q57 67 146 67q72 0 166 -55q90 -57 129 -57q80 0 80 106h127q0 -114 -53 -181t-152 -67q-73 0 -186 68q-78 45 -111 45q-75 0 -75 -105h-127z" />
    <glyph glyph-name="otilde.smcp" unicode="&#xf7f5;" horiz-adv-x="1447" 
d="M723 -16q-259 0 -442 183t-183 443q0 261 183 444t442 183q260 0 443 -183q184 -184 184 -444q0 -259 -184 -443q-183 -183 -443 -183zM723 131q196 0 329 140q134 142 134 339t-134 339q-133 141 -329 141q-195 0 -329 -141q-134 -142 -134 -339t134 -339
q133 -140 329 -140zM373 1339q0 113 56 179q57 67 146 67q72 0 166 -55q90 -57 129 -57q80 0 80 106h127q0 -114 -53 -181t-152 -67q-73 0 -186 68q-78 45 -111 45q-75 0 -75 -105h-127z" />
    <glyph glyph-name="omacron.smcp" unicode="&#xe287;" horiz-adv-x="1447" 
d="M455 1339v138h540v-138h-540zM723 -16q-259 0 -442 183t-183 443q0 261 183 444t442 183q260 0 443 -183q184 -184 184 -444q0 -259 -184 -443q-183 -183 -443 -183zM723 131q196 0 329 140q134 142 134 339t-134 339q-133 141 -329 141q-195 0 -329 -141
q-134 -142 -134 -339t134 -339q133 -140 329 -140z" />
    <glyph glyph-name="omacron.smcp" unicode="&#xf657;" horiz-adv-x="1447" 
d="M455 1339v138h540v-138h-540zM723 -16q-259 0 -442 183t-183 443q0 261 183 444t442 183q260 0 443 -183q184 -184 184 -444q0 -259 -184 -443q-183 -183 -443 -183zM723 131q196 0 329 140q134 142 134 339t-134 339q-133 141 -329 141q-195 0 -329 -141
q-134 -142 -134 -339t134 -339q133 -140 329 -140z" />
    <glyph glyph-name="obreve.smcp" unicode="&#xe288;" horiz-adv-x="1447" 
d="M723 -16q-259 0 -442 183t-183 443q0 261 183 444t442 183q260 0 443 -183q184 -184 184 -444q0 -259 -184 -443q-183 -183 -443 -183zM723 131q196 0 329 140q134 142 134 339t-134 339q-133 141 -329 141q-195 0 -329 -141q-134 -142 -134 -339t134 -339
q133 -140 329 -140zM721 1337q-162 0 -246 95q-84 94 -84 239h135q0 -96 51 -155t144 -60q91 1 142 60q50 58 50 155h140q0 -142 -91 -237q-92 -97 -241 -97z" />
    <glyph glyph-name="obreve.smcp" unicode="&#xf635;" horiz-adv-x="1447" 
d="M723 -16q-259 0 -442 183t-183 443q0 261 183 444t442 183q260 0 443 -183q184 -184 184 -444q0 -259 -184 -443q-183 -183 -443 -183zM723 131q196 0 329 140q134 142 134 339t-134 339q-133 141 -329 141q-195 0 -329 -141q-134 -142 -134 -339t134 -339
q133 -140 329 -140zM721 1337q-162 0 -246 95q-84 94 -84 239h135q0 -96 51 -155t144 -60q91 1 142 60q50 58 50 155h140q0 -142 -91 -237q-92 -97 -241 -97z" />
    <glyph glyph-name="ohungarumlaut.smcp" unicode="&#xe28a;" horiz-adv-x="1447" 
d="M496 1339l239 332h193l-297 -332h-135zM786 1339l242 332h193l-297 -332h-138zM723 -16q-259 0 -442 183t-183 443q0 261 183 444t442 183q260 0 443 -183q184 -184 184 -444q0 -259 -184 -443q-183 -183 -443 -183zM723 131q196 0 329 140q134 142 134 339t-134 339
q-133 141 -329 141q-195 0 -329 -141q-134 -142 -134 -339t134 -339q133 -140 329 -140z" />
    <glyph glyph-name="ohungarumlaut.smcp" unicode="&#xf656;" horiz-adv-x="1447" 
d="M496 1339l239 332h193l-297 -332h-135zM786 1339l242 332h193l-297 -332h-138zM723 -16q-259 0 -442 183t-183 443q0 261 183 444t442 183q260 0 443 -183q184 -184 184 -444q0 -259 -184 -443q-183 -183 -443 -183zM723 131q196 0 329 140q134 142 134 339t-134 339
q-133 141 -329 141q-195 0 -329 -141q-134 -142 -134 -339t134 -339q133 -140 329 -140z" />
    <glyph glyph-name="oslash.smcp" unicode="&#xe295;" horiz-adv-x="1447" 
d="M723 -16q-173 0 -322 88l-57 -72h-186l127 162q-187 184 -187 448q0 261 183 444t442 183q169 0 326 -92l59 76h184l-129 -166q187 -184 187 -445q0 -259 -184 -443q-183 -183 -443 -183zM258 610q0 -184 123 -323l571 735q-106 61 -229 61q-195 0 -330 -139
q-135 -140 -135 -334zM723 137q195 0 330 138t135 335q0 184 -121 320l-571 -735q107 -58 227 -58z" />
    <glyph glyph-name="oslash.smcp" unicode="&#xf7f8;" horiz-adv-x="1447" 
d="M723 -16q-173 0 -322 88l-57 -72h-186l127 162q-187 184 -187 448q0 261 183 444t442 183q169 0 326 -92l59 76h184l-129 -166q187 -184 187 -445q0 -259 -184 -443q-183 -183 -443 -183zM258 610q0 -184 123 -323l571 735q-106 61 -229 61q-195 0 -330 -139
q-135 -140 -135 -334zM723 137q195 0 330 138t135 335q0 184 -121 320l-571 -735q107 -58 227 -58z" />
    <glyph glyph-name="oslashacute.smcp" unicode="&#xe296;" horiz-adv-x="1452" 
d="M725 -16q-173 0 -322 88l-57 -72h-186l127 162q-187 184 -187 448q0 261 183 444t442 183q169 0 326 -92l59 76h184l-129 -166q187 -184 187 -445q0 -259 -184 -443q-183 -183 -443 -183zM260 610q0 -184 123 -323l571 735q-106 61 -229 61q-195 0 -330 -139
q-135 -140 -135 -334zM725 137q195 0 330 138t135 335q0 184 -121 320l-571 -735q107 -58 227 -58zM629 1339l239 332h205l-297 -332h-147z" />
    <glyph glyph-name="oslashacute.smcp" unicode="&#xf627;" horiz-adv-x="1452" 
d="M725 -16q-173 0 -322 88l-57 -72h-186l127 162q-187 184 -187 448q0 261 183 444t442 183q169 0 326 -92l59 76h184l-129 -166q187 -184 187 -445q0 -259 -184 -443q-183 -183 -443 -183zM260 610q0 -184 123 -323l571 735q-106 61 -229 61q-195 0 -330 -139
q-135 -140 -135 -334zM725 137q195 0 330 138t135 335q0 184 -121 320l-571 -735q107 -58 227 -58zM629 1339l239 332h205l-297 -332h-147z" />
    <glyph glyph-name="oe.smcp" unicode="&#xe298;" horiz-adv-x="2035" 
d="M1186 0v211q-173 -227 -463 -227q-259 0 -442 183t-183 443q0 261 183 444t442 183q288 0 463 -229v213h735v-148h-578v-387h578v-147h-578v-389h578v-150h-735zM723 131q191 0 323 133q133 134 140 326v20q0 197 -134 339q-133 141 -329 141q-195 0 -329 -141
q-134 -142 -134 -339t134 -339q133 -140 329 -140z" />
    <glyph glyph-name="oe.smcp" unicode="&#xf6fa;" horiz-adv-x="2035" 
d="M1186 0v211q-173 -227 -463 -227q-259 0 -442 183t-183 443q0 261 183 444t442 183q288 0 463 -229v213h735v-148h-578v-387h578v-147h-578v-389h578v-150h-735zM723 131q191 0 323 133q133 134 140 326v20q0 197 -134 339q-133 141 -329 141q-195 0 -329 -141
q-134 -142 -134 -339t134 -339q133 -140 329 -140z" />
    <glyph glyph-name="racute.smcp" unicode="&#xe29a;" horiz-adv-x="1046" 
d="M143 0v1221h379q184 0 304 -114t120 -282q0 -130 -76 -231q-77 -103 -206 -137l299 -457h-189l-364 571h92q128 0 205 78q75 76 75 176q0 114 -67 181t-201 67h-209v-1073h-162zM418 1339l239 332h205l-297 -332h-147z" />
    <glyph glyph-name="racute.smcp" unicode="&#xf658;" horiz-adv-x="1046" 
d="M143 0v1221h379q184 0 304 -114t120 -282q0 -130 -76 -231q-77 -103 -206 -137l299 -457h-189l-364 571h92q128 0 205 78q75 76 75 176q0 114 -67 181t-201 67h-209v-1073h-162zM418 1339l239 332h205l-297 -332h-147z" />
    <glyph glyph-name="rcaron.smcp" unicode="&#xe29b;" horiz-adv-x="1046" 
d="M143 0v1221h379q184 0 304 -114t120 -282q0 -130 -76 -231q-77 -103 -206 -137l299 -457h-189l-364 571h92q128 0 205 78q75 76 75 176q0 114 -67 181t-201 67h-209v-1073h-162zM479 1339l-243 332h163l146 -205l147 205h164l-244 -332h-133z" />
    <glyph glyph-name="rcaron.smcp" unicode="&#xf659;" horiz-adv-x="1046" 
d="M143 0v1221h379q184 0 304 -114t120 -282q0 -130 -76 -231q-77 -103 -206 -137l299 -457h-189l-364 571h92q128 0 205 78q75 76 75 176q0 114 -67 181t-201 67h-209v-1073h-162zM479 1339l-243 332h163l146 -205l147 205h164l-244 -332h-133z" />
    <glyph glyph-name="rcommaaccent.smcp" unicode="&#xe29e;" horiz-adv-x="1046" 
d="M143 0v1221h379q184 0 304 -114t120 -282q0 -130 -76 -231q-77 -103 -206 -137l299 -457h-189l-364 571h92q128 0 205 78q75 76 75 176q0 114 -67 181t-201 67h-209v-1073h-162zM489 -520h-108l84 418h145z" />
    <glyph glyph-name="rcommaaccent.smcp" unicode="&#xf65a;" horiz-adv-x="1046" 
d="M143 0v1221h379q184 0 304 -114t120 -282q0 -130 -76 -231q-77 -103 -206 -137l299 -457h-189l-364 571h92q128 0 205 78q75 76 75 176q0 114 -67 181t-201 67h-209v-1073h-162zM489 -520h-108l84 418h145z" />
    <glyph glyph-name="ucircumflex.smcp" unicode="&#xe300;" horiz-adv-x="1099" 
d="M549 -16q-185 0 -300 111q-116 111 -116 302v824h158v-832q0 -117 71 -187q73 -71 189 -71q113 0 186 71q72 71 72 187v832h158v-824q0 -191 -117 -302t-301 -111zM227 1339l244 332h135l244 -332h-164l-147 205l-146 -205h-166z" />
    <glyph glyph-name="ucircumflex.smcp" unicode="&#xf7fb;" horiz-adv-x="1099" 
d="M549 -16q-185 0 -300 111q-116 111 -116 302v824h158v-832q0 -117 71 -187q73 -71 189 -71q113 0 186 71q72 71 72 187v832h158v-824q0 -191 -117 -302t-301 -111zM227 1339l244 332h135l244 -332h-164l-147 205l-146 -205h-166z" />
    <glyph glyph-name="sacute.smcp" unicode="&#xe302;" horiz-adv-x="978" 
d="M389 1339l240 332h205l-297 -332h-148zM487 -16q-269 0 -442 221l139 108q112 -182 301 -182q103 0 169 60q67 61 67 151q0 61 -41 105t-89 65q-42 18 -134 49q-15 5 -21 6q-92 31 -127 47q-47 21 -103 61q-58 41 -84 98q-28 61 -28 138q0 140 110 233t271 93
q242 0 389 -180l-129 -99q-86 140 -258 140q-97 0 -158 -52t-61 -133q0 -44 20 -79q20 -36 57 -58q33 -20 82 -40q17 -7 101 -38q15 -4 21 -6q84 -28 127 -48q49 -22 105 -61q60 -41 86 -100q28 -62 28 -141q0 -146 -111 -252q-110 -106 -287 -106z" />
    <glyph glyph-name="sacute.smcp" unicode="&#xf65b;" horiz-adv-x="978" 
d="M389 1339l240 332h205l-297 -332h-148zM487 -16q-269 0 -442 221l139 108q112 -182 301 -182q103 0 169 60q67 61 67 151q0 61 -41 105t-89 65q-42 18 -134 49q-15 5 -21 6q-92 31 -127 47q-47 21 -103 61q-58 41 -84 98q-28 61 -28 138q0 140 110 233t271 93
q242 0 389 -180l-129 -99q-86 140 -258 140q-97 0 -158 -52t-61 -133q0 -44 20 -79q20 -36 57 -58q33 -20 82 -40q17 -7 101 -38q15 -4 21 -6q84 -28 127 -48q49 -22 105 -61q60 -41 86 -100q28 -62 28 -141q0 -146 -111 -252q-110 -106 -287 -106z" />
    <glyph glyph-name="scircumflex.smcp" unicode="&#xe303;" horiz-adv-x="978" 
d="M487 -16q-269 0 -442 221l139 108q112 -182 301 -182q103 0 169 60q67 61 67 151q0 61 -41 105t-89 65q-42 18 -134 49q-15 5 -21 6q-92 31 -127 47q-47 21 -103 61q-58 41 -84 98q-28 61 -28 138q0 140 110 233t271 93q242 0 389 -180l-129 -99q-86 140 -258 140
q-97 0 -158 -52t-61 -133q0 -44 20 -79q20 -36 57 -58q33 -20 82 -40q17 -7 101 -38q15 -4 21 -6q84 -28 127 -48q49 -22 105 -61q60 -41 86 -100q28 -62 28 -141q0 -146 -111 -252q-110 -106 -287 -106zM162 1337l244 332h135l243 -332h-163l-148 205l-145 -205h-166z" />
    <glyph glyph-name="scircumflex.smcp" unicode="&#xf636;" horiz-adv-x="978" 
d="M487 -16q-269 0 -442 221l139 108q112 -182 301 -182q103 0 169 60q67 61 67 151q0 61 -41 105t-89 65q-42 18 -134 49q-15 5 -21 6q-92 31 -127 47q-47 21 -103 61q-58 41 -84 98q-28 61 -28 138q0 140 110 233t271 93q242 0 389 -180l-129 -99q-86 140 -258 140
q-97 0 -158 -52t-61 -133q0 -44 20 -79q20 -36 57 -58q33 -20 82 -40q17 -7 101 -38q15 -4 21 -6q84 -28 127 -48q49 -22 105 -61q60 -41 86 -100q28 -62 28 -141q0 -146 -111 -252q-110 -106 -287 -106zM162 1337l244 332h135l243 -332h-163l-148 205l-145 -205h-166z" />
    <glyph glyph-name="scaron.smcp" unicode="&#xe304;" horiz-adv-x="978" 
d="M487 -16q-269 0 -442 221l139 108q112 -182 301 -182q103 0 169 60q67 61 67 151q0 61 -41 105t-89 65q-42 18 -134 49q-15 5 -21 6q-92 31 -127 47q-47 21 -103 61q-58 41 -84 98q-28 61 -28 138q0 140 110 233t271 93q242 0 389 -180l-129 -99q-86 140 -258 140
q-97 0 -158 -52t-61 -133q0 -44 20 -79q20 -36 57 -58q33 -20 82 -40q17 -7 101 -38q15 -4 21 -6q84 -28 127 -48q49 -22 105 -61q60 -41 86 -100q28 -62 28 -141q0 -146 -111 -252q-110 -106 -287 -106zM418 1339l-244 332h164l145 -205l148 205h164l-244 -332h-133z" />
    <glyph glyph-name="scaron.smcp" unicode="&#xf6fd;" horiz-adv-x="978" 
d="M487 -16q-269 0 -442 221l139 108q112 -182 301 -182q103 0 169 60q67 61 67 151q0 61 -41 105t-89 65q-42 18 -134 49q-15 5 -21 6q-92 31 -127 47q-47 21 -103 61q-58 41 -84 98q-28 61 -28 138q0 140 110 233t271 93q242 0 389 -180l-129 -99q-86 140 -258 140
q-97 0 -158 -52t-61 -133q0 -44 20 -79q20 -36 57 -58q33 -20 82 -40q17 -7 101 -38q15 -4 21 -6q84 -28 127 -48q49 -22 105 -61q60 -41 86 -100q28 -62 28 -141q0 -146 -111 -252q-110 -106 -287 -106zM418 1339l-244 332h164l145 -205l148 205h164l-244 -332h-133z" />
    <glyph glyph-name="scommaaccent.smcp" unicode="&#xe305;" horiz-adv-x="978" 
d="M432 -520h-108l84 418h145zM487 -16q-269 0 -442 221l139 108q112 -182 301 -182q103 0 169 60q67 61 67 151q0 61 -41 105t-89 65q-42 18 -134 49q-15 5 -21 6q-92 31 -127 47q-47 21 -103 61q-58 41 -84 98q-28 61 -28 138q0 140 110 233t271 93q242 0 389 -180
l-129 -99q-86 140 -258 140q-97 0 -158 -52t-61 -133q0 -44 20 -79q20 -36 57 -58q33 -20 82 -40q17 -7 101 -38q15 -4 21 -6q84 -28 127 -48q49 -22 105 -61q60 -41 86 -100q28 -62 28 -141q0 -146 -111 -252q-110 -106 -287 -106z" />
    <glyph glyph-name="scommaaccent.smcp" unicode="&#xf65d;" horiz-adv-x="978" 
d="M432 -520h-108l84 418h145zM487 -16q-269 0 -442 221l139 108q112 -182 301 -182q103 0 169 60q67 61 67 151q0 61 -41 105t-89 65q-42 18 -134 49q-15 5 -21 6q-92 31 -127 47q-47 21 -103 61q-58 41 -84 98q-28 61 -28 138q0 140 110 233t271 93q242 0 389 -180
l-129 -99q-86 140 -258 140q-97 0 -158 -52t-61 -133q0 -44 20 -79q20 -36 57 -58q33 -20 82 -40q17 -7 101 -38q15 -4 21 -6q84 -28 127 -48q49 -22 105 -61q60 -41 86 -100q28 -62 28 -141q0 -146 -111 -252q-110 -106 -287 -106z" />
    <glyph glyph-name="scedilla.smcp" unicode="&#xe306;" horiz-adv-x="978" 
d="M469 -479q-177 0 -299 114l125 76q91 -73 174 -73q59 0 99 24t40 59q0 74 -145 74h-84v199q-200 33 -334 211l139 108q112 -182 301 -182q103 0 169 60q67 61 67 151q0 61 -41 105t-89 65q-42 18 -134 49q-15 5 -21 6q-92 31 -127 47q-47 21 -103 61q-58 41 -84 98
q-28 61 -28 138q0 140 110 233t271 93q242 0 389 -180l-129 -99q-86 140 -258 140q-97 0 -158 -52t-61 -133q0 -44 20 -79q20 -36 57 -58q33 -20 82 -40q17 -7 101 -38q15 -4 21 -6q84 -28 127 -48q49 -22 105 -61q60 -41 86 -100q28 -62 28 -141q0 -139 -104 -245
t-269 -113v-90q106 0 176 -48q68 -47 68 -118q0 -90 -84 -149q-83 -58 -203 -58z" />
    <glyph glyph-name="scedilla.smcp" unicode="&#xf65c;" horiz-adv-x="978" 
d="M469 -479q-177 0 -299 114l125 76q91 -73 174 -73q59 0 99 24t40 59q0 74 -145 74h-84v199q-200 33 -334 211l139 108q112 -182 301 -182q103 0 169 60q67 61 67 151q0 61 -41 105t-89 65q-42 18 -134 49q-15 5 -21 6q-92 31 -127 47q-47 21 -103 61q-58 41 -84 98
q-28 61 -28 138q0 140 110 233t271 93q242 0 389 -180l-129 -99q-86 140 -258 140q-97 0 -158 -52t-61 -133q0 -44 20 -79q20 -36 57 -58q33 -20 82 -40q17 -7 101 -38q15 -4 21 -6q84 -28 127 -48q49 -22 105 -61q60 -41 86 -100q28 -62 28 -141q0 -139 -104 -245
t-269 -113v-90q106 0 176 -48q68 -47 68 -118q0 -90 -84 -149q-83 -58 -203 -58z" />
    <glyph glyph-name="tcaron.smcp" unicode="&#xe309;" horiz-adv-x="1046" 
d="M444 0v1069h-356v152h870v-152h-354v-1069h-160zM457 1339l-244 332h164l145 -205l148 205h164l-244 -332h-133z" />
    <glyph glyph-name="tcaron.smcp" unicode="&#xf65e;" horiz-adv-x="1046" 
d="M444 0v1069h-356v152h870v-152h-354v-1069h-160zM457 1339l-244 332h164l145 -205l148 205h164l-244 -332h-133z" />
    <glyph glyph-name="tcommaaccent.smcp" unicode="&#xe30a;" horiz-adv-x="1046" 
d="M473 -520h-108l84 418h145zM444 0v1069h-356v152h870v-152h-354v-1069h-160z" />
    <glyph glyph-name="tcommaaccent.smcp" unicode="&#xf65f;" horiz-adv-x="1046" 
d="M473 -520h-108l84 418h145zM444 0v1069h-356v152h870v-152h-354v-1069h-160z" />
    <glyph glyph-name="tbar.smcp" unicode="&#xe30d;" horiz-adv-x="1046" 
d="M815 543h-211v-543h-160v543h-213v151h213v375h-356v152h870v-152h-354v-375h211v-151z" />
    <glyph glyph-name="tbar.smcp" unicode="&#xf637;" horiz-adv-x="1046" 
d="M815 543h-211v-543h-160v543h-213v151h213v375h-356v152h870v-152h-354v-375h211v-151z" />
    <glyph glyph-name="uacute.smcp" unicode="&#xe30e;" horiz-adv-x="1099" 
d="M436 1319l240 332h205l-297 -332h-148zM549 -16q-185 0 -300 111q-116 111 -116 302v824h158v-832q0 -117 71 -187q73 -71 189 -71q113 0 186 71q72 71 72 187v832h158v-824q0 -191 -117 -302t-301 -111z" />
    <glyph glyph-name="uacute.smcp" unicode="&#xf7fa;" horiz-adv-x="1099" 
d="M436 1319l240 332h205l-297 -332h-148zM549 -16q-185 0 -300 111q-116 111 -116 302v824h158v-832q0 -117 71 -187q73 -71 189 -71q113 0 186 71q72 71 72 187v832h158v-824q0 -191 -117 -302t-301 -111z" />
    <glyph glyph-name="ugrave.smcp" unicode="&#xe30f;" horiz-adv-x="1099" 
d="M549 -16q-185 0 -300 111q-116 111 -116 302v824h158v-832q0 -117 71 -187q73 -71 189 -71q113 0 186 71q72 71 72 187v832h158v-824q0 -191 -117 -302t-301 -111zM479 1319l-297 332h203l242 -332h-148z" />
    <glyph glyph-name="ugrave.smcp" unicode="&#xf7f9;" horiz-adv-x="1099" 
d="M549 -16q-185 0 -300 111q-116 111 -116 302v824h158v-832q0 -117 71 -187q73 -71 189 -71q113 0 186 71q72 71 72 187v832h158v-824q0 -191 -117 -302t-301 -111zM479 1319l-297 332h203l242 -332h-148z" />
    <glyph glyph-name="wdieresis.smcp" unicode="&#xe310;" horiz-adv-x="1789" 
d="M410 0l-349 1221h168l269 -973l311 973h152l311 -985l295 985h162l-375 -1221h-162l-307 971l-312 -971h-163zM678 1354v284h158v-284h-158zM952 1354v284h158v-284h-158z" />
    <glyph glyph-name="wdieresis.smcp" unicode="&#xf63c;" horiz-adv-x="1789" 
d="M410 0l-349 1221h168l269 -973l311 973h152l311 -985l295 985h162l-375 -1221h-162l-307 971l-312 -971h-163zM678 1354v284h158v-284h-158zM952 1354v284h158v-284h-158z" />
    <glyph glyph-name="udieresis.smcp" unicode="&#xe311;" horiz-adv-x="1099" 
d="M610 1354v284h158v-284h-158zM336 1354v284h158v-284h-158zM549 -16q-185 0 -300 111q-116 111 -116 302v824h158v-832q0 -117 71 -187q73 -71 189 -71q113 0 186 71q72 71 72 187v832h158v-824q0 -191 -117 -302t-301 -111z" />
    <glyph glyph-name="udieresis.smcp" unicode="&#xf7fc;" horiz-adv-x="1099" 
d="M610 1354v284h158v-284h-158zM336 1354v284h158v-284h-158zM549 -16q-185 0 -300 111q-116 111 -116 302v824h158v-832q0 -117 71 -187q73 -71 189 -71q113 0 186 71q72 71 72 187v832h158v-824q0 -191 -117 -302t-301 -111z" />
    <glyph glyph-name="utilde.smcp" unicode="&#xe312;" horiz-adv-x="1099" 
d="M549 -16q-185 0 -300 111q-116 111 -116 302v824h158v-832q0 -117 71 -187q73 -71 189 -71q113 0 186 71q72 71 72 187v832h158v-824q0 -191 -117 -302t-301 -111zM190 1339q0 111 57 179q57 67 146 67q72 0 166 -55q90 -57 129 -57q80 0 80 106h127q0 -114 -53 -181
t-152 -67q-73 0 -186 68q-78 45 -111 45q-76 0 -76 -105h-127z" />
    <glyph glyph-name="utilde.smcp" unicode="&#xf639;" horiz-adv-x="1099" 
d="M549 -16q-185 0 -300 111q-116 111 -116 302v824h158v-832q0 -117 71 -187q73 -71 189 -71q113 0 186 71q72 71 72 187v832h158v-824q0 -191 -117 -302t-301 -111zM190 1339q0 111 57 179q57 67 146 67q72 0 166 -55q90 -57 129 -57q80 0 80 106h127q0 -114 -53 -181
t-152 -67q-73 0 -186 68q-78 45 -111 45q-76 0 -76 -105h-127z" />
    <glyph glyph-name="uring.smcp" unicode="&#xe313;" horiz-adv-x="1099" 
d="M543 1313q-91 0 -154 64q-63 65 -63 155q0 92 63 157q63 64 154 64q93 0 158 -63t65 -158q0 -90 -65 -155q-64 -64 -158 -64zM543 1436q41 0 70 28q30 28 30 68q0 41 -30 71q-29 29 -70 29q-40 0 -68 -29q-29 -31 -29 -71q0 -39 29 -68q28 -28 68 -28zM549 -16
q-185 0 -300 111q-116 111 -116 302v824h158v-832q0 -117 71 -187q73 -71 189 -71q113 0 186 71q72 71 72 187v832h158v-824q0 -191 -117 -302t-301 -111z" />
    <glyph glyph-name="uring.smcp" unicode="&#xf663;" horiz-adv-x="1099" 
d="M543 1313q-91 0 -154 64q-63 65 -63 155q0 92 63 157q63 64 154 64q93 0 158 -63t65 -158q0 -90 -65 -155q-64 -64 -158 -64zM543 1436q41 0 70 28q30 28 30 68q0 41 -30 71q-29 29 -70 29q-40 0 -68 -29q-29 -31 -29 -71q0 -39 29 -68q28 -28 68 -28zM549 -16
q-185 0 -300 111q-116 111 -116 302v824h158v-832q0 -117 71 -187q73 -71 189 -71q113 0 186 71q72 71 72 187v832h158v-824q0 -191 -117 -302t-301 -111z" />
    <glyph glyph-name="umacron.smcp" unicode="&#xe315;" horiz-adv-x="1099" 
d="M549 -16q-185 0 -300 111q-116 111 -116 302v824h158v-832q0 -117 71 -187q73 -71 189 -71q113 0 186 71q72 71 72 187v832h158v-824q0 -191 -117 -302t-301 -111zM281 1339v138h540v-138h-540z" />
    <glyph glyph-name="umacron.smcp" unicode="&#xf661;" horiz-adv-x="1099" 
d="M549 -16q-185 0 -300 111q-116 111 -116 302v824h158v-832q0 -117 71 -187q73 -71 189 -71q113 0 186 71q72 71 72 187v832h158v-824q0 -191 -117 -302t-301 -111zM281 1339v138h540v-138h-540z" />
    <glyph glyph-name="ubreve.smcp" unicode="&#xe316;" horiz-adv-x="1099" 
d="M549 -16q-185 0 -300 111q-116 111 -116 302v824h158v-832q0 -117 71 -187q73 -71 189 -71q113 0 186 71q72 71 72 187v832h158v-824q0 -191 -117 -302t-301 -111zM551 1315q-162 0 -246 94q-84 95 -84 240h135q0 -97 51 -156q50 -58 144 -59q92 2 142 59q50 58 50 156
h140q0 -143 -91 -238q-92 -96 -241 -96z" />
    </font>
</defs>
</svg>
